<svg width="6" height="22" viewBox="0 0 6 22" fill="none" xmlns="http://www.w3.org/2000/svg">
<path d="M5.66699 3.16997C5.6664 2.64261 5.50948 2.12732 5.21606 1.68913C4.92265 1.25094 4.50594 0.909573 4.01855 0.708175C3.53117 0.506776 2.99499 0.454294 2.47784 0.55754C1.96069 0.660785 1.48578 0.915025 1.1131 1.28813C0.740412 1.66124 0.486697 2.13647 0.384033 2.65373C0.281369 3.171 0.334369 3.7071 0.536316 4.19426C0.738263 4.68141 1.0801 5.09775 1.51862 5.39067C1.95714 5.68359 2.47265 5.84001 3 5.84001C3.7072 5.8379 4.38479 5.55582 4.88458 5.05546C5.38437 4.55511 5.66567 3.87717 5.66699 3.16997Z" fill="#656565"/>
<path d="M5.66699 18.83C5.6664 18.3026 5.50948 17.7873 5.21606 17.3491C4.92265 16.9109 4.50594 16.5696 4.01855 16.3682C3.53117 16.1668 2.99499 16.1143 2.47784 16.2175C1.96069 16.3208 1.48578 16.575 1.1131 16.9481C0.740412 17.3212 0.486697 17.7965 0.384033 18.3137C0.281369 18.831 0.334369 19.3671 0.536316 19.8543C0.738263 20.3414 1.0801 20.7577 1.51862 21.0507C1.95714 21.3436 2.47265 21.5 3 21.5C3.7072 21.4979 4.38479 21.2158 4.88458 20.7155C5.38437 20.2151 5.66567 19.5372 5.66699 18.83Z" fill="#656565"/>
<path d="M2.99984 8.32997C3.52805 8.32938 4.04456 8.48556 4.48403 8.77858C4.92351 9.0716 5.2662 9.48839 5.46875 9.97621C5.67129 10.464 5.7246 11.0009 5.62191 11.5191C5.51923 12.0372 5.26516 12.5133 4.89187 12.887C4.51858 13.2607 4.04285 13.5153 3.52484 13.6185C3.00683 13.7218 2.46983 13.6691 1.98178 13.4671C1.49372 13.2651 1.07653 12.9228 0.783015 12.4837C0.489499 12.0445 0.332851 11.5282 0.33285 11C0.334169 10.2928 0.615472 9.61487 1.11526 9.11452C1.61505 8.61417 2.29264 8.33209 2.99984 8.32997Z" fill="#656565"/>
</svg>
