<svg width="8" height="10" viewBox="0 0 8 10" fill="none" xmlns="http://www.w3.org/2000/svg">
<path d="M0.954945 10V0.545454H4.26034C4.91896 0.545454 5.46217 0.659327 5.88996 0.887074C6.31775 1.11174 6.63629 1.41489 6.84557 1.79652C7.05485 2.17507 7.15949 2.59517 7.15949 3.05682C7.15949 3.46307 7.08717 3.79853 6.94252 4.06321C6.80094 4.32789 6.61321 4.53717 6.37931 4.69105C6.14848 4.84493 5.89765 4.95881 5.62682 5.03267V5.125C5.91612 5.14347 6.20696 5.24503 6.49933 5.42969C6.79171 5.61435 7.03638 5.87902 7.23335 6.22372C7.43032 6.56842 7.52881 6.99006 7.52881 7.48864C7.52881 7.96259 7.42109 8.38885 7.20566 8.7674C6.99022 9.14595 6.65014 9.44602 6.18541 9.66761C5.72069 9.8892 5.11593 10 4.37114 10H0.954945ZM2.09983 8.98438H4.37114C5.11901 8.98438 5.6499 8.83973 5.96382 8.55043C6.28082 8.25805 6.43932 7.90412 6.43932 7.48864C6.43932 7.16856 6.35776 6.87311 6.19465 6.60227C6.03153 6.32836 5.79917 6.10985 5.49756 5.94673C5.19595 5.78054 4.83894 5.69744 4.42654 5.69744H2.09983V8.98438ZM2.09983 4.70028H4.22341C4.56811 4.70028 4.87895 4.63258 5.15594 4.49716C5.43601 4.36174 5.6576 4.17093 5.82071 3.92472C5.98691 3.6785 6.07 3.3892 6.07 3.05682C6.07 2.64134 5.92535 2.28894 5.63605 1.99964C5.34675 1.70727 4.88818 1.56108 4.26034 1.56108H2.09983V4.70028Z" fill="#656565"/>
</svg>
