<svg width="26" height="26" viewBox="0 0 26 26" fill="none" xmlns="http://www.w3.org/2000/svg">
<path d="M26 13C26 5.8203 20.1797 0 13 0C5.8203 0 0 5.8203 0 13C0 20.1797 5.8203 26 13 26C20.1797 26 26 20.1797 26 13Z" fill="#28C66F" fill-opacity="0.15"/>
<path d="M18.832 19.157H18.282V6.61703C18.282 6.44199 18.2125 6.27412 18.0887 6.15034C17.9649 6.02657 17.7971 5.95703 17.622 5.95703H8.37901C8.29226 5.9569 8.20632 5.97387 8.12613 6.00698C8.04594 6.04009 7.97307 6.08869 7.91168 6.14999C7.85028 6.21129 7.80158 6.28409 7.76835 6.36423C7.73512 6.44437 7.71801 6.53028 7.71801 6.61703V19.157H7.16801C7.08049 19.157 6.99655 19.1918 6.93467 19.2537C6.87278 19.3156 6.83801 19.3995 6.83801 19.487V20.037H19.163V19.487C19.163 19.4436 19.1544 19.4006 19.1378 19.3605C19.1212 19.3204 19.0968 19.284 19.066 19.2533C19.0353 19.2227 18.9988 19.1984 18.9586 19.1819C18.9185 19.1653 18.8754 19.1569 18.832 19.157ZM10.359 8.04803C10.359 7.96051 10.3938 7.87657 10.4557 7.81469C10.5176 7.7528 10.6015 7.71803 10.689 7.71803H11.789C11.8765 7.71803 11.9605 7.7528 12.0224 7.81469C12.0842 7.87657 12.119 7.96051 12.119 8.04803V9.14803C12.119 9.23555 12.0842 9.31949 12.0224 9.38138C11.9605 9.44326 11.8765 9.47803 11.789 9.47803H10.689C10.6015 9.47803 10.5176 9.44326 10.4557 9.38138C10.3938 9.31949 10.359 9.23555 10.359 9.14803V8.04803ZM10.359 10.689C10.359 10.6015 10.3938 10.5176 10.4557 10.4557C10.5176 10.3938 10.6015 10.359 10.689 10.359H11.789C11.8765 10.359 11.9605 10.3938 12.0224 10.4557C12.0842 10.5176 12.119 10.6015 12.119 10.689V11.789C12.119 11.8766 12.0842 11.9605 12.0224 12.0224C11.9605 12.0843 11.8765 12.119 11.789 12.119H10.689C10.6015 12.119 10.5176 12.0843 10.4557 12.0224C10.3938 11.9605 10.359 11.8766 10.359 11.789V10.689ZM11.79 14.757H10.69C10.6025 14.757 10.5186 14.7223 10.4567 14.6604C10.3948 14.5985 10.36 14.5146 10.36 14.427V13.327C10.36 13.2395 10.3948 13.1556 10.4567 13.0937C10.5186 13.0318 10.6025 12.997 10.69 12.997H11.79C11.8333 12.997 11.8763 13.0056 11.9163 13.0222C11.9563 13.0387 11.9927 13.063 12.0234 13.0937C12.054 13.1243 12.0783 13.1607 12.0949 13.2007C12.1115 13.2408 12.12 13.2837 12.12 13.327V14.427C12.12 14.4704 12.1115 14.5133 12.0949 14.5533C12.0783 14.5934 12.054 14.6297 12.0234 14.6604C11.9927 14.691 11.9563 14.7153 11.9163 14.7319C11.8763 14.7485 11.8333 14.757 11.79 14.757ZM13.881 19.157H12.12V16.851C12.12 16.7635 12.1548 16.6796 12.2167 16.6177C12.2786 16.5558 12.3625 16.521 12.45 16.521H13.55C13.6375 16.521 13.7215 16.5558 13.7834 16.6177C13.8452 16.6796 13.88 16.7635 13.88 16.851L13.881 19.157ZM15.638 14.43C15.638 14.5176 15.6032 14.6015 15.5414 14.6634C15.4795 14.7253 15.3955 14.76 15.308 14.76H14.208C14.1205 14.76 14.0366 14.7253 13.9747 14.6634C13.9128 14.6015 13.878 14.5176 13.878 14.43V13.33C13.878 13.2867 13.8865 13.2438 13.9031 13.2037C13.9197 13.1637 13.944 13.1273 13.9747 13.0967C14.0053 13.066 14.0417 13.0417 14.0817 13.0252C14.1218 13.0086 14.1647 13 14.208 13H15.308C15.3513 13 15.3943 13.0086 15.4343 13.0252C15.4743 13.0417 15.5107 13.066 15.5414 13.0967C15.572 13.1273 15.5963 13.1637 15.6129 13.2037C15.6295 13.2438 15.638 13.2867 15.638 13.33V14.43ZM15.638 11.789C15.638 11.8766 15.6032 11.9605 15.5414 12.0224C15.4795 12.0843 15.3955 12.119 15.308 12.119H14.208C14.1205 12.119 14.0366 12.0843 13.9747 12.0224C13.9128 11.9605 13.878 11.8766 13.878 11.789V10.689C13.878 10.6015 13.9128 10.5176 13.9747 10.4557C14.0366 10.3938 14.1205 10.359 14.208 10.359H15.308C15.3955 10.359 15.4795 10.3938 15.5414 10.4557C15.6032 10.5176 15.638 10.6015 15.638 10.689V11.789ZM15.638 9.14803C15.638 9.23555 15.6032 9.31949 15.5414 9.38138C15.4795 9.44326 15.3955 9.47803 15.308 9.47803H14.208C14.1205 9.47803 14.0366 9.44326 13.9747 9.38138C13.9128 9.31949 13.878 9.23555 13.878 9.14803V8.04803C13.878 8.0047 13.8865 7.96178 13.9031 7.92175C13.9197 7.88171 13.944 7.84533 13.9747 7.81469C14.0053 7.78404 14.0417 7.75974 14.0817 7.74315C14.1218 7.72657 14.1647 7.71803 14.208 7.71803H15.308C15.3513 7.71803 15.3943 7.72657 15.4343 7.74315C15.4743 7.75974 15.5107 7.78404 15.5414 7.81469C15.572 7.84533 15.5963 7.88171 15.6129 7.92175C15.6295 7.96178 15.638 8.0047 15.638 8.04803V9.14803Z" fill="#29C56F"/>
</svg>
