<svg width="26" height="26" viewBox="0 0 26 26" fill="none" xmlns="http://www.w3.org/2000/svg">
<path d="M26 13C26 5.8203 20.1797 0 13 0C5.8203 0 0 5.8203 0 13C0 20.1797 5.8203 26 13 26C20.1797 26 26 20.1797 26 13Z" fill="#28C66F" fill-opacity="0.15"/>
<path d="M19.445 11.584L19.08 10.672L18.433 9.05501C18.1654 8.37949 17.7004 7.80027 17.0987 7.39286C16.4971 6.98545 15.7866 6.76875 15.06 6.77101H10.94C10.2133 6.76869 9.50266 6.98535 8.90082 7.39275C8.29899 7.80015 7.83385 8.37941 7.56601 9.05501L6.91901 10.672L6.55401 11.584C6.16022 11.7325 5.82098 11.9974 5.58143 12.3434C5.34188 12.6894 5.21337 13.1002 5.21301 13.521V15.078C5.21474 15.5794 5.39927 16.0629 5.73201 16.438V18.192C5.73201 18.4673 5.84137 18.7313 6.03604 18.926C6.2307 19.1207 6.49472 19.23 6.77001 19.23H7.81301C8.08831 19.23 8.35233 19.1207 8.54699 18.926C8.74165 18.7313 8.85101 18.4673 8.85101 18.192V17.153H17.153V18.191C17.153 18.4663 17.2624 18.7303 17.457 18.925C17.6517 19.1197 17.9157 19.229 18.191 19.229H19.229C19.5043 19.229 19.7683 19.1197 19.963 18.925C20.1577 18.7303 20.267 18.4663 20.267 18.191V16.437C20.5999 16.062 20.7845 15.5784 20.786 15.077V13.521C20.7857 13.1002 20.6571 12.6894 20.4176 12.3434C20.178 11.9974 19.8388 11.7325 19.445 11.584ZM9.49401 9.82601C9.60968 9.53707 9.80924 9.28938 10.067 9.11489C10.3247 8.9404 10.6288 8.8471 10.94 8.84701H15.06C15.3713 8.8471 15.6753 8.9404 15.9331 9.11489C16.1908 9.28938 16.3903 9.53707 16.506 9.82601L17.153 11.443H8.84701L9.49401 9.82601ZM7.81301 15.07C7.67432 15.0793 7.53523 15.059 7.40499 15.0104C7.27476 14.9618 7.15636 14.8861 7.05769 14.7881C6.95902 14.6902 6.88233 14.5724 6.83273 14.4426C6.78313 14.3127 6.76175 14.1738 6.77001 14.035C6.76175 13.8963 6.78313 13.7573 6.83273 13.6275C6.88233 13.4976 6.95902 13.3798 7.05769 13.2819C7.15636 13.184 7.27476 13.1082 7.40499 13.0596C7.53523 13.011 7.67432 12.9907 7.81301 13C8.19589 13.0784 8.54741 13.2673 8.82412 13.5433C9.10083 13.8193 9.29061 14.1703 9.37001 14.553C9.36601 15.174 8.43201 15.07 7.81301 15.07ZM18.195 15.07C17.572 15.07 16.638 15.17 16.638 14.552C16.7174 14.1693 16.9072 13.8183 17.1839 13.5423C17.4606 13.2663 17.8121 13.0774 18.195 12.999C18.3333 12.9904 18.4718 13.0113 18.6015 13.0602C18.7311 13.1091 18.8489 13.185 18.947 13.2829C19.0451 13.3807 19.1213 13.4982 19.1706 13.6277C19.2199 13.7572 19.2412 13.8957 19.233 14.034C19.2412 14.1723 19.2199 14.3108 19.1706 14.4403C19.1213 14.5698 19.0451 14.6873 18.947 14.7852C18.8489 14.883 18.7311 14.9589 18.6015 15.0078C18.4718 15.0567 18.3333 15.0786 18.195 15.07Z" fill="#29C56F"/>
</svg>
