<svg width="26" height="29" viewBox="0 0 26 29" fill="none" xmlns="http://www.w3.org/2000/svg">
<path d="M26 13C26 5.8203 20.1797 0 13 0C5.8203 0 0 5.8203 0 13C0 20.1797 5.8203 26 13 26C20.1797 26 26 20.1797 26 13Z" fill="#28C66F" fill-opacity="0.15"/>
<path d="M6.594 15.664C6.594 14.416 6.864 13.306 7.404 12.334C7.944 11.35 8.694 10.588 9.654 10.048C10.626 9.496 11.724 9.22 12.948 9.22C14.448 9.22 15.732 9.616 16.8 10.408C17.868 11.2 18.582 12.28 18.942 13.648H15.558C15.306 13.12 14.946 12.718 14.478 12.442C14.022 12.166 13.5 12.028 12.912 12.028C11.964 12.028 11.196 12.358 10.608 13.018C10.02 13.678 9.726 14.56 9.726 15.664C9.726 16.768 10.02 17.65 10.608 18.31C11.196 18.97 11.964 19.3 12.912 19.3C13.5 19.3 14.022 19.162 14.478 18.886C14.946 18.61 15.306 18.208 15.558 17.68H18.942C18.582 19.048 17.868 20.128 16.8 20.92C15.732 21.7 14.448 22.09 12.948 22.09C11.724 22.09 10.626 21.82 9.654 21.28C8.694 20.728 7.944 19.966 7.404 18.994C6.864 18.022 6.594 16.912 6.594 15.664Z" fill="#29C56F"/>
</svg>
