<svg width="14" height="7" viewBox="0 0 14 7" fill="none" xmlns="http://www.w3.org/2000/svg">
<path d="M6.71806 6.5C6.58713 6.50094 6.46068 6.45236 6.36406 6.364L0.364059 0.792999C0.317879 0.751637 0.280936 0.700997 0.255646 0.644394C0.230355 0.587791 0.217285 0.526489 0.217285 0.464493C0.217285 0.402497 0.230355 0.34121 0.255646 0.284607C0.280936 0.228004 0.317879 0.177364 0.364059 0.136002C0.461048 0.0485833 0.586981 0.000198364 0.717552 0.000198364C0.848123 0.000198364 0.974064 0.0485833 1.07105 0.136002L6.71806 5.379L12.3641 0.136002C12.461 0.0485833 12.587 0.000198364 12.7176 0.000198364C12.8481 0.000198364 12.9741 0.0485833 13.0711 0.136002C13.1172 0.177364 13.1542 0.228004 13.1795 0.284607C13.2048 0.34121 13.2178 0.402497 13.2178 0.464493C13.2178 0.526489 13.2048 0.587791 13.1795 0.644394C13.1542 0.700997 13.1172 0.751637 13.0711 0.792999L7.07105 6.364C6.97469 6.45213 6.84864 6.50069 6.71806 6.5Z" fill="#1E1E1E"/>
</svg>
