<svg width="8" height="10" viewBox="0 0 8 10" fill="none" xmlns="http://www.w3.org/2000/svg">
<path d="M6.0056 6.816C6.0056 7.31867 5.87993 7.74767 5.6286 8.103C5.38594 8.44967 5.0566 8.714 4.6406 8.896C4.23327 9.06933 3.7826 9.156 3.2886 9.156C2.62994 9.156 2.09694 9.02167 1.6896 8.753C1.28227 8.47567 0.987602 8.15933 0.805602 7.804L0.740602 8.87C0.740602 8.95667 0.697268 9 0.610602 9H0.129602C0.0516016 9 0.0126016 8.95667 0.0126016 8.87V6.296C0.0126016 6.218 0.0472683 6.179 0.116602 6.179H0.636602C0.653935 6.179 0.675602 6.18333 0.701602 6.192C0.727602 6.20067 0.749268 6.22667 0.766602 6.27C0.870602 6.52133 0.978935 6.777 1.0916 7.037C1.20427 7.297 1.34727 7.53967 1.5206 7.765C1.69394 7.98167 1.91927 8.15933 2.1966 8.298C2.47394 8.428 2.8336 8.493 3.2756 8.493C3.91694 8.493 4.39794 8.34567 4.7186 8.051C5.03927 7.74767 5.1996 7.349 5.1996 6.855C5.1996 6.439 5.08694 6.114 4.8616 5.88C4.63627 5.646 4.33727 5.45967 3.9646 5.321C3.59194 5.18233 3.18894 5.05233 2.7556 4.931C2.3396 4.80967 1.9366 4.671 1.5466 4.515C1.1566 4.35033 0.835935 4.125 0.584602 3.839C0.341935 3.553 0.220602 3.16733 0.220602 2.682C0.220602 2.19667 0.341935 1.77633 0.584602 1.421C0.827268 1.06567 1.14794 0.792666 1.5466 0.602C1.95393 0.402666 2.4046 0.303 2.8986 0.303C3.42727 0.303 3.8736 0.402666 4.2376 0.602C4.6016 0.792666 4.86594 0.992 5.0306 1.2L5.1216 0.55C5.13027 0.489333 5.17794 0.459 5.2646 0.459H5.7326C5.79327 0.459 5.8236 0.498 5.8236 0.576V2.838C5.8236 2.93333 5.78894 2.981 5.7196 2.981H5.3036C5.26027 2.981 5.2256 2.97667 5.1996 2.968C5.18227 2.95067 5.16494 2.91167 5.1476 2.851C5.08694 2.67767 5.00894 2.48267 4.9136 2.266C4.82694 2.04933 4.70127 1.84133 4.5366 1.642C4.37194 1.44267 4.15527 1.28233 3.8866 1.161C3.6266 1.031 3.29727 0.966 2.8986 0.966C2.31794 0.966 1.86294 1.11333 1.5336 1.408C1.20427 1.694 1.0396 2.084 1.0396 2.578C1.0396 2.916 1.12627 3.18467 1.2996 3.384C1.4816 3.58333 1.73727 3.748 2.0666 3.878C2.39594 3.99933 2.78594 4.12933 3.2366 4.268C3.56594 4.372 3.89527 4.48467 4.2246 4.606C4.55394 4.72733 4.85294 4.879 5.1216 5.061C5.39027 5.243 5.6026 5.477 5.7586 5.763C5.92327 6.04033 6.0056 6.39133 6.0056 6.816ZM7.27452 5.932H0.618523V5.347H7.27452V5.932Z" fill="#656565"/>
</svg>
