<svg width="26" height="26" viewBox="0 0 26 26" fill="none" xmlns="http://www.w3.org/2000/svg">
<path d="M26 13C26 5.8203 20.1797 0 13 0C5.8203 0 0 5.8203 0 13C0 20.1797 5.8203 26 13 26C20.1797 26 26 20.1797 26 13Z" fill="#28C66F" fill-opacity="0.15"/>
<mask id="mask0_556_867" style="mask-type:luminance" maskUnits="userSpaceOnUse" x="0" y="-1" width="26" height="28">
<path d="M26 -0.00292969H0V26.0021H26V-0.00292969Z" fill="white"/>
</mask>
<g mask="url(#mask0_556_867)">
<path d="M13.277 -0.00292969C13.434 0.0150703 13.59 0.0420703 13.747 0.0500703C15.6576 0.145846 17.5218 0.672664 19.2 1.59107C21.6561 2.90399 23.6167 4.98253 24.784 7.51107C25.3586 8.72561 25.7347 10.0244 25.898 11.3581C26.2711 14.1427 25.7161 16.9726 24.319 19.4101C22.9238 21.9147 20.7251 23.8759 18.078 24.9771C16.8181 25.5223 15.4766 25.8552 14.108 25.9621C11.1583 26.2195 8.21004 25.4512 5.761 23.7871C3.82418 22.4981 2.27753 20.7031 1.289 18.5971C0.690842 17.3604 0.30351 16.0324 0.143 14.6681C0.097 14.2681 0.079 13.8681 0.043 13.4611C0.0330541 13.3833 0.0186976 13.3062 0 13.2301L0 12.7971C0.015 12.7131 0.038 12.6291 0.045 12.5441C0.079 12.1441 0.098 11.7521 0.145 11.3581C0.298459 10.0302 0.670125 8.73682 1.245 7.53007C2.40562 5.00701 4.35535 2.92987 6.8 1.61207C8.48657 0.682166 10.3626 0.148029 12.286 0.0500703C12.443 0.0410703 12.599 0.0150703 12.756 -0.00292969H13.277ZM13.008 25.0501C15.3887 25.0516 17.7165 24.3474 19.6971 23.0263C21.6776 21.7052 23.2221 19.8266 24.1352 17.628C25.0483 15.4293 25.2891 13.0093 24.8271 10.6738C24.3652 8.33832 23.2212 6.19222 21.5398 4.50676C19.8584 2.8213 17.715 1.67216 15.3807 1.20457C13.0463 0.73699 10.6257 0.97196 8.42487 1.87978C6.22402 2.78761 4.34171 4.32753 3.01586 6.30491C1.69002 8.28228 0.980153 10.6083 0.976 12.9891C0.973503 14.5712 1.2828 16.1383 1.88623 17.6009C2.48965 19.0634 3.37537 20.3927 4.49276 21.5128C5.61015 22.6329 6.93732 23.5218 8.39841 24.1287C9.85949 24.7357 11.4259 25.0488 13.008 25.0501Z" fill="#29C56F"/>
<path d="M11.379 9.23383C11.379 8.47483 11.379 7.71583 11.379 6.95683C11.379 6.78383 11.432 6.73583 11.603 6.73683C12.543 6.74416 13.483 6.74416 14.423 6.73683C14.608 6.73683 14.666 6.79682 14.651 6.97282C14.6369 7.12416 14.6369 7.27649 14.651 7.42783C14.672 7.62783 14.586 7.66982 14.402 7.66682C13.802 7.65682 13.2021 7.66683 12.6021 7.65883C12.4021 7.65883 12.333 7.72482 12.347 7.92082C12.3604 8.12294 12.3604 8.32572 12.347 8.52783C12.336 8.70683 12.4021 8.77183 12.5811 8.76883C13.1091 8.76183 13.637 8.77483 14.164 8.76183C14.369 8.76183 14.457 8.81283 14.433 9.02783C14.4196 9.17185 14.4196 9.31681 14.433 9.46083C14.445 9.61683 14.38 9.66083 14.233 9.66083C13.676 9.65383 13.12 9.66083 12.563 9.65483C12.406 9.65483 12.341 9.69283 12.349 9.85983C12.361 10.1048 12.361 10.3518 12.349 10.5968C12.34 10.7718 12.409 10.8218 12.576 10.8198C13.248 10.8128 13.921 10.8198 14.593 10.8138C14.769 10.8138 14.843 10.8578 14.828 11.0438C14.813 11.2298 14.8361 11.4058 14.8181 11.5848C14.8121 11.6408 14.725 11.7328 14.674 11.7328C13.626 11.7418 12.5741 11.7378 11.5291 11.7408C11.3691 11.7408 11.384 11.6408 11.384 11.5348C11.384 10.7682 11.384 10.0015 11.384 9.23483" fill="#29C56F"/>
<path d="M14.204 16.7542C14.204 15.9882 14.204 15.2222 14.204 14.4542C14.204 14.2962 14.246 14.2402 14.411 14.2412C15.365 14.2479 16.3187 14.2479 17.272 14.2412C17.421 14.2412 17.483 14.2822 17.472 14.4412C17.4608 14.6144 17.4608 14.7881 17.472 14.9612C17.483 15.1222 17.427 15.1752 17.264 15.1732C16.664 15.1652 16.064 15.1732 15.464 15.1732C15.175 15.1732 15.175 15.1732 15.174 15.4612C15.174 15.6422 15.186 15.8232 15.174 16.0032C15.156 16.2172 15.225 16.2972 15.451 16.2912C15.978 16.2762 16.506 16.2912 17.033 16.2832C17.198 16.2832 17.275 16.3222 17.257 16.5012C17.235 16.7132 17.307 16.9962 17.195 17.1202C17.095 17.2282 16.803 17.1632 16.595 17.1642C16.195 17.1642 15.795 17.1722 15.403 17.1642C15.238 17.1642 15.166 17.2052 15.174 17.3812C15.185 17.6262 15.183 17.8722 15.174 18.1182C15.169 18.2802 15.236 18.3312 15.393 18.3302C16.065 18.3252 16.737 18.3302 17.409 18.3242C17.601 18.3242 17.67 18.3772 17.652 18.5692C17.6391 18.7276 17.6391 18.8868 17.652 19.0452C17.663 19.2072 17.603 19.2562 17.441 19.2552C16.661 19.2482 15.88 19.2552 15.1 19.2552C14.883 19.2552 14.666 19.2432 14.45 19.2552C14.262 19.2682 14.2 19.2112 14.203 19.0152C14.214 18.2642 14.203 17.5152 14.203 16.7612" fill="#29C56F"/>
<path d="M4.18103 15.9392C4.18103 15.4392 4.18103 14.9392 4.18103 14.4392C4.18103 14.2892 4.22503 14.2302 4.38103 14.2392C4.56149 14.2514 4.74257 14.2514 4.92303 14.2392C5.10203 14.2252 5.15903 14.2872 5.15803 14.4692C5.15003 15.3945 5.15003 16.3199 5.15803 17.2452C5.14911 17.5302 5.25122 17.8075 5.44281 18.0187C5.6344 18.2299 5.90051 18.3584 6.18503 18.3772C6.4617 18.3966 6.7349 18.3064 6.94559 18.126C7.15628 17.9456 7.28754 17.6896 7.31103 17.4132C7.33103 16.4522 7.32803 15.4912 7.33403 14.5302C7.33403 14.2422 7.33403 14.2422 7.62003 14.2422C7.79303 14.2422 7.96703 14.2472 8.14003 14.2422C8.26603 14.2422 8.32303 14.2742 8.32203 14.4122C8.32203 15.3732 8.34303 16.3362 8.31303 17.2962C8.31352 17.8053 8.12558 18.2966 7.78542 18.6753C7.44526 19.0541 6.97695 19.2935 6.47074 19.3476C5.96453 19.4016 5.45623 19.2663 5.0438 18.9679C4.63137 18.6695 4.34399 18.2289 4.23703 17.7312C4.20527 17.5762 4.18952 17.4184 4.19003 17.2602C4.18403 16.8192 4.19003 16.3782 4.19003 15.9372" fill="#29C56F"/>
<path d="M20.9029 15.2352C20.7519 15.2282 20.6669 15.2222 20.5829 15.2212C20.0269 15.2212 19.4699 15.2212 18.9139 15.2212C18.7659 15.2212 18.706 15.1742 18.714 15.0212C18.724 14.8212 18.72 14.6212 18.714 14.4142C18.714 14.2992 18.7439 14.2422 18.8719 14.2422C19.9119 14.2422 20.9529 14.2422 21.9929 14.2502C22.0282 14.26 22.0605 14.2786 22.0865 14.3044C22.1126 14.3301 22.1317 14.362 22.1419 14.3972C22.1586 14.6422 22.1586 14.8882 22.1419 15.1332C22.1255 15.2318 22.0826 15.324 22.0179 15.4002C21.3653 16.2669 20.7099 17.1289 20.0519 17.9862C19.9969 18.0592 19.9519 18.1362 19.8669 18.2512C19.9909 18.2612 20.0719 18.2732 20.1529 18.2732C20.7529 18.2732 21.3529 18.2832 21.9529 18.2732C22.1609 18.2732 22.2179 18.3402 22.2029 18.5332C22.1932 18.7137 22.1932 18.8947 22.2029 19.0752C22.2029 19.1902 22.1719 19.2472 22.0439 19.2472C20.9599 19.2472 19.8763 19.2472 18.7929 19.2472C18.6709 19.2472 18.626 19.2022 18.628 19.0822C18.633 18.8362 18.6199 18.5902 18.6349 18.3452C18.6478 18.2541 18.6855 18.1683 18.744 18.0972C19.3926 17.2392 20.0436 16.3829 20.697 15.5282C20.756 15.4502 20.811 15.3682 20.904 15.2362" fill="#29C56F"/>
<path d="M18.0761 7.70587H17.776C17.22 7.70587 16.663 7.69887 16.107 7.70587C15.93 7.70587 15.878 7.64686 15.888 7.48086C15.899 7.29386 15.895 7.10487 15.888 6.91787C15.888 6.79487 15.9191 6.73388 16.0581 6.73488C17.0841 6.73888 18.1101 6.73888 19.1361 6.73488C19.2631 6.73488 19.299 6.78987 19.297 6.90487C19.297 7.15087 19.309 7.39687 19.289 7.64087C19.2697 7.75149 19.2214 7.85501 19.1491 7.94087C18.4961 8.80487 17.837 9.66388 17.18 10.5239C17.139 10.5779 17.102 10.6359 17.035 10.7319C17.163 10.7419 17.245 10.7549 17.327 10.7549C17.934 10.7549 18.5411 10.7619 19.1481 10.7549C19.3291 10.7549 19.392 10.8119 19.379 10.9909C19.369 11.1784 19.369 11.3663 19.379 11.5539C19.379 11.6799 19.3441 11.7359 19.2081 11.7349C18.1314 11.7309 17.0547 11.7309 15.978 11.7349C15.846 11.7349 15.7971 11.6889 15.8001 11.5579C15.8061 11.3199 15.7901 11.0799 15.8071 10.8429C15.8195 10.7379 15.8603 10.6383 15.9251 10.5549C16.5811 9.68387 17.2431 8.81888 17.9031 7.95488C17.9491 7.89388 17.9901 7.82888 18.0751 7.70488" fill="#29C56F"/>
<path d="M10.893 16.2818C10.893 16.8678 10.899 17.4528 10.893 18.0388C10.893 18.2478 10.947 18.3328 11.174 18.3268C11.759 18.3108 12.345 18.3268 12.931 18.3188C13.094 18.3188 13.15 18.3708 13.14 18.5308C13.1304 18.7114 13.1304 18.8923 13.14 19.0728C13.146 19.2068 13.092 19.2478 12.962 19.2478C12.0073 19.2445 11.053 19.2445 10.099 19.2478C9.94998 19.2478 9.91699 19.1858 9.91699 19.0478C9.91699 17.5078 9.91699 15.9678 9.91699 14.4278C9.91699 14.2868 9.96399 14.2338 10.106 14.2398C10.3008 14.2505 10.4961 14.2505 10.691 14.2398C10.86 14.2288 10.9 14.3038 10.899 14.4558C10.894 15.0628 10.899 15.6708 10.899 16.2778" fill="#29C56F"/>
<path d="M7.08899 9.21582C7.08899 8.46482 7.08899 7.71582 7.08899 6.96182C7.08899 6.79582 7.12699 6.72283 7.30699 6.73683C7.48701 6.75188 7.66797 6.75188 7.84799 6.73683C8.03099 6.72083 8.064 6.80282 8.064 6.96382C8.064 8.10582 8.064 9.24683 8.064 10.3888C8.064 10.8718 8.027 10.8128 8.498 10.8148C9.018 10.8148 9.539 10.8258 10.058 10.8148C10.275 10.8088 10.338 10.8828 10.318 11.0858C10.3069 11.2446 10.3069 11.404 10.318 11.5628C10.323 11.6888 10.285 11.7448 10.147 11.7448C9.18632 11.7408 8.22533 11.7408 7.26399 11.7448C7.10299 11.7448 7.095 11.6618 7.095 11.5398C7.095 10.7668 7.095 9.99383 7.095 9.22083" fill="#29C56F"/>
</g>
</svg>
