<svg width="26" height="26" viewBox="0 0 26 26" fill="none" xmlns="http://www.w3.org/2000/svg">
<path d="M26 13C26 5.8203 20.1797 0 13 0C5.8203 0 0 5.8203 0 13C0 20.1797 5.8203 26 13 26C20.1797 26 26 20.1797 26 13Z" fill="#28C66F" fill-opacity="0.15"/>
<path d="M10.188 13.0002H6.203C6.08294 13.0005 5.96787 13.0483 5.88297 13.1332C5.79808 13.2181 5.75026 13.3332 5.75 13.4532V14.3593C5.75026 14.4793 5.79808 14.5944 5.88297 14.6793C5.96787 14.7642 6.08294 14.812 6.203 14.8123H10.23C10.4508 14.8076 10.6662 14.8804 10.839 15.0179C11.0118 15.1554 11.131 15.3491 11.176 15.5653C11.2132 15.7903 11.1644 16.0211 11.0392 16.2118C10.914 16.4024 10.7217 16.539 10.5004 16.5944C10.2791 16.6497 10.0451 16.6197 9.84493 16.5103C9.64475 16.401 9.49305 16.2203 9.42 16.0042C9.38672 15.9179 9.3275 15.8441 9.25048 15.7929C9.17347 15.7416 9.08246 15.7156 8.99 15.7183H8.061C7.99548 15.7176 7.9306 15.7312 7.87089 15.7582C7.81117 15.7852 7.75805 15.8248 7.71522 15.8744C7.67239 15.924 7.64088 15.9823 7.62288 16.0453C7.60488 16.1084 7.60083 16.1745 7.611 16.2393C7.7467 16.9326 8.14697 17.5459 8.72701 17.9493C9.30706 18.3527 10.0213 18.5144 10.7186 18.4003C11.4158 18.2862 12.0413 17.9051 12.4624 17.3379C12.8836 16.7706 13.0674 16.0617 12.975 15.3612C12.8741 14.6974 12.5362 14.0926 12.0239 13.6586C11.5115 13.2245 10.8594 12.9907 10.188 13.0002ZM6.203 12.0943H15.719C16.2346 12.0943 16.7396 11.9477 17.1751 11.6717C17.6105 11.3956 17.9585 11.0014 18.1784 10.535C18.3984 10.0687 18.4812 9.54943 18.4172 9.03782C18.3532 8.5262 18.1451 8.04333 17.8171 7.64551C17.489 7.2477 17.0547 6.95135 16.5646 6.79103C16.0746 6.63071 15.5491 6.61303 15.0494 6.74005C14.5497 6.86707 14.0964 7.13356 13.7424 7.50843C13.3883 7.8833 13.1482 8.35109 13.05 8.85725C13.0395 8.92164 13.0432 8.98755 13.0609 9.05035C13.0786 9.11314 13.1099 9.17129 13.1525 9.22068C13.1951 9.27008 13.248 9.30952 13.3076 9.33623C13.3671 9.36293 13.4318 9.37625 13.497 9.37525H14.426C14.5185 9.37822 14.6097 9.35227 14.6867 9.30101C14.7638 9.24974 14.823 9.17572 14.856 9.08925C14.9258 8.86867 15.0772 8.68305 15.2792 8.57031C15.4813 8.45757 15.7187 8.4262 15.9431 8.48262C16.1675 8.53903 16.3618 8.67897 16.4865 8.87386C16.6112 9.06875 16.6568 9.30388 16.614 9.53125C16.5694 9.74763 16.4502 9.94149 16.2774 10.0791C16.1045 10.2167 15.8889 10.2893 15.668 10.2843H6.203C6.08397 10.2845 5.96979 10.3315 5.88507 10.4151C5.80034 10.4987 5.75184 10.6122 5.75 10.7312V11.6413C5.75026 11.7613 5.79808 11.8764 5.88297 11.9613C5.96787 12.0462 6.08294 12.094 6.203 12.0943ZM17.078 13.0002H12.65C13.2019 13.4754 13.5957 14.1075 13.779 14.8123H17.079C17.3183 14.8114 17.5535 14.8737 17.761 14.9929C17.9685 15.1121 18.1408 15.284 18.2605 15.4912C18.3803 15.6983 18.4432 15.9334 18.4429 16.1727C18.4427 16.412 18.3792 16.6469 18.2591 16.8538C18.1389 17.0607 17.9662 17.2322 17.7585 17.351C17.5508 17.4698 17.3154 17.5316 17.0761 17.5302C16.8368 17.5288 16.6022 17.4643 16.3958 17.3432C16.1895 17.222 16.0188 17.0485 15.901 16.8403C15.857 16.7719 15.796 16.7161 15.7239 16.6784C15.6519 16.6407 15.5713 16.6224 15.49 16.6252H14.532C14.4596 16.6248 14.3881 16.6416 14.3235 16.6743C14.2589 16.7071 14.2031 16.7548 14.1607 16.8136C14.1184 16.8723 14.0906 16.9403 14.0799 17.0119C14.0692 17.0835 14.0757 17.1567 14.099 17.2253C14.2925 17.7733 14.6331 18.2575 15.0834 18.6249C15.5338 18.9923 16.0765 19.2288 16.6522 19.3084C17.2279 19.388 17.8144 19.3077 18.3475 19.0763C18.8807 18.8449 19.3399 18.4713 19.6749 17.9964C20.0099 17.5215 20.2078 16.9635 20.247 16.3837C20.2861 15.8038 20.165 15.2243 19.8969 14.7087C19.6288 14.1931 19.224 13.7611 18.7268 13.4601C18.2296 13.1592 17.6592 13.0008 17.078 13.0023V13.0002Z" fill="#29C56F"/>
</svg>
