<svg width="16" height="16" viewBox="0 0 16 16" fill="none" xmlns="http://www.w3.org/2000/svg">
<path d="M6.76681 3.942C6.76681 2.31718 5.44963 1 3.82481 1C2.19999 1 0.882812 2.31718 0.882812 3.942C0.882812 5.56682 2.19999 6.884 3.82481 6.884C5.44963 6.884 6.76681 5.56682 6.76681 3.942Z" stroke="#1E1E1E" stroke-width="1.5" stroke-linecap="round" stroke-linejoin="round"/>
<path d="M14.7907 3.942C14.7907 2.31718 13.4736 1 11.8487 1C10.2239 1 8.90674 2.31718 8.90674 3.942C8.90674 5.56682 10.2239 6.884 11.8487 6.884C13.4736 6.884 14.7907 5.56682 14.7907 3.942Z" stroke="#1E1E1E" stroke-width="1.5" stroke-linecap="round" stroke-linejoin="round"/>
<path d="M6.76681 11.966C6.76681 10.3412 5.44963 9.02399 3.82481 9.02399C2.19999 9.02399 0.882812 10.3412 0.882812 11.966C0.882812 13.5908 2.19999 14.908 3.82481 14.908C5.44963 14.908 6.76681 13.5908 6.76681 11.966Z" stroke="#1E1E1E" stroke-width="1.5" stroke-linecap="round" stroke-linejoin="round"/>
<path d="M14.7907 11.966C14.7907 10.3412 13.4736 9.02399 11.8487 9.02399C10.2239 9.02399 8.90674 10.3412 8.90674 11.966C8.90674 13.5908 10.2239 14.908 11.8487 14.908C13.4736 14.908 14.7907 13.5908 14.7907 11.966Z" stroke="#1E1E1E" stroke-width="1.5" stroke-linecap="round" stroke-linejoin="round"/>
</svg>
