<svg width="16" height="14" viewBox="0 0 16 14" fill="none" xmlns="http://www.w3.org/2000/svg">
<path d="M15.5026 1.57104H4.05762" stroke="#656565"/>
<path d="M15.5026 5.81006H4.05762" stroke="#656565"/>
<path d="M15.5026 10.896H4.05762" stroke="#656565"/>
<path d="M2.13326 1.09091V4H1.5182V1.67472H1.50115L0.834961 2.09233V1.54688L1.55513 1.09091H2.13326Z" fill="#656565"/>
<path d="M0.867631 8V7.55682L1.90314 6.59801C1.99121 6.51278 2.06507 6.43608 2.12473 6.3679C2.18534 6.29972 2.23127 6.23295 2.26252 6.16761C2.29377 6.10133 2.30939 6.02983 2.30939 5.95312C2.30939 5.8679 2.28998 5.79451 2.25115 5.73295C2.21233 5.67045 2.1593 5.62263 2.09206 5.58949C2.02483 5.5554 1.9486 5.53835 1.86337 5.53835C1.77435 5.53835 1.6967 5.55634 1.63042 5.59233C1.56413 5.62831 1.51299 5.67992 1.47701 5.74716C1.44102 5.81439 1.42303 5.89441 1.42303 5.98722H0.839222C0.839222 5.79687 0.882309 5.63163 0.968484 5.49148C1.05466 5.35133 1.1754 5.2429 1.3307 5.16619C1.486 5.08949 1.66498 5.05114 1.86763 5.05114C2.07596 5.05114 2.25731 5.08807 2.41167 5.16193C2.56697 5.23485 2.68771 5.33617 2.77388 5.46591C2.86006 5.59564 2.90314 5.74432 2.90314 5.91193C2.90314 6.02178 2.88136 6.13021 2.8378 6.23722C2.79519 6.34422 2.71896 6.46307 2.60911 6.59375C2.49926 6.72348 2.34443 6.87926 2.14462 7.06108L1.7199 7.47727V7.49716H2.9415V8H0.867631Z" fill="#656565"/>
<path d="M1.94292 13.0398C1.73079 13.0398 1.54187 13.0033 1.37615 12.9304C1.21138 12.8565 1.08117 12.7552 0.985529 12.6264C0.890832 12.4967 0.842063 12.3471 0.839222 12.1776H1.45854C1.46233 12.2486 1.48553 12.3111 1.52814 12.3651C1.5717 12.4181 1.62947 12.4593 1.70144 12.4886C1.77341 12.518 1.85437 12.5327 1.94434 12.5327C2.03809 12.5327 2.12095 12.5161 2.19292 12.483C2.26489 12.4498 2.32123 12.4039 2.36195 12.3452C2.40267 12.2865 2.42303 12.2187 2.42303 12.142C2.42303 12.0644 2.40125 11.9957 2.35769 11.9361C2.31507 11.8755 2.25352 11.8281 2.17303 11.794C2.09348 11.7599 1.99879 11.7429 1.88894 11.7429H1.61763V11.2912H1.88894C1.98174 11.2912 2.06365 11.2751 2.13468 11.2429C2.20665 11.2107 2.26252 11.1662 2.30229 11.1094C2.34206 11.0516 2.36195 10.9844 2.36195 10.9077C2.36195 10.8348 2.34443 10.7708 2.30939 10.7159C2.2753 10.66 2.22701 10.6165 2.16451 10.5852C2.10295 10.554 2.03098 10.5384 1.9486 10.5384C1.86526 10.5384 1.78903 10.5535 1.7199 10.5838C1.65078 10.6132 1.59538 10.6553 1.55371 10.7102C1.51204 10.7652 1.48979 10.8295 1.48695 10.9034H0.897461C0.900302 10.7358 0.948124 10.5881 1.04093 10.4602C1.13373 10.3324 1.25873 10.2325 1.41593 10.1605C1.57407 10.0876 1.75257 10.0511 1.95144 10.0511C2.1522 10.0511 2.32786 10.0876 2.47843 10.1605C2.629 10.2334 2.74595 10.3319 2.82928 10.456C2.91356 10.5791 2.95523 10.7173 2.95428 10.8707C2.95523 11.0336 2.90456 11.1695 2.80229 11.2784C2.70096 11.3873 2.56886 11.4564 2.40598 11.4858V11.5085C2.62 11.536 2.78288 11.6103 2.89462 11.7315C3.00731 11.8518 3.06318 12.0024 3.06223 12.1832C3.06318 12.349 3.01536 12.4962 2.91877 12.625C2.82312 12.7538 2.69102 12.8551 2.52246 12.929C2.3539 13.0028 2.16072 13.0398 1.94292 13.0398Z" fill="#656565"/>
</svg>
