<svg width="19" height="15" viewBox="0 0 19 15" fill="none" xmlns="http://www.w3.org/2000/svg">
<path d="M12 0H3C1.34315 0 0 1.34315 0 3V12C0 13.6569 1.34315 15 3 15H12C13.6569 15 15 13.6569 15 12V3C15 1.34315 13.6569 0 12 0Z" fill="#39CCCC"/>
<path d="M14.6069 0.540527C14.8862 0.830566 15.1691 1.11523 15.4556 1.39453C15.7456 1.67025 16.0303 1.95312 16.3096 2.24316L9.00488 9.54248L4.79395 5.33154L6.49658 3.62891L9.00488 6.13721C9.94661 5.19906 10.8812 4.26807 11.8086 3.34424C12.736 2.41683 13.6688 1.48226 14.6069 0.540527Z" fill="white"/>
</svg>
