<svg width="24" height="24" viewBox="0 0 24 24" fill="none" xmlns="http://www.w3.org/2000/svg">
<path d="M17.5378 8.23101L16.7258 7.28601C15.6151 6.12356 14.1552 5.35546 12.5681 5.09845C10.981 4.84143 9.35333 5.10954 7.93248 5.86203C6.51164 6.61451 5.37527 7.81025 4.69605 9.26754C4.01683 10.7248 3.83188 12.364 4.16932 13.936C4.50676 15.508 5.34812 16.9269 6.56558 17.977C7.78304 19.0272 9.31003 19.6512 10.9145 19.7543C12.519 19.8574 14.1133 19.4339 15.4551 18.5482C16.797 17.6624 17.813 16.3629 18.3488 14.847" stroke="black" stroke-miterlimit="10" stroke-linecap="round"/>
<path d="M19.9998 6.28501V10.538C19.9998 10.7011 19.935 10.8575 19.8197 10.9729C19.7044 11.0882 19.548 11.153 19.3848 11.153H15.1328C15.0112 11.1531 14.8922 11.117 14.791 11.0494C14.6899 10.9819 14.611 10.8858 14.5644 10.7734C14.5178 10.661 14.5057 10.5373 14.5294 10.418C14.5532 10.2986 14.6118 10.189 14.6978 10.103L18.9508 5.85001C19.0369 5.76429 19.1464 5.70597 19.2656 5.68242C19.3847 5.65887 19.5082 5.67112 19.6204 5.71765C19.7326 5.76418 19.8285 5.84289 19.896 5.94386C19.9636 6.04483 19.9997 6.16354 19.9998 6.28501Z" fill="black"/>
</svg>
