<svg width="24" height="28" viewBox="0 0 24 28" fill="none" xmlns="http://www.w3.org/2000/svg">
<path d="M10.8164 0.5H13.8164C14.2142 0.5 14.5958 0.658035 14.8771 0.93934C15.1584 1.22064 15.3164 1.60218 15.3164 2C15.3164 2.828 15.6844 4.864 14.8564 4.864H10.0054C9.1774 4.864 9.3164 2.828 9.3164 2C9.3164 1.60218 9.47443 1.22064 9.75574 0.93934C10.037 0.658035 10.4186 0.5 10.8164 0.5Z" fill="#1E1E1E"/>
<path d="M12.3164 21.5C12.9098 21.5 13.4898 21.6759 13.9831 22.0056C14.4765 22.3352 14.861 22.8038 15.088 23.3519C15.3151 23.9001 15.3745 24.5033 15.2588 25.0853C15.143 25.6672 14.8573 26.2018 14.4377 26.6213C14.0182 27.0409 13.4836 27.3266 12.9017 27.4424C12.3197 27.5581 11.7165 27.4987 11.1684 27.2716C10.6202 27.0446 10.1516 26.6601 9.822 26.1667C9.49235 25.6734 9.31641 25.0933 9.31641 24.5C9.31641 23.7044 9.63248 22.9413 10.1951 22.3787C10.7577 21.8161 11.5208 21.5 12.3164 21.5Z" fill="#1E1E1E"/>
<path d="M16.3164 21.5H9.31641V24.5H16.3164V21.5Z" fill="white"/>
<g opacity="0.999">
<path d="M10.3167 5.5C8.11114 5.5 6.31675 7.29439 6.31675 9.5V15.5C6.31675 17.4034 5.29245 19.1109 4.35543 20.5273H20.238C19.327 19.1125 18.3167 17.4016 18.3167 15.5V9.5C18.3167 7.29439 16.5224 5.5 14.3167 5.5H10.3167ZM10.3167 3.5H14.3167C17.6305 3.5 20.3167 6.18629 20.3167 9.5V15.5C20.3167 18.8137 25.401 22.5273 22.0873 22.5273H2.43393C-0.879774 22.5273 4.31675 18.8137 4.31675 15.5V9.5C4.31675 6.18629 7.00304 3.5 10.3167 3.5Z" fill="#1E1E1E"/>
</g>
<path d="M6 13C8.76142 13 11 10.7614 11 8C11 5.23858 8.76142 3 6 3C3.23858 3 1 5.23858 1 8C1 10.7614 3.23858 13 6 13Z" fill="#EC5453" stroke="#FEFEFE" stroke-width="2"/>
</svg>
