<svg width="385" height="194" viewBox="0 0 385 194" fill="none" xmlns="http://www.w3.org/2000/svg">
<path d="M313.599 101.259C312.064 101.259 310.637 100.322 308.973 98.2191C304.989 93.1781 300.696 88.3889 296.119 83.8791C291.609 79.4419 286.817 75.3 281.774 71.4791C276.727 67.664 271.438 64.181 265.939 61.0521C260.349 57.8783 254.564 55.0629 248.617 52.6231C245.75 51.4471 244.073 50.1411 243.324 48.5121C242.544 46.8121 242.724 44.6791 243.885 41.7931C246.958 34.1152 249.579 26.2637 251.734 18.2791C252.105 16.5284 252.903 14.8966 254.057 13.5291C254.516 13.0495 255.071 12.6724 255.686 12.4225C256.302 12.1726 256.963 12.0556 257.626 12.0791C259.354 12.1663 261.05 12.5771 262.626 13.2901C274.376 17.9901 285.595 23.9233 296.093 30.9901C306.558 38.0725 316.291 46.1788 325.15 55.1891C329.232 59.3281 333.122 63.7891 336.883 68.1121C338.15 69.5731 339.469 71.0791 340.772 72.5571C341.478 73.3958 342.121 74.2859 342.695 75.2201C342.931 75.5841 343.152 75.9271 343.365 76.2331C343.37 79.0041 341.756 80.2901 340.194 81.5331L339.908 81.7621C336.54 84.4621 333.089 87.1821 329.751 89.8081C325.789 92.9251 321.692 96.1481 317.708 99.3751C316.595 100.455 315.144 101.12 313.599 101.259ZM301.228 47.9721L289.15 51.9791L287.713 54.0331L294.813 59.0061L292.878 61.7791L295.855 63.8631L297.794 61.0941L299.942 62.5941L301.684 60.1071L299.536 58.6071L301.264 56.1381L298.381 54.1201L296.65 56.5891L293.108 54.1091L304.427 50.2091L301.228 47.9721Z" fill="#F8AB51"/>
<path d="M373.604 193.184C372.692 193.184 371.704 193.178 370.649 193.172H370.357C369.157 193.165 367.966 193.158 366.657 193.158H362.536C353.901 193.158 349.145 193.158 346.48 190.888C345.232 189.824 344.37 188.208 343.687 185.646C342.914 182.308 342.32 178.931 341.907 175.529C340.358 164.637 337.734 153.926 334.073 143.551C330.389 133.2 325.602 123.275 319.795 113.947C318.309 111.557 317.765 109.705 318.085 108.118C318.405 106.531 319.626 105.066 321.923 103.535C329.105 98.746 336.054 93.705 342.577 88.552C344.709 86.868 346.412 86.084 347.938 86.084C349.984 86.084 351.78 87.509 353.763 90.704C357.749 97.1239 361.374 103.761 364.621 110.584C367.819 117.32 370.635 124.231 373.054 131.284C375.466 138.338 377.483 145.521 379.095 152.799C380.722 160.167 381.952 167.618 382.781 175.118C382.981 176.913 383.181 178.546 383.353 179.988C384.148 186.53 384.546 189.812 383.059 191.488C381.78 192.937 379.108 193.184 373.604 193.184ZM347.809 142.506C347.127 144.668 347.1 146.984 347.729 149.162C348.086 150.762 348.904 152.222 350.082 153.362C351.006 154.2 352.21 154.664 353.458 154.662C353.95 154.659 354.439 154.592 354.914 154.462C355.601 154.314 356.244 154.011 356.796 153.577C357.347 153.142 357.791 152.586 358.095 151.953C358.755 150.17 358.776 148.214 358.152 146.418L357.795 145.097L360.946 144.526L362.76 151.296L365.775 150.484L363.123 140.584L353.766 142.197L354.878 146.347C355.235 147.357 355.313 148.445 355.103 149.495C355.012 149.796 354.841 150.067 354.608 150.278C354.375 150.489 354.089 150.633 353.781 150.695C353.606 150.743 353.425 150.767 353.244 150.768C352.16 150.768 351.29 149.841 350.857 148.223C350.4 146.575 350.479 144.824 351.082 143.223L347.81 142.51L347.809 142.506Z" fill="#FD4545"/>
<path d="M151.71 46.636C150.421 46.6908 149.158 46.2581 148.174 45.424C147.112 44.396 146.369 43.0825 146.037 41.642C145.171 38.631 144.304 35.569 143.465 32.606C141.715 26.426 139.905 20.034 138.012 13.782C137.432 11.867 137.444 10.399 138.049 9.294C138.691 8.12 140.033 7.278 142.272 6.645C156.888 2.34621 172.032 0.109612 187.267 0C189.095 0 190.945 0.036 192.767 0.106C194.518 0.036 196.309 0 198.084 0C212.042 0.135701 225.927 2.0303 239.411 5.639C242.542 6.439 244.431 7.587 245.355 9.252C246.242 10.852 246.239 12.993 245.347 15.805C243.247 22.423 241.37 29.232 239.555 35.817C239.029 37.725 238.486 39.696 237.944 41.637C237.64 43.0069 236.977 44.2713 236.023 45.3C235.579 45.7171 235.056 46.041 234.485 46.2528C233.913 46.4645 233.306 46.5598 232.697 46.533C231.817 46.5177 230.943 46.3879 230.097 46.147C223.896 44.4931 217.596 43.2349 211.236 42.38C198.716 40.6979 186.027 40.6995 173.507 42.385C167.148 43.2458 160.852 44.5178 154.658 46.193C153.699 46.4679 152.708 46.6169 151.71 46.636ZM188.49 26.771L186.978 29.747C188.89 30.9647 191.119 31.5909 193.386 31.547C195.285 31.6515 197.157 31.0654 198.657 29.897C199.194 29.4272 199.624 28.8466 199.915 28.1951C200.207 27.5436 200.354 26.8367 200.346 26.123C200.346 23.517 198.684 21.759 195.787 21.299L199.579 16.979V14.459H187.817V17.579H194.969L191.514 21.491V24.06H193.29C195.377 24.06 196.435 24.754 196.435 26.124C196.435 27.477 195.259 28.284 193.29 28.284C191.571 28.2949 189.892 27.765 188.49 26.771Z" fill="#FDE135"/>
<path d="M70.3491 102.518C70.1211 102.365 69.8561 102.196 69.5751 102.018C68.8511 101.556 68.0301 101.033 67.2521 100.418C64.5921 98.3283 61.9001 96.1842 59.3001 94.1112L59.2931 94.1052C54.2671 90.1052 49.0721 85.9663 43.8741 82.0143C43.2257 81.6119 42.6658 81.0822 42.228 80.4572C41.7902 79.8323 41.4837 79.125 41.3271 78.3783C41.1171 76.6783 42.1181 75.0233 43.6851 73.0682C47.9851 67.7032 52.4851 62.5682 57.0641 57.8152C61.7641 52.9362 66.6851 48.3052 71.6961 44.0512C76.8002 39.7154 82.1335 35.6569 87.6731 31.8932C93.2782 28.092 99.0923 24.6085 105.088 21.4592C109.082 19.3592 113.275 17.4832 117.33 15.6652C119.209 14.8182 121.152 13.9522 123.049 13.0712C124.15 12.5018 125.362 12.1767 126.6 12.1182C127.092 12.1065 127.58 12.1921 128.039 12.3701C128.497 12.5481 128.915 12.8149 129.27 13.1552C130.162 14.0893 130.806 15.2327 131.141 16.4802C133.96 25.1922 137.141 34.3932 140.866 44.6102C142.183 48.2232 141.253 50.3012 137.656 51.7792C131.374 54.3541 125.257 57.3168 119.342 60.6502C113.531 63.9317 107.945 67.5975 102.622 71.6232C97.3056 75.6542 92.2746 80.0484 87.5651 84.7742C82.7708 89.5965 78.3148 94.7437 74.2291 100.179C73.8411 100.872 73.2795 101.452 72.5994 101.862C71.9192 102.273 71.143 102.499 70.3491 102.518ZM89.1491 47.0622C89.4605 47.0649 89.7662 47.1466 90.0375 47.2996C90.3087 47.4527 90.5367 47.6721 90.7001 47.9372C91.1921 48.6372 91.4381 49.5103 91.0401 51.4782L89.2401 60.2082L90.6851 62.2732L101.085 54.9912L99.2681 52.3912L93.3531 56.5382L94.4261 51.3382C94.9261 49.0262 94.9721 47.2232 93.6841 45.3832C93.2728 44.7613 92.7119 44.2527 92.0528 43.9041C91.3937 43.5556 90.6576 43.3782 89.9121 43.3882C88.3956 43.4503 86.9342 43.9736 85.7231 44.8882C84.6343 45.5696 83.7297 46.5081 83.0887 47.6211C82.4477 48.7341 82.09 49.9876 82.0471 51.2712L85.4131 51.1412C85.4262 50.4674 85.6053 49.8072 85.9344 49.219C86.2635 48.6309 86.7326 48.1329 87.3001 47.7692C87.8302 47.3511 88.4752 47.1045 89.1491 47.0622Z" fill="#B6DA83"/>
<path d="M34.0699 193.282C33.4381 193.279 32.8069 193.243 32.1789 193.173C30.7669 193.029 29.3482 192.963 27.9289 192.973C26.7539 192.973 25.5559 193.006 24.3979 193.037C23.2399 193.068 22.0379 193.101 20.8619 193.101V193.04C19.4899 193.04 18.0979 193.035 16.7529 193.03C15.4079 193.025 14.0149 193.02 12.6429 193.02C10.6289 193.02 8.96892 193.031 7.41792 193.054H7.20392C4.93192 193.054 3.32692 192.513 2.29592 191.401C1.22292 190.243 0.795916 188.483 0.979916 186.02C1.61777 177.555 2.71943 169.132 4.27992 160.788C5.8226 152.562 7.84844 144.433 10.3469 136.445C15.4015 120.331 22.4415 104.91 31.3049 90.5349C32.9369 87.8839 34.3449 86.7529 36.0129 86.7529C37.5806 86.9026 39.0571 87.5579 40.2199 88.6199C48.1369 94.6649 55.4759 99.9159 62.6569 104.673C64.8419 106.119 65.9569 107.532 66.1819 109.118C66.3819 110.573 65.8509 112.249 64.4529 114.551C58.0522 125.024 52.882 136.2 49.0449 147.859C45.24 159.535 42.9155 171.641 42.1259 183.896C41.9139 187.145 41.2629 189.358 40.0769 190.86C38.7889 192.489 36.8239 193.282 34.0699 193.282ZM21.6139 145.088L33.1749 148.188L34.0549 144.902L19.8549 141.097L18.2129 147.223L20.8499 147.93L21.6109 145.091L21.6139 145.088Z" fill="#53CA7A"/>
</svg>
