<svg width="116" height="24" viewBox="0 0 116 24" fill="none" xmlns="http://www.w3.org/2000/svg">
<path d="M10.6258 8.09091C10.5406 7.37121 10.195 6.8125 9.58889 6.41477C8.98283 6.01705 8.23946 5.81818 7.35878 5.81818C6.71484 5.81818 6.15139 5.92235 5.66843 6.13068C5.19022 6.33901 4.81616 6.62547 4.54628 6.99006C4.28112 7.35464 4.14855 7.76894 4.14855 8.23295C4.14855 8.62121 4.24088 8.95502 4.42554 9.23438C4.61493 9.509 4.85641 9.73864 5.14997 9.9233C5.44353 10.1032 5.75129 10.2524 6.07326 10.3707C6.39523 10.4844 6.69116 10.5767 6.96105 10.6477L8.43832 11.0455C8.81711 11.1449 9.23851 11.2822 9.70253 11.4574C10.1713 11.6326 10.6187 11.8717 11.0449 12.1747C11.4757 12.473 11.8308 12.8565 12.1102 13.3253C12.3896 13.794 12.5292 14.3693 12.5292 15.0511C12.5292 15.8371 12.3233 16.5473 11.9113 17.1818C11.5041 17.8163 10.9075 18.3205 10.1216 18.6946C9.34031 19.0687 8.39097 19.2557 7.27355 19.2557C6.23188 19.2557 5.32989 19.0876 4.56758 18.7514C3.81001 18.4152 3.21342 17.9465 2.77781 17.3452C2.34694 16.7438 2.10309 16.0455 2.04628 15.25H3.86446C3.91181 15.7992 4.09647 16.2538 4.41843 16.6136C4.74514 16.9687 5.15707 17.2339 5.65423 17.4091C6.15612 17.5795 6.6959 17.6648 7.27355 17.6648C7.9459 17.6648 8.54959 17.5559 9.08463 17.3381C9.61967 17.1155 10.0434 16.8078 10.3559 16.4148C10.6684 16.017 10.8247 15.553 10.8247 15.0227C10.8247 14.5398 10.6897 14.1468 10.4199 13.8438C10.15 13.5407 9.79486 13.2945 9.35451 13.1051C8.91417 12.9157 8.43832 12.75 7.92696 12.608L6.13719 12.0966C5.00082 11.7699 4.1012 11.3035 3.43832 10.6974C2.77544 10.0914 2.444 9.2983 2.444 8.31818C2.444 7.50379 2.66417 6.79356 3.10451 6.1875C3.54959 5.5767 4.14618 5.10322 4.89429 4.76705C5.64713 4.42614 6.48756 4.25568 7.41559 4.25568C8.35309 4.25568 9.18643 4.42377 9.91559 4.75994C10.6448 5.09138 11.2224 5.54593 11.6485 6.12358C12.0794 6.70123 12.3067 7.35701 12.3304 8.09091H10.6258ZM16.0218 19H14.1752L19.5161 4.45455H21.3343L26.6752 19H24.8286L20.482 6.75568H20.3684L16.0218 19ZM16.7036 13.3182H24.1468V14.8807H16.7036V13.3182ZM28.9408 19V4.45455H33.8556C34.9919 4.45455 35.9247 4.64867 36.6539 5.03693C37.383 5.42045 37.9228 5.94839 38.2732 6.62074C38.6236 7.29309 38.7988 8.05777 38.7988 8.91477C38.7988 9.77178 38.6236 10.5317 38.2732 11.1946C37.9228 11.8575 37.3854 12.3783 36.661 12.7571C35.9365 13.1312 35.0109 13.3182 33.884 13.3182H29.9067V11.7273H33.8272C34.6037 11.7273 35.2287 11.6136 35.7022 11.3864C36.1804 11.1591 36.526 10.8371 36.7391 10.4205C36.9569 9.99905 37.0658 9.49716 37.0658 8.91477C37.0658 8.33239 36.9569 7.82339 36.7391 7.38778C36.5213 6.95218 36.1733 6.616 35.6951 6.37926C35.2168 6.13778 34.5847 6.01705 33.7988 6.01705H30.7022V19H28.9408ZM35.7874 12.4659L39.3669 19H37.3215L33.7988 12.4659H35.7874Z" fill="#001F3F"/>
<path d="M49.6883 8.09091C49.6031 7.37121 49.2575 6.8125 48.6514 6.41477C48.0453 6.01705 47.302 5.81818 46.4213 5.81818C45.7773 5.81818 45.2139 5.92235 44.7309 6.13068C44.2527 6.33901 43.8787 6.62547 43.6088 6.99006C43.3436 7.35464 43.211 7.76894 43.211 8.23295C43.211 8.62121 43.3034 8.95502 43.488 9.23438C43.6774 9.509 43.9189 9.73864 44.2125 9.9233C44.506 10.1032 44.8138 10.2524 45.1358 10.3707C45.4577 10.4844 45.7537 10.5767 46.0235 10.6477L47.5008 11.0455C47.8796 11.1449 48.301 11.2822 48.765 11.4574C49.2338 11.6326 49.6812 11.8717 50.1074 12.1747C50.5382 12.473 50.8933 12.8565 51.1727 13.3253C51.4521 13.794 51.5917 14.3693 51.5917 15.0511C51.5917 15.8371 51.3858 16.5473 50.9738 17.1818C50.5666 17.8163 49.97 18.3205 49.1841 18.6946C48.4028 19.0687 47.4535 19.2557 46.336 19.2557C45.2944 19.2557 44.3924 19.0876 43.6301 18.7514C42.8725 18.4152 42.2759 17.9465 41.8403 17.3452C41.4094 16.7438 41.1656 16.0455 41.1088 15.25H42.927C42.9743 15.7992 43.159 16.2538 43.4809 16.6136C43.8076 16.9687 44.2196 17.2339 44.7167 17.4091C45.2186 17.5795 45.7584 17.6648 46.336 17.6648C47.0084 17.6648 47.6121 17.5559 48.1471 17.3381C48.6822 17.1155 49.1059 16.8078 49.4184 16.4148C49.7309 16.017 49.8872 15.553 49.8872 15.0227C49.8872 14.5398 49.7522 14.1468 49.4824 13.8438C49.2125 13.5407 48.8574 13.2945 48.417 13.1051C47.9767 12.9157 47.5008 12.75 46.9895 12.608L45.1997 12.0966C44.0633 11.7699 43.1637 11.3035 42.5008 10.6974C41.8379 10.0914 41.5065 9.2983 41.5065 8.31818C41.5065 7.50379 41.7267 6.79356 42.167 6.1875C42.6121 5.5767 43.2087 5.10322 43.9568 4.76705C44.7096 4.42614 45.5501 4.25568 46.4781 4.25568C47.4156 4.25568 48.2489 4.42377 48.9781 4.75994C49.7073 5.09138 50.2849 5.54593 50.711 6.12358C51.1419 6.70123 51.3692 7.35701 51.3929 8.09091H49.6883ZM58.6922 19.2273C57.6695 19.2273 56.7888 18.9858 56.0502 18.5028C55.3115 18.0199 54.7434 17.3546 54.3456 16.5071C53.9479 15.6596 53.749 14.6913 53.749 13.6023C53.749 12.4943 53.9526 11.5166 54.3598 10.669C54.7718 9.81676 55.3447 9.15152 56.0786 8.6733C56.8172 8.19034 57.679 7.94886 58.6638 7.94886C59.4309 7.94886 60.1222 8.09091 60.7377 8.375C61.3532 8.65909 61.8575 9.05682 62.2505 9.56818C62.6435 10.0795 62.8873 10.6761 62.982 11.358H61.3059C61.178 10.8608 60.8939 10.4205 60.4536 10.0369C60.018 9.64867 59.4309 9.45455 58.6922 9.45455C58.0388 9.45455 57.4659 9.625 56.9735 9.96591C56.4858 10.3021 56.1046 10.7779 55.83 11.3935C55.5601 12.0043 55.4252 12.7216 55.4252 13.5455C55.4252 14.3883 55.5578 15.1222 55.8229 15.7472C56.0928 16.3722 56.4716 16.8575 56.9593 17.2031C57.4517 17.5488 58.0293 17.7216 58.6922 17.7216C59.1278 17.7216 59.5232 17.6458 59.8783 17.4943C60.2334 17.3428 60.5341 17.125 60.7803 16.8409C61.0265 16.5568 61.2017 16.2159 61.3059 15.8182H62.982C62.8873 16.4621 62.6529 17.0421 62.2789 17.5582C61.9096 18.0696 61.4195 18.4768 60.8087 18.7798C60.2026 19.0781 59.4972 19.2273 58.6922 19.2273ZM69.8641 19.2273C68.8793 19.2273 68.0151 18.9929 67.2718 18.5241C66.5331 18.0554 65.9555 17.3996 65.5388 16.5568C65.1269 15.714 64.9209 14.7292 64.9209 13.6023C64.9209 12.4659 65.1269 11.474 65.5388 10.6264C65.9555 9.77888 66.5331 9.12074 67.2718 8.65199C68.0151 8.18324 68.8793 7.94886 69.8641 7.94886C70.849 7.94886 71.7107 8.18324 72.4493 8.65199C73.1927 9.12074 73.7704 9.77888 74.1823 10.6264C74.599 11.474 74.8073 12.4659 74.8073 13.6023C74.8073 14.7292 74.599 15.714 74.1823 16.5568C73.7704 17.3996 73.1927 18.0554 72.4493 18.5241C71.7107 18.9929 70.849 19.2273 69.8641 19.2273ZM69.8641 17.7216C70.6122 17.7216 71.2277 17.5298 71.7107 17.1463C72.1936 16.7628 72.5511 16.2585 72.7831 15.6335C73.0151 15.0085 73.1311 14.3314 73.1311 13.6023C73.1311 12.8731 73.0151 12.1937 72.7831 11.5639C72.5511 10.9342 72.1936 10.4252 71.7107 10.0369C71.2277 9.64867 70.6122 9.45455 69.8641 9.45455C69.116 9.45455 68.5005 9.64867 68.0175 10.0369C67.5346 10.4252 67.1771 10.9342 66.9451 11.5639C66.7131 12.1937 66.5971 12.8731 66.5971 13.6023C66.5971 14.3314 66.7131 15.0085 66.9451 15.6335C67.1771 16.2585 67.5346 16.7628 68.0175 17.1463C68.5005 17.5298 69.116 17.7216 69.8641 17.7216ZM77.3659 19V8.09091H78.9852V9.73864H79.0988C79.2977 9.19886 79.6575 8.76089 80.1784 8.42472C80.6992 8.08854 81.2863 7.92045 81.9397 7.92045C82.0628 7.92045 82.2167 7.92282 82.4014 7.92756C82.586 7.93229 82.7257 7.93939 82.8204 7.94886V9.65341C82.7636 9.6392 82.6334 9.6179 82.4298 9.58949C82.2309 9.55634 82.0202 9.53977 81.7977 9.53977C81.2674 9.53977 80.7939 9.65104 80.3772 9.87358C79.9653 10.0914 79.6386 10.3944 79.3971 10.7827C79.1604 11.1662 79.042 11.6042 79.042 12.0966V19H77.3659ZM89.0491 19.2273C87.998 19.2273 87.0913 18.9953 86.3289 18.5312C85.5714 18.0625 84.9866 17.4091 84.5747 16.571C84.1675 15.7282 83.9639 14.7481 83.9639 13.6307C83.9639 12.5133 84.1675 11.5284 84.5747 10.6761C84.9866 9.81913 85.5595 9.15152 86.2934 8.6733C87.0321 8.19034 87.8938 7.94886 88.8787 7.94886C89.4468 7.94886 90.0079 8.04356 90.5619 8.23295C91.1159 8.42235 91.6201 8.73011 92.0747 9.15625C92.5292 9.57765 92.8914 10.1364 93.1613 10.8324C93.4312 11.5284 93.5662 12.3854 93.5662 13.4034V14.1136H85.1571V12.6648H91.8616C91.8616 12.0492 91.7385 11.5 91.4923 11.017C91.2508 10.5341 90.9052 10.1529 90.4554 9.87358C90.0103 9.59422 89.4847 9.45455 88.8787 9.45455C88.211 9.45455 87.6334 9.62026 87.1457 9.9517C86.6628 10.2784 86.2911 10.7045 86.0307 11.2301C85.7702 11.7557 85.64 12.3191 85.64 12.9205V13.8864C85.64 14.7102 85.7821 15.4086 86.0662 15.9815C86.355 16.5497 86.7551 16.983 87.2664 17.2812C87.7778 17.5748 88.372 17.7216 89.0491 17.7216C89.4895 17.7216 89.8872 17.66 90.2423 17.5369C90.6021 17.4091 90.9123 17.2197 91.1727 16.9688C91.4331 16.7131 91.6343 16.3958 91.7764 16.017L93.3957 16.4716C93.2253 17.0208 92.9388 17.5038 92.5363 17.9205C92.1339 18.3324 91.6367 18.6544 91.0449 18.8864C90.453 19.1136 89.7878 19.2273 89.0491 19.2273Z" fill="#39CCCC"/>
<path d="M112.795 7.40909L111.405 4.27273H111.968L112.94 6.57386L113.911 4.27273H114.474L113.084 7.40909H112.795ZM111.303 7.40909V4.27273H111.849V7.40909H111.303ZM114.03 7.40909V4.27273H114.576V7.40909H114.03ZM109.258 7.40909V4.54545H109.803V7.40909H109.258ZM108.303 4.75V4.27273H110.758V4.75H108.303Z" fill="#001F3F"/>
</svg>
