<svg width="47" height="46" viewBox="0 0 47 46" fill="none" xmlns="http://www.w3.org/2000/svg">
<path d="M23.501 46C36.4797 46 47.001 35.7025 47.001 23C47.001 10.2975 36.4797 0 23.501 0C10.5223 0 0.000976562 10.2975 0.000976562 23C0.000976562 35.7025 10.5223 46 23.501 46Z" fill="#6259CE"/>
<path d="M23.501 45.75C36.3416 45.75 46.751 35.5645 46.751 23C46.751 10.4355 36.3416 0.25 23.501 0.25C10.6604 0.25 0.250977 10.4355 0.250977 23C0.250977 35.5645 10.6604 45.75 23.501 45.75Z" stroke="#707070" stroke-width="0.5"/>
<path d="M23.6294 24.502C24.6611 24.502 25.6695 24.1961 26.5273 23.623C27.3851 23.0498 28.0536 22.2352 28.4484 21.2821C28.8432 20.329 28.9465 19.2802 28.7452 18.2684C28.544 17.2566 28.0472 16.3272 27.3177 15.5977C26.5882 14.8683 25.6588 14.3715 24.647 14.1702C23.6352 13.969 22.5865 14.0723 21.6334 14.4671C20.6803 14.8618 19.8656 15.5304 19.2925 16.3882C18.7194 17.2459 18.4134 18.2544 18.4134 19.286C18.4137 20.6693 18.9633 21.9959 19.9415 22.974C20.9196 23.9521 22.2462 24.5017 23.6294 24.502ZM28.2654 25.661H26.2654C25.4375 26.0428 24.5367 26.2406 23.6249 26.2406C22.7132 26.2406 21.8124 26.0428 20.9844 25.661H18.9844C17.7561 25.6631 16.5788 26.1526 15.7111 27.022C14.8434 27.8914 14.3562 29.0697 14.3564 30.298V30.878C14.3564 31.3392 14.5397 31.7815 14.8658 32.1077C15.1919 32.4338 15.6342 32.617 16.0954 32.617H31.1634C31.6247 32.617 32.067 32.4338 32.3931 32.1077C32.7192 31.7815 32.9024 31.3392 32.9024 30.878V30.298C32.9026 29.689 32.7827 29.086 32.5497 28.5234C32.3168 27.9607 31.9752 27.4495 31.5446 27.0189C31.114 26.5883 30.6028 26.2467 30.0401 26.0137C29.4775 25.7807 28.8744 25.6609 28.2654 25.661Z" fill="white"/>
</svg>
