<svg width="23" height="19" viewBox="0 0 23 19" fill="none" xmlns="http://www.w3.org/2000/svg">
<path d="M13.2661 13.382C13.2646 14.0235 13.4143 14.6563 13.7031 15.229C14.0449 15.9149 14.5709 16.4921 15.2224 16.8957C15.8738 17.2993 16.6248 17.5134 17.3911 17.514C18.0317 17.5159 18.6635 17.3661 19.2351 17.077L22.0001 18L21.0781 15.229C21.3673 14.6563 21.5174 14.0236 21.5161 13.382C21.5161 12.615 21.3026 11.8632 20.8996 11.2106C20.4965 10.5581 19.9199 10.0305 19.2341 9.68702C18.6625 9.39793 18.0307 9.24818 17.3901 9.25002H17.1481C16.1358 9.30664 15.1799 9.73475 14.4636 10.4523C13.7473 11.1699 13.3209 12.1266 13.2661 13.139V13.382Z" stroke="#1E1E1E" stroke-linecap="round" stroke-linejoin="round"/>
<path d="M11.7661 12.938C11.7677 11.9926 11.9867 11.0603 12.4061 10.213C12.1211 10.1569 11.8316 10.1275 11.5411 10.125H10.9541C10.1505 10.4956 9.27607 10.6875 8.39111 10.6875C7.50616 10.6875 6.63173 10.4956 5.82811 10.125H5.24111C3.98805 10.1253 2.78638 10.6232 1.90033 11.5092C1.01427 12.3953 0.516378 13.5969 0.516113 14.85L0.516113 16.312C0.516113 16.7597 0.693956 17.189 1.01052 17.5056C1.32708 17.8222 1.75643 18 2.20411 18H14.4041C13.5903 17.4301 12.9256 16.6725 12.4665 15.7914C12.0073 14.9103 11.7671 13.9316 11.7661 12.938ZM8.39111 9C9.28113 9 10.1512 8.73608 10.8912 8.24162C11.6312 7.74715 12.208 7.04434 12.5486 6.22208C12.8892 5.39981 12.9783 4.49501 12.8046 3.6221C12.631 2.74918 12.2024 1.94736 11.5731 1.31802C10.9438 0.688685 10.1419 0.260102 9.26902 0.0864683C8.39611 -0.0871652 7.49131 0.00194979 6.66904 0.342544C5.84677 0.683138 5.14397 1.25991 4.6495 1.99994C4.15503 2.73996 3.89111 3.60999 3.89111 4.5C3.89111 5.69348 4.36522 6.83807 5.20913 7.68198C6.05305 8.5259 7.19764 9 8.39111 9Z" fill="#1E1E1E"/>
</svg>
