<svg width="17" height="19" viewBox="0 0 17 19" fill="none" xmlns="http://www.w3.org/2000/svg">
<path d="M8.488 6.356C8.28 6.356 8.104 6.284 7.96 6.14C7.816 5.996 7.744 5.82 7.744 5.612C7.744 5.404 7.816 5.228 7.96 5.084C8.104 4.94 8.28 4.868 8.488 4.868C8.688 4.868 8.856 4.94 8.992 5.084C9.136 5.228 9.208 5.404 9.208 5.612C9.208 5.82 9.136 5.996 8.992 6.14C8.856 6.284 8.688 6.356 8.488 6.356ZM9.016 7.424V14H7.924V7.424H9.016Z" fill="#9F9F9F"/>
<path d="M8.5 16.5C12.9183 16.5 16.5 12.9183 16.5 8.5C16.5 4.08172 12.9183 0.5 8.5 0.5C4.08172 0.5 0.5 4.08172 0.5 8.5C0.5 12.9183 4.08172 16.5 8.5 16.5Z" stroke="#9F9F9F"/>
</svg>
