<svg width="19" height="20" viewBox="0 0 19 20" fill="none" xmlns="http://www.w3.org/2000/svg">
<path d="M9.50049 1.44601V13.613" stroke="white" stroke-width="1.5" stroke-linecap="round"/>
<path d="M9.50027 13.612L5.15527 9.26701" stroke="white" stroke-width="1.5" stroke-linecap="round"/>
<path d="M9.50049 13.612L13.8455 9.26701" stroke="white" stroke-width="1.5" stroke-linecap="round"/>
<path d="M1.66112 13.613C1.66112 13.613 1.63412 14.373 1.66112 15.772C1.66112 16.413 1.38212 17.707 2.56112 18.32C2.93912 18.615 5.79612 18.477 9.27612 18.537C10.2111 18.554 11.2871 18.513 12.5141 18.537C14.2211 18.572 15.9421 18.604 16.6631 18.064C16.8557 17.925 17.0173 17.7476 17.1378 17.5429C17.2583 17.3383 17.335 17.1108 17.3631 16.875C17.3961 16.753 17.3631 13.697 17.3631 13.697" stroke="white" stroke-width="1.5" stroke-linecap="round"/>
</svg>
