<svg width="20" height="17" viewBox="0 0 20 17" fill="none" xmlns="http://www.w3.org/2000/svg">
<path d="M19.8852 7.534C17.6272 3.245 13.8612 1 10.0002 1C6.13922 1 2.37322 3.245 0.115215 7.534C0.0395444 7.67767 0 7.83762 0 8C0 8.16238 0.0395444 8.32233 0.115215 8.466C2.37322 12.755 6.13922 15 10.0002 15C13.8612 15 17.6272 12.755 19.8852 8.466C19.9609 8.32233 20.0004 8.16238 20.0004 8C20.0004 7.83762 19.9609 7.67767 19.8852 7.534Z" fill="#EFEFEF"/>
<path d="M10 5C9.40666 5 8.82664 5.17595 8.33329 5.50559C7.83994 5.83524 7.45543 6.30377 7.22836 6.85195C7.0013 7.40013 6.94189 8.00333 7.05765 8.58527C7.1734 9.16721 7.45912 9.70176 7.87868 10.1213C8.29824 10.5409 8.83279 10.8266 9.41473 10.9424C9.99667 11.0581 10.5999 10.9987 11.1481 10.7716C11.6962 10.5446 12.1648 10.1601 12.4944 9.66671C12.8241 9.17336 13 8.59334 13 8C13 7.20435 12.6839 6.44129 12.1213 5.87868C11.5587 5.31607 10.7957 5 10 5Z" fill="white"/>
<path d="M17.7076 0.29297C17.895 0.480497 18.0004 0.734805 18.0004 0.99997C18.0004 1.26513 17.895 1.51944 17.7076 1.70697L3.70757 15.707C3.61532 15.8025 3.50498 15.8787 3.38297 15.9311C3.26097 15.9835 3.12975 16.0111 2.99697 16.0122C2.86419 16.0134 2.73251 15.9881 2.60962 15.9378C2.48672 15.8875 2.37507 15.8133 2.28117 15.7194C2.18728 15.6255 2.11303 15.5138 2.06275 15.3909C2.01247 15.268 1.98717 15.1363 1.98832 15.0036C1.98947 14.8708 2.01706 14.7396 2.06947 14.6176C2.12188 14.4956 2.19806 14.3852 2.29357 14.293L16.2936 0.29297C16.4811 0.105499 16.7354 0.000183105 17.0006 0.000183105C17.2657 0.000183105 17.52 0.105499 17.7076 0.29297Z" fill="#1F1F1F"/>
</svg>
