<svg width="21" height="6" viewBox="0 0 21 6" fill="none" xmlns="http://www.w3.org/2000/svg">
<path d="M2.66987 3.05176e-05C2.14252 0.000623718 1.62723 0.157544 1.18904 0.450958C0.750849 0.744372 0.409482 1.16109 0.208083 1.64847C0.00668402 2.13585 -0.0457971 2.67203 0.0574482 3.18918C0.160694 3.70633 0.414933 4.18124 0.788039 4.55392C1.16114 4.92661 1.63637 5.18033 2.15364 5.28299C2.6709 5.38565 3.20701 5.33265 3.69417 5.13071C4.18132 4.92876 4.59766 4.58693 4.89058 4.14841C5.1835 3.70989 5.33992 3.19438 5.33992 2.66702C5.33781 1.95982 5.05572 1.28223 4.55537 0.78244C4.05502 0.282652 3.37708 0.00134924 2.66987 3.05176e-05Z" fill="#010101"/>
<path d="M18.33 3.05176e-05C17.8027 0.000623718 17.2874 0.157544 16.8492 0.450958C16.411 0.744372 16.0696 1.16109 15.8682 1.64847C15.6668 2.13585 15.6144 2.67203 15.7176 3.18918C15.8208 3.70633 16.0751 4.18124 16.4482 4.55392C16.8213 4.92661 17.2965 5.18033 17.8138 5.28299C18.3311 5.38565 18.8672 5.33265 19.3543 5.13071C19.8415 4.92876 20.2578 4.58693 20.5507 4.14841C20.8437 3.70989 21.0001 3.19438 21.0001 2.66702C20.998 1.95982 20.7159 1.28223 20.2155 0.78244C19.7152 0.282652 19.0372 0.00134924 18.33 3.05176e-05Z" fill="#010101"/>
<path d="M7.82984 2.66703C7.82924 2.13882 7.98542 1.62231 8.27844 1.18284C8.57147 0.743362 8.98825 0.400671 9.47608 0.198125C9.9639 -0.00442107 10.5008 -0.0577262 11.0189 0.0449573C11.537 0.147641 12.0131 0.401712 12.3868 0.774999C12.7605 1.14829 13.0151 1.62402 13.1184 2.14203C13.2217 2.66004 13.1689 3.19704 12.9669 3.68509C12.7649 4.17315 12.4227 4.59034 11.9835 4.88385C11.5444 5.17737 11.0281 5.33402 10.4999 5.33402C9.79268 5.3327 9.11473 5.0514 8.61438 4.55161C8.11403 4.05182 7.83195 3.37423 7.82984 2.66703Z" fill="#010101"/>
</svg>
