<svg width="18" height="19" viewBox="0 0 18 19" fill="none" xmlns="http://www.w3.org/2000/svg">
<path d="M16.8349 9.19607L9.47794 16.5501C9.03184 16.9962 8.50224 17.35 7.91938 17.5915C7.33652 17.8329 6.71182 17.9572 6.08094 17.9572C5.45006 17.9572 4.82535 17.8329 4.2425 17.5915C3.65964 17.35 3.13004 16.9962 2.68394 16.5501C2.23784 16.104 1.88397 15.5744 1.64254 14.9915C1.40112 14.4087 1.27686 13.784 1.27686 13.1531C1.27686 12.5222 1.40112 11.8975 1.64254 11.3146C1.88397 10.7318 2.23784 10.2022 2.68394 9.75607L10.0409 2.40307C10.6415 1.80249 11.4561 1.46509 12.3054 1.46509C13.1548 1.46509 13.9694 1.80249 14.5699 2.40307C15.1705 3.00366 15.5079 3.81822 15.5079 4.66757C15.5079 5.51693 15.1705 6.33149 14.5699 6.93207L7.20894 14.2831C6.90858 14.5834 6.50121 14.7522 6.07644 14.7522C5.65167 14.7522 5.2443 14.5834 4.94394 14.2831C4.64358 13.9827 4.47484 13.5753 4.47484 13.1506C4.47484 12.7258 4.64358 12.3184 4.94394 12.0181L11.7379 5.23507" stroke="#656565" stroke-width="1.5" stroke-linecap="round" stroke-linejoin="round"/>
</svg>
