<svg width="18" height="18" viewBox="0 0 18 18" fill="none" xmlns="http://www.w3.org/2000/svg">
<path d="M16.303 8.998C16.3034 8.54228 16.4422 8.09744 16.7009 7.7223C16.9596 7.34715 17.3261 7.05937 17.752 6.897C17.5318 5.97865 17.1673 5.10106 16.672 4.297C16.3838 4.42638 16.0718 4.49448 15.756 4.497C15.38 4.49876 15.0097 4.40614 14.6789 4.22763C14.348 4.04912 14.0673 3.79042 13.8624 3.47526C13.6575 3.16009 13.535 2.79854 13.5061 2.42373C13.4772 2.04892 13.5428 1.67286 13.697 1.33C12.8931 0.834333 12.0154 0.469773 11.097 0.25C10.9341 0.674878 10.6462 1.04036 10.2712 1.29818C9.8963 1.55599 9.45198 1.69402 8.99695 1.69402C8.54193 1.69402 8.09761 1.55599 7.72267 1.29818C7.34773 1.04036 7.05982 0.674878 6.89695 0.25C5.9786 0.470161 5.10102 0.834696 4.29695 1.33C4.44983 1.67225 4.51461 2.04732 4.4854 2.42102C4.45619 2.79471 4.33392 3.15516 4.12973 3.4695C3.92554 3.78384 3.64592 4.04208 3.31636 4.22068C2.98681 4.39927 2.61779 4.49255 2.24295 4.492C1.92682 4.49171 1.61444 4.4235 1.32695 4.292C0.835354 5.10095 0.472678 5.98149 0.251953 6.902C0.676004 7.06567 1.04057 7.35389 1.29768 7.72873C1.55479 8.10356 1.6924 8.54746 1.6924 9.002C1.6924 9.45654 1.55479 9.90043 1.29768 10.2753C1.04057 10.6501 0.676004 10.9383 0.251953 11.102C0.472114 12.0204 0.83665 12.8979 1.33195 13.702C1.74738 13.5159 2.20955 13.4603 2.65726 13.5426C3.10497 13.625 3.51712 13.8414 3.83912 14.1631C4.16112 14.4849 4.37779 14.8969 4.46044 15.3446C4.54309 15.7922 4.48782 16.2544 4.30195 16.67C5.10641 17.1645 5.98387 17.529 6.90195 17.75C7.06462 17.326 7.35203 16.9614 7.72624 16.7042C8.10045 16.4469 8.54387 16.3092 8.99795 16.3092C9.45204 16.3092 9.89546 16.4469 10.2697 16.7042C10.6439 16.9614 10.9313 17.326 11.094 17.75C12.0123 17.5298 12.8899 17.1653 13.694 16.67C13.5106 16.255 13.4571 15.7942 13.5404 15.3482C13.6237 14.9021 13.84 14.4918 14.1609 14.1709C14.4817 13.8501 14.8921 13.6338 15.3381 13.5505C15.7841 13.4671 16.2449 13.5207 16.66 13.704C17.1545 12.8995 17.519 12.0221 17.74 11.104C17.3165 10.9381 16.9528 10.6484 16.6965 10.2727C16.4401 9.89705 16.303 9.45281 16.303 8.998ZM9.04095 12.638C8.32004 12.638 7.61532 12.4242 7.0159 12.0237C6.41648 11.6232 5.94929 11.0539 5.67341 10.3879C5.39753 9.72184 5.32535 8.98896 5.46599 8.2819C5.60663 7.57483 5.95379 6.92536 6.46355 6.4156C6.97331 5.90583 7.62279 5.55868 8.32985 5.41804C9.03691 5.27739 9.7698 5.34958 10.4358 5.62546C11.1019 5.90134 11.6711 6.36853 12.0717 6.96795C12.4722 7.56736 12.686 8.27209 12.686 8.993C12.6861 9.47171 12.5919 9.94575 12.4088 10.388C12.2256 10.8303 11.9571 11.2322 11.6187 11.5707C11.2802 11.9092 10.8783 12.1777 10.436 12.3608C9.9937 12.5439 9.51966 12.6381 9.04095 12.638Z" fill="#1E1E1E"/>
</svg>
