<svg version="1.2" xmlns="http://www.w3.org/2000/svg" viewBox="0 0 17 17" width="17" height="17">
	<title>Icon awesome-tools-svg</title>
	<style>
		.s0 { fill: #ffffff } 
	</style>
	<path id="Layer" fill-rule="evenodd" class="s0" d="m15.7 12.4c0.2 0.2 0.3 0.5 0.3 0.8 0 0.3-0.1 0.6-0.3 0.9l-1.6 1.6q-0.2 0.2-0.4 0.3-0.2 0-0.5 0-0.2 0-0.4 0-0.2-0.1-0.4-0.3l-3.7-3.7c-0.3-0.3-0.5-0.8-0.6-1.2-0.1-0.5 0-1 0.2-1.4l-3.3-3.4h-2l-3-4 2-2 4 3v2l3.4 3.3c0.4-0.2 0.9-0.3 1.4-0.2 0.4 0.1 0.9 0.3 1.2 0.6l3.7 3.7zm-5.3-5.4q-0.4 0.1-0.8 0.1l-2.5-2.5q-0.1-0.9 0.3-1.8 0.3-0.8 0.9-1.5c0.6-0.5 1.3-0.9 2-1.1 0.8-0.2 1.6-0.3 2.3-0.1q0.1 0.1 0.2 0.1 0.1 0.1 0.1 0.2 0 0.1 0 0.2 0 0.1-0.1 0.2l-2.3 2.3 0.3 2.1 2.2 0.4 2.3-2.4q0.1 0 0.2-0.1 0 0 0.1 0 0.1 0.1 0.2 0.1 0.1 0.1 0.1 0.2c0.2 0.8 0.2 1.6 0 2.3-0.2 0.8-0.6 1.5-1.2 2q-0.6 0.6-1.4 0.9l-0.6-0.6q-0.4-0.4-1-0.7-0.6-0.3-1.3-0.3zm-3.1 4.6l-3.9 3.9c-0.4 0.3-0.9 0.5-1.4 0.5-0.5 0-1-0.2-1.4-0.5-0.4-0.4-0.6-0.9-0.6-1.5 0-0.5 0.2-1 0.6-1.4l4.8-4.8 1.7 1.8c-0.1 0.7-0.1 1.4 0.2 2zm-4.8 3q0.2-0.3 0.3-0.6-0.1-0.2-0.2-0.4-0.1-0.2-0.3-0.3-0.2 0-0.4 0-0.3 0-0.4 0.2-0.2 0.2-0.2 0.4-0.1 0.2 0 0.4 0.1 0.2 0.3 0.4 0.2 0.1 0.4 0.1 0.3 0 0.5-0.2z"/>
</svg>