<svg width="18" height="9" viewBox="0 0 18 9" fill="none" xmlns="http://www.w3.org/2000/svg">
<path d="M11.0565 0.712048H13.1695C13.637 0.704171 14.1013 0.789435 14.5354 0.962871C14.9696 1.13631 15.3649 1.39444 15.6982 1.72222C16.0316 2.05001 16.2963 2.44088 16.4771 2.87204C16.6578 3.30321 16.7509 3.76604 16.7509 4.23355C16.7509 4.70106 16.6578 5.16389 16.4771 5.59505C16.2963 6.02622 16.0316 6.41709 15.6982 6.74487C15.3649 7.07265 14.9696 7.33079 14.5354 7.50423C14.1013 7.67766 13.637 7.76292 13.1695 7.75505H11.0565M6.83051 7.75505H4.71851C3.79483 7.73948 2.91424 7.36162 2.26654 6.70291C1.61883 6.04419 1.25586 5.15736 1.25586 4.23355C1.25586 3.30973 1.61883 2.4229 2.26654 1.76419C2.91424 1.10547 3.79483 0.727614 4.71851 0.712048H6.83051" stroke="#656565" stroke-width="1.2" stroke-linecap="round" stroke-linejoin="round"/>
<path d="M6.12695 4.23401H11.761" stroke="#656565" stroke-width="1.2" stroke-linecap="round" stroke-linejoin="round"/>
</svg>
