<svg width="11" height="11" viewBox="0 0 11 11" fill="none" xmlns="http://www.w3.org/2000/svg">
<path d="M10.3858 3.00402L9.42376 3.96602C9.40045 3.98934 9.37278 4.00783 9.34233 4.02045C9.31187 4.03306 9.27923 4.03956 9.24626 4.03956C9.2133 4.03956 9.18065 4.03306 9.1502 4.02045C9.11974 4.00783 9.09207 3.98934 9.06876 3.96602L6.75376 1.65002C6.73045 1.62672 6.71196 1.59904 6.69934 1.56859C6.68672 1.53813 6.68023 1.50549 6.68023 1.47252C6.68023 1.43956 6.68672 1.40692 6.69934 1.37646C6.71196 1.346 6.73045 1.31833 6.75376 1.29502L7.71576 0.336024C7.80865 0.242897 7.91901 0.169012 8.0405 0.118599C8.16199 0.0681859 8.29223 0.0422363 8.42376 0.0422363C8.5553 0.0422363 8.68554 0.0681859 8.80703 0.118599C8.92852 0.169012 9.03887 0.242897 9.13176 0.336024L10.3858 1.59002C10.5732 1.77755 10.6785 2.03186 10.6785 2.29702C10.6785 2.56219 10.5732 2.8165 10.3858 3.00402ZM5.92776 2.12202L0.449763 7.60002L0.00776256 10.136C-0.0063745 10.2153 -0.0011476 10.2968 0.0229985 10.3737C0.0471446 10.4505 0.0894952 10.5204 0.146447 10.5773C0.203398 10.6343 0.273265 10.6766 0.350102 10.7008C0.426939 10.7249 0.508471 10.7302 0.587763 10.716L3.12276 10.272L8.59776 4.79202C8.62108 4.76872 8.63957 4.74104 8.65218 4.71059C8.6648 4.68013 8.6713 4.64749 8.6713 4.61452C8.6713 4.58156 8.6648 4.54892 8.65218 4.51846C8.63957 4.488 8.62108 4.46033 8.59776 4.43702L6.28476 2.12202C6.23735 2.07482 6.17317 2.04832 6.10626 2.04832C6.03936 2.04832 5.97518 2.07482 5.92776 2.12202ZM2.58776 7.13102C2.56052 7.10398 2.5389 7.0718 2.52415 7.03636C2.50939 7.00092 2.5018 6.96291 2.5018 6.92452C2.5018 6.88614 2.50939 6.84813 2.52415 6.81268C2.5389 6.77724 2.56052 6.74507 2.58776 6.71802L5.79776 3.50502C5.85253 3.45026 5.92681 3.41949 6.00426 3.41949C6.08172 3.41949 6.156 3.45026 6.21076 3.50502C6.26553 3.55979 6.2963 3.63407 6.2963 3.71152C6.2963 3.78898 6.26553 3.86326 6.21076 3.91802L2.99776 7.13102C2.97071 7.15827 2.93854 7.17989 2.9031 7.19464C2.86766 7.20939 2.82965 7.21699 2.79126 7.21699C2.75287 7.21699 2.71486 7.20939 2.67942 7.19464C2.64398 7.17989 2.61181 7.15827 2.58476 7.13102H2.58776ZM1.83476 8.88502H2.83476V9.64202L1.48876 9.87802L0.841763 9.22902L1.07776 7.88402H1.83476V8.88502Z" fill="#656565"/>
</svg>
