<svg version="1.2" xmlns="http://www.w3.org/2000/svg" viewBox="0 0 17 18" width="17" height="18">
	<title>Icon awesome-user-svg</title>
	<style>
		.s0 { fill: #ffffff } 
	</style>
	<path id="Layer" class="s0" d="m8.7 9c0.8 0 1.7-0.3 2.4-0.8 0.8-0.4 1.3-1.1 1.7-2 0.3-0.8 0.4-1.7 0.2-2.5-0.1-0.9-0.6-1.7-1.2-2.3-0.6-0.6-1.4-1.1-2.3-1.2-0.8-0.2-1.7-0.1-2.6 0.2-0.8 0.4-1.5 0.9-2 1.7-0.4 0.7-0.7 1.6-0.7 2.4 0 1.2 0.5 2.4 1.3 3.2 0.8 0.8 2 1.3 3.2 1.3zm3.1 1.1h-0.6q-1.2 0.6-2.6 0.6-1.3 0-2.5-0.6h-0.6c-1.2 0-2.4 0.5-3.3 1.4-0.9 0.9-1.3 2.1-1.3 3.3v1.4c0 0.5 0.1 0.9 0.4 1.2 0.4 0.3 0.8 0.5 1.2 0.5h12.3c0.4 0 0.9-0.2 1.2-0.5 0.3-0.3 0.5-0.7 0.5-1.2v-1.4c0-1.2-0.5-2.4-1.4-3.3-0.9-0.9-2.1-1.4-3.3-1.4z"/>
</svg>