<svg version="1.2" xmlns="http://www.w3.org/2000/svg" viewBox="0 0 26 17" width="26" height="17">
	<title>Icon awesome-users-svg</title>
	<style>
		.s0 { fill: #000000 } 
	</style>
	<path id="Layer" class="s0" d="m4.5 7.2q0.7 0 1.3-0.4 0.6-0.4 0.9-1 0.3-0.7 0.2-1.4-0.2-0.8-0.7-1.3-0.5-0.5-1.2-0.6-0.8-0.2-1.4 0.1-0.7 0.3-1.1 0.9-0.4 0.6-0.4 1.3c0 0.7 0.2 1.3 0.7 1.7 0.4 0.5 1.1 0.7 1.7 0.7zm16.9 0q0.7 0 1.3-0.4 0.6-0.4 0.9-1 0.3-0.7 0.2-1.4-0.2-0.8-0.7-1.3-0.5-0.5-1.2-0.6-0.8-0.2-1.4 0.1-0.7 0.3-1.1 0.9-0.4 0.6-0.4 1.3c0 0.7 0.2 1.3 0.7 1.7 0.4 0.5 1.1 0.7 1.7 0.7zm1.2 1.2h-2.4c-0.6 0-1.3 0.3-1.7 0.8 0.8 0.4 1.4 1 1.9 1.7 0.5 0.7 0.8 1.5 0.9 2.4h2.5q0.3 0 0.5-0.1 0.2-0.1 0.4-0.3 0.1-0.1 0.2-0.4 0.1-0.2 0.1-0.4v-1.2c0-0.7-0.2-1.3-0.7-1.7-0.4-0.5-1.1-0.7-1.7-0.8zm-9.7 0c0.9 0 1.7-0.2 2.4-0.7 0.7-0.4 1.2-1.1 1.5-1.9 0.4-0.7 0.5-1.6 0.3-2.4-0.2-0.8-0.6-1.6-1.2-2.2-0.6-0.6-1.3-1-2.1-1.1-0.8-0.2-1.7-0.1-2.5 0.2-0.7 0.3-1.4 0.9-1.9 1.6-0.4 0.7-0.7 1.5-0.7 2.3q0 0.9 0.3 1.6 0.4 0.8 1 1.4 0.6 0.6 1.3 0.9 0.8 0.3 1.6 0.3zm2.9 1.3h-0.3c-0.8 0.4-1.7 0.6-2.6 0.6-0.8 0-1.7-0.2-2.5-0.6h-0.4c-1.1 0-2.2 0.4-3 1.2-0.8 0.8-1.3 2-1.3 3.1v1.1q0 0.4 0.1 0.7 0.2 0.3 0.4 0.6 0.3 0.2 0.6 0.4 0.4 0.1 0.7 0.1h10.9c0.5 0 0.9-0.2 1.3-0.5 0.3-0.4 0.5-0.8 0.5-1.3v-1.1c0-1.1-0.5-2.3-1.3-3.1-0.8-0.8-1.9-1.2-3.1-1.2zm-8.4-0.5c-0.4-0.5-1.1-0.7-1.7-0.7h-2.4c-0.7 0-1.3 0.2-1.7 0.7-0.5 0.4-0.7 1-0.7 1.7v1.2q0 0.2 0.1 0.4 0.1 0.3 0.2 0.4 0.2 0.2 0.4 0.3 0.2 0.1 0.5 0.1h2.5c0.1-0.9 0.4-1.7 0.9-2.4 0.5-0.7 1.1-1.3 1.9-1.7z"/>
</svg>