<svg width="14" height="15" viewBox="0 0 14 15" fill="none" xmlns="http://www.w3.org/2000/svg">
<path d="M8.62298 7.4998L13.423 2.6998C13.6119 2.48508 13.7119 2.20641 13.7026 1.92056C13.6932 1.6347 13.5752 1.36316 13.3727 1.16124C13.1701 0.959322 12.8982 0.842214 12.6123 0.833771C12.3264 0.825328 12.0481 0.926185 11.834 1.1158L7.03398 5.9158L2.23398 1.1158C2.13359 0.997001 2.00964 0.900332 1.86996 0.831905C1.73029 0.763479 1.57794 0.724785 1.42254 0.718271C1.26714 0.711758 1.11208 0.737565 0.967173 0.794063C0.822263 0.85056 0.690655 0.936517 0.580676 1.0465C0.470697 1.15648 0.38474 1.28808 0.328242 1.43299C0.271745 1.5779 0.245937 1.73296 0.252451 1.88836C0.258965 2.04376 0.297659 2.19611 0.366085 2.33578C0.434512 2.47546 0.531181 2.59941 0.649978 2.6998L5.44998 7.4998L0.649978 12.2998C0.468077 12.5151 0.373675 12.7908 0.385477 13.0724C0.39728 13.3539 0.514426 13.6208 0.713702 13.8201C0.912979 14.0193 1.17984 14.1365 1.46142 14.1483C1.74299 14.1601 2.01872 14.0657 2.23398 13.8838L7.03398 9.0838L11.834 13.8838C11.9344 14.0026 12.0583 14.0993 12.198 14.1677C12.3377 14.2361 12.49 14.2748 12.6454 14.2813C12.8008 14.2878 12.9559 14.262 13.1008 14.2055C13.2457 14.149 13.3773 14.0631 13.4873 13.9531C13.5973 13.8431 13.6832 13.7115 13.7397 13.5666C13.7962 13.4217 13.822 13.2666 13.8155 13.1112C13.809 12.9558 13.7703 12.8035 13.7019 12.6638C13.6334 12.5241 13.5368 12.4002 13.418 12.2998L8.62298 7.4998Z" fill="#656565"/>
</svg>
