<svg width="18" height="14" viewBox="0 0 18 14" fill="none" xmlns="http://www.w3.org/2000/svg">
<path d="M11.7 9.25H13.05C13.1667 9.24205 13.2766 9.19209 13.3594 9.10936C13.4421 9.02663 13.4921 8.91673 13.5 8.8V4.075C13.4921 3.95827 13.4421 3.84837 13.3594 3.76564C13.2766 3.68291 13.1667 3.63295 13.05 3.625H11.7C11.5833 3.63295 11.4734 3.68291 11.3906 3.76564C11.3079 3.84837 11.2579 3.95827 11.25 4.075V8.8C11.2579 8.91673 11.3079 9.02663 11.3906 9.10936C11.4734 9.19209 11.5833 9.24205 11.7 9.25ZM15.075 9.25H16.425C16.5417 9.24205 16.6516 9.19209 16.7344 9.10936C16.8171 9.02663 16.8671 8.91673 16.875 8.8V0.700001C16.8671 0.583272 16.8171 0.473374 16.7344 0.390643C16.6516 0.307912 16.5417 0.25795 16.425 0.250001H15.075C14.9583 0.25795 14.8484 0.307912 14.7656 0.390643C14.6829 0.473374 14.6329 0.583272 14.625 0.700001V8.8C14.6329 8.91673 14.6829 9.02663 14.7656 9.10936C14.8484 9.19209 14.9583 9.24205 15.075 9.25ZM4.95 9.25H6.3C6.41673 9.24205 6.52663 9.19209 6.60936 9.10936C6.69209 9.02663 6.74205 8.91673 6.75 8.8V6.325C6.74205 6.20827 6.69209 6.09837 6.60936 6.01564C6.52663 5.93291 6.41673 5.88295 6.3 5.875H4.95C4.83327 5.88295 4.72337 5.93291 4.64064 6.01564C4.55791 6.09837 4.50795 6.20827 4.5 6.325V8.8C4.50795 8.91673 4.55791 9.02663 4.64064 9.10936C4.72337 9.19209 4.83327 9.24205 4.95 9.25ZM8.325 9.25H9.675C9.79173 9.24205 9.90163 9.19209 9.98436 9.10936C10.0671 9.02663 10.1171 8.91673 10.125 8.8V1.825C10.1171 1.70827 10.0671 1.59837 9.98436 1.51564C9.90163 1.43291 9.79173 1.38295 9.675 1.375H8.325C8.20827 1.38295 8.09837 1.43291 8.01564 1.51564C7.93291 1.59837 7.88295 1.70827 7.875 1.825V8.8C7.88295 8.91673 7.93291 9.02663 8.01564 9.10936C8.09837 9.19209 8.20827 9.24205 8.325 9.25ZM17.438 11.5H2.25V0.813001C2.25013 0.739114 2.23569 0.665926 2.20751 0.597626C2.17932 0.529325 2.13795 0.467253 2.08575 0.41496C2.03355 0.362668 1.97155 0.321182 1.9033 0.292876C1.83505 0.264571 1.76189 0.250001 1.688 0.250001H0.563001C0.48903 0.249869 0.41576 0.264341 0.347394 0.292588C0.279029 0.320835 0.216912 0.3623 0.164606 0.414606C0.1123 0.466912 0.0708351 0.529029 0.0425884 0.597394C0.0143417 0.66576 -0.000130848 0.73903 8.91348e-07 0.813001V12.625C8.91348e-07 12.9234 0.118527 13.2095 0.329506 13.4205C0.540484 13.6315 0.826632 13.75 1.125 13.75H17.438C17.5118 13.75 17.5849 13.7355 17.6531 13.7072C17.7213 13.679 17.7832 13.6376 17.8354 13.5854C17.8876 13.5332 17.929 13.4713 17.9572 13.4031C17.9855 13.3349 18 13.2618 18 13.188V12.063C18.0001 11.9891 17.9857 11.9159 17.9575 11.8476C17.9293 11.7793 17.8879 11.7173 17.8357 11.665C17.7835 11.6127 17.7215 11.5712 17.6533 11.5429C17.585 11.5146 17.5119 11.5 17.438 11.5Z" fill="#1E1E1E"/>
</svg>
