<svg width="23" height="16" viewBox="0 0 23 16" fill="none" xmlns="http://www.w3.org/2000/svg">
<path d="M22.2509 7.44512C21.2513 5.44533 19.7179 3.76104 17.8205 2.57858C15.9231 1.39611 13.7356 0.761558 11.4999 0.745117C9.26448 0.761967 7.07725 1.3967 5.18006 2.57913C3.28288 3.76156 1.74965 5.44563 0.74991 7.44512C0.663929 7.61571 0.619141 7.80408 0.619141 7.99512C0.619141 8.18615 0.663929 8.37453 0.74991 8.54512C1.74955 10.5449 3.28289 12.2292 5.18031 13.4117C7.07772 14.5941 9.26526 15.2287 11.5009 15.2451C13.7365 15.2285 15.924 14.5938 17.8213 13.4114C19.7187 12.2289 21.2521 10.5448 22.2519 8.54512C22.3377 8.37445 22.3824 8.18603 22.3822 7.995C22.382 7.80396 22.337 7.61563 22.2509 7.44512ZM11.4999 13.4451C10.4238 13.4451 9.37182 13.126 8.47705 12.5281C7.58228 11.9303 6.8849 11.0805 6.47308 10.0863C6.06126 9.09208 5.95352 7.99808 6.16346 6.94263C6.3734 5.88718 6.8916 4.91769 7.65254 4.15675C8.41348 3.39581 9.38297 2.87761 10.4384 2.66766C11.4939 2.45772 12.5879 2.56547 13.5821 2.97729C14.5763 3.38911 15.4261 4.08649 16.0239 4.98126C16.6218 5.87603 16.9409 6.92799 16.9409 8.00412C16.9409 9.44716 16.3677 10.8311 15.3473 11.8515C14.3269 12.8719 12.943 13.4451 11.4999 13.4451ZM11.4999 4.37612C11.1763 4.38059 10.8547 4.42869 10.5439 4.51912C10.7977 4.86739 10.9188 5.29487 10.8853 5.72451C10.8518 6.15415 10.6659 6.55769 10.3612 6.86242C10.0565 7.16714 9.65294 7.353 9.2233 7.3865C8.79366 7.42 8.36618 7.29893 8.01791 7.04512C7.81961 7.77572 7.85541 8.55011 8.12027 9.2593C8.38514 9.96849 8.86574 10.5768 9.49442 10.9985C10.1231 11.4202 10.8682 11.6342 11.6249 11.6103C12.3815 11.5864 13.1116 11.3258 13.7124 10.8652C14.3132 10.4046 14.7544 9.76719 14.974 9.04269C15.1936 8.31819 15.1804 7.54309 14.9363 6.82646C14.6923 6.10984 14.2297 5.48779 13.6136 5.04787C12.9975 4.60795 12.2589 4.37231 11.5019 4.37412L11.4999 4.37612Z" fill="white"/>
</svg>
