<svg width="14" height="16" viewBox="0 0 14 16" fill="none" xmlns="http://www.w3.org/2000/svg">
<path d="M11.6788 13.375H2.40283V11.52L5.18583 6.88204L8.99783 11.52L11.6788 9.66104V13.375ZM11.6788 7.34604C11.6788 7.62115 11.5972 7.89009 11.4444 8.11884C11.2916 8.34758 11.0743 8.52587 10.8201 8.63116C10.566 8.73644 10.2863 8.76398 10.0165 8.71031C9.74663 8.65664 9.49878 8.52416 9.30424 8.32962C9.10971 8.13509 8.97723 7.88724 8.92356 7.61741C8.86988 7.34758 8.89743 7.0679 9.00271 6.81372C9.10799 6.55955 9.28628 6.34231 9.51503 6.18946C9.74378 6.03662 10.0127 5.95504 10.2878 5.95504C10.6567 5.95504 11.0106 6.10159 11.2714 6.36245C11.5323 6.62332 11.6788 6.97712 11.6788 7.34604ZM12.9228 3.70904C12.5374 3.19617 12.1149 2.71221 11.6588 2.26104C11.2085 1.80643 10.7255 1.38531 10.2138 1.00104C9.85169 0.660685 9.38952 0.446081 8.89583 0.389038H1.70683C1.39961 0.389832 1.10522 0.512364 0.888169 0.729792C0.671116 0.947219 0.549092 1.24181 0.548828 1.54904V14.071C0.549093 14.3786 0.671392 14.6735 0.888877 14.891C1.10636 15.1085 1.40126 15.2308 1.70883 15.231H12.3748C12.6824 15.2308 12.9773 15.1085 13.1948 14.891C13.4123 14.6735 13.5346 14.3786 13.5348 14.071V5.02704C13.4778 4.53335 13.2632 4.07118 12.9228 3.70904ZM11.0038 2.92004C11.3787 3.29073 11.7301 3.6845 12.0558 4.09904H9.82383V1.86804C10.2384 2.19377 10.6332 2.54512 11.0038 2.92004ZM12.6038 14.071C12.6031 14.1323 12.5784 14.1909 12.535 14.2342C12.4917 14.2776 12.4331 14.3023 12.3718 14.303H1.70683C1.64554 14.3023 1.58698 14.2776 1.54364 14.2342C1.5003 14.1909 1.47561 14.1323 1.47483 14.071V1.54904C1.47561 1.48775 1.5003 1.42919 1.54364 1.38585C1.58698 1.34251 1.64554 1.31782 1.70683 1.31704H8.89583V4.56104C8.89583 4.6841 8.94471 4.80212 9.03173 4.88914C9.11875 4.97615 9.23677 5.02504 9.35983 5.02504H12.6068L12.6038 14.071Z" fill="#656565"/>
</svg>
