<svg width="17" height="18" viewBox="0 0 17 18" fill="none" xmlns="http://www.w3.org/2000/svg">
<path d="M8.6501 8.99899C9.53209 8.99959 10.3944 8.7386 11.1281 8.24905C11.8617 7.75949 12.4337 7.06336 12.7717 6.24869C13.1097 5.43403 13.1985 4.53743 13.0269 3.6723C12.8552 2.80716 12.4309 2.01236 11.8075 1.38842C11.1841 0.764479 10.3897 0.339424 9.52472 0.167016C8.65974 -0.00539176 7.76307 0.0825933 6.9481 0.419843C6.13313 0.757092 5.43648 1.32846 4.94627 2.06167C4.45606 2.79488 4.1943 3.657 4.1941 4.53899C4.19383 5.72125 4.66309 6.85522 5.49869 7.69157C6.3343 8.52792 7.46784 8.9982 8.6501 8.99899ZM11.7711 10.114H11.1891C10.3928 10.4812 9.52644 10.6714 8.6496 10.6714C7.77276 10.6714 6.90635 10.4812 6.1101 10.114H5.5321C4.29044 10.1143 3.0997 10.6076 2.22172 11.4856C1.34373 12.3636 0.850363 13.5543 0.850098 14.796L0.850098 16.245C0.850363 16.6884 1.0266 17.1135 1.34011 17.427C1.65361 17.7405 2.07874 17.9167 2.5221 17.917H14.7851C15.2285 17.9167 15.6536 17.7405 15.9671 17.427C16.2806 17.1135 16.4568 16.6884 16.4571 16.245V14.796C16.4571 13.5542 15.9638 12.3632 15.0858 11.485C14.2078 10.6068 13.0169 10.1133 11.7751 10.113L11.7711 10.114Z" fill="#1E1E1E"/>
</svg>
