<svg width="19" height="18" viewBox="0 0 19 18" fill="none" xmlns="http://www.w3.org/2000/svg">
<path d="M17.6709 5.20554L16.1049 6.77554C16.067 6.81357 16.022 6.84375 15.9724 6.86435C15.9228 6.88494 15.8696 6.89554 15.8159 6.89554C15.7622 6.89554 15.7091 6.88494 15.6595 6.86435C15.6099 6.84375 15.5648 6.81357 15.5269 6.77554L11.7549 3.00054C11.7169 2.96263 11.6867 2.91759 11.6661 2.868C11.6455 2.81841 11.6349 2.76524 11.6349 2.71154C11.6349 2.65784 11.6455 2.60467 11.6661 2.55508C11.6867 2.50548 11.7169 2.46044 11.7549 2.42254L13.3219 0.857538C13.6282 0.552271 14.043 0.380859 14.4754 0.380859C14.9079 0.380859 15.3227 0.552271 15.6289 0.857538L17.6709 2.89954C17.8227 3.05078 17.943 3.23048 18.0252 3.42833C18.1073 3.62619 18.1496 3.83831 18.1496 4.05254C18.1496 4.26677 18.1073 4.47889 18.0252 4.67674C17.943 4.8746 17.8227 5.0543 17.6709 5.20554ZM10.4109 3.76854L1.48993 12.6905L0.769933 16.8185C0.747454 16.9475 0.756333 17.08 0.795821 17.2048C0.835308 17.3296 0.904246 17.4431 0.996813 17.5357C1.08938 17.6282 1.20286 17.6972 1.32767 17.7367C1.45249 17.7761 1.58497 17.785 1.71393 17.7625L5.84193 17.0385L14.7629 8.11754C14.801 8.07963 14.8311 8.03459 14.8517 7.985C14.8723 7.93541 14.8829 7.88224 14.8829 7.82854C14.8829 7.77484 14.8723 7.72167 14.8517 7.67208C14.8311 7.62248 14.801 7.57744 14.7629 7.53954L10.9919 3.76854C10.9147 3.69178 10.8103 3.64869 10.7014 3.64869C10.5926 3.64869 10.4881 3.69178 10.4109 3.76854ZM4.97193 11.9255C4.92752 11.8815 4.89227 11.8291 4.86821 11.7713C4.84415 11.7135 4.83176 11.6516 4.83176 11.589C4.83176 11.5265 4.84415 11.4645 4.86821 11.4068C4.89227 11.349 4.92752 11.2966 4.97193 11.2525L10.2039 6.02154C10.2938 5.93554 10.4138 5.88815 10.5382 5.88953C10.6627 5.89091 10.7816 5.94095 10.8695 6.02892C10.9575 6.1169 11.0076 6.23582 11.0089 6.36022C11.0103 6.48463 10.9629 6.60463 10.8769 6.69454L5.64493 11.9255C5.60087 11.97 5.54845 12.0052 5.4907 12.0293C5.43294 12.0533 5.371 12.0657 5.30843 12.0657C5.24587 12.0657 5.18392 12.0533 5.12617 12.0293C5.06842 12.0052 5.016 11.97 4.97193 11.9255ZM3.74493 14.7825H5.37593V16.0155L3.18493 16.3995L2.12793 15.3435L2.51193 13.1525H3.74493V14.7825Z" fill="#656565"/>
</svg>
