<svg width="17" height="17" viewBox="0 0 17 17" fill="none" xmlns="http://www.w3.org/2000/svg">
<path d="M15.7041 12.4L12.034 8.73C11.689 8.38845 11.2458 8.16336 10.7665 8.08625C10.2872 8.00915 9.79577 8.08389 9.36105 8.3L6.02005 4.956V3.009L2.00405 0L0.00405022 2.006L3.01105 6.018H4.95805L8.29905 9.359C8.08351 9.79496 8.00966 10.2874 8.08784 10.7674C8.16602 11.2474 8.39231 11.691 8.73505 12.036L12.4051 15.706C12.5133 15.8148 12.642 15.9012 12.7838 15.9602C12.9255 16.0191 13.0775 16.0494 13.2311 16.0494C13.3846 16.0494 13.5366 16.0191 13.6783 15.9602C13.8201 15.9012 13.9488 15.8148 14.0571 15.706L15.7041 14.055C15.9224 13.8356 16.045 13.5386 16.045 13.229C16.045 12.9194 15.9224 12.6224 15.7041 12.403V12.4ZM10.3941 7.05C10.8302 7.0488 11.2623 7.13408 11.6654 7.30092C12.0684 7.46776 12.4343 7.71285 12.7421 8.022L13.35 8.63C13.8617 8.41053 14.3275 8.09674 14.7231 7.705C15.2746 7.15437 15.6739 6.47017 15.8821 5.71917C16.0904 4.96816 16.1003 4.176 15.911 3.42C15.8948 3.35559 15.8617 3.29667 15.8151 3.24925C15.7686 3.20183 15.7103 3.16763 15.6462 3.15013C15.5822 3.13263 15.5146 3.13248 15.4504 3.14967C15.3862 3.16687 15.3278 3.2008 15.2811 3.248L12.9531 5.582L10.8251 5.228L10.4711 3.1L12.8041 0.768C12.8511 0.720379 12.8846 0.661124 12.9013 0.596292C12.9179 0.531459 12.917 0.463375 12.8987 0.398996C12.8804 0.334618 12.8453 0.276255 12.7971 0.229872C12.7488 0.183489 12.6891 0.15075 12.6241 0.135C11.8686 -0.0528319 11.0774 -0.0421505 10.3273 0.166007C9.57721 0.374165 8.89367 0.772727 8.34305 1.323C7.91935 1.74875 7.5864 2.25601 7.36433 2.81411C7.14226 3.3722 7.03569 3.96954 7.05105 4.57L9.62505 7.143C9.87873 7.08323 10.1384 7.0527 10.3991 7.052L10.3941 7.05ZM7.14205 9.623L5.36505 7.845L0.58805 12.625C0.211841 13.0012 0.000488281 13.5115 0.000488281 14.0435C0.000488281 14.5755 0.211841 15.0858 0.58805 15.462C0.96426 15.8382 1.47451 16.0496 2.00655 16.0496C2.53859 16.0496 3.04884 15.8382 3.42505 15.462L7.29905 11.588C7.0518 10.9633 6.99712 10.279 7.14205 9.623ZM2.00405 14.794C1.85532 14.794 1.70993 14.7499 1.58626 14.6673C1.4626 14.5846 1.36621 14.4672 1.30929 14.3298C1.25238 14.1924 1.23748 14.0412 1.2665 13.8953C1.29552 13.7494 1.36714 13.6154 1.47231 13.5103C1.57748 13.4051 1.71147 13.3335 1.85734 13.3044C2.00322 13.2754 2.15442 13.2903 2.29183 13.3472C2.42924 13.4042 2.54668 13.5005 2.62932 13.6242C2.71195 13.7479 2.75605 13.8933 2.75605 14.042C2.75552 14.2413 2.67612 14.4322 2.53521 14.5732C2.3943 14.7141 2.20333 14.7935 2.00405 14.794Z" fill="#1E1E1E"/>
</svg>
