<svg width="12" height="12" viewBox="0 0 12 12" fill="none" xmlns="http://www.w3.org/2000/svg">
<path d="M5.27271 3.55207C5.26932 3.43657 5.30052 3.32268 5.36229 3.22503C5.42406 3.12737 5.5136 3.05039 5.61941 3.00396C5.72523 2.95753 5.8425 2.94376 5.95619 2.96443C6.06988 2.9851 6.17481 3.03925 6.25752 3.11995C6.34022 3.20065 6.39694 3.30422 6.42039 3.41737C6.44384 3.53052 6.43296 3.64809 6.38914 3.75501C6.34533 3.86194 6.27057 3.95334 6.17446 4.01749C6.07835 4.08164 5.96526 4.11562 5.84971 4.11507C5.77461 4.11694 5.69989 4.10376 5.62996 4.0763C5.56003 4.04885 5.4963 4.00767 5.44253 3.95521C5.38876 3.90274 5.34603 3.84004 5.31687 3.77081C5.2877 3.70157 5.27269 3.6272 5.27271 3.55207ZM5.31171 4.55207H6.38671V8.60707H5.31171V4.55207Z" fill="#656565"/>
<path d="M5.85303 0.844641C7.02429 0.845066 8.15918 1.25157 9.06435 1.9949C9.96952 2.73823 10.589 3.7724 10.8172 4.92122C11.0454 6.07004 10.8682 7.26245 10.3158 8.2953C9.76348 9.32814 8.87011 10.1375 7.78792 10.5856C6.70573 11.0336 5.50168 11.0926 4.38089 10.7524C3.2601 10.4123 2.2919 9.69411 1.64125 8.72018C0.990602 7.74626 0.697748 6.57688 0.812582 5.41125C0.927416 4.24563 1.44283 3.15587 2.27103 2.32764C2.74033 1.85583 3.29858 1.48181 3.91344 1.22725C4.5283 0.972692 5.18756 0.842644 5.85303 0.844641ZM5.85303 0.0566407C4.69537 0.0564429 3.56365 0.399547 2.601 1.04256C1.63835 1.68558 0.887999 2.59962 0.444846 3.6691C0.0016931 4.73858 -0.114358 5.91545 0.111368 7.05089C0.337094 8.18633 0.894459 9.22933 1.71298 10.048C2.53149 10.8666 3.5744 11.4242 4.70979 11.6501C5.84519 11.876 7.02209 11.7602 8.09164 11.3172C9.16119 10.8742 10.0754 10.124 10.7185 9.1615C11.3617 8.19895 11.705 7.0673 11.705 5.90964C11.7052 5.14106 11.5539 4.37998 11.2599 3.66987C10.9658 2.95976 10.5348 2.31452 9.99137 1.77101C9.44795 1.22749 8.80278 0.796346 8.09272 0.502193C7.38266 0.20804 6.62161 0.0566407 5.85303 0.0566407Z" fill="#656565"/>
</svg>
