<svg width="26" height="17" viewBox="0 0 26 17" fill="none" xmlns="http://www.w3.org/2000/svg">
<path d="M4.49407 7.244C4.97171 7.244 5.43863 7.10236 5.83577 6.837C6.23292 6.57164 6.54246 6.19447 6.72524 5.75318C6.90803 5.3119 6.95585 4.82632 6.86267 4.35786C6.76948 3.88939 6.53948 3.45908 6.20173 3.12134C5.86399 2.78359 5.43368 2.55359 4.96521 2.46041C4.49675 2.36722 4.01117 2.41505 3.56989 2.59783C3.12861 2.78062 2.75144 3.09015 2.48607 3.4873C2.22071 3.88444 2.07907 4.35136 2.07907 4.829C2.0796 5.46934 2.33421 6.08329 2.78699 6.53608C3.23978 6.98886 3.85374 7.24347 4.49407 7.244ZM21.3941 7.244C21.8717 7.244 22.3386 7.10236 22.7358 6.837C23.1329 6.57164 23.4425 6.19447 23.6252 5.75318C23.808 5.3119 23.8559 4.82632 23.7627 4.35786C23.6695 3.88939 23.4395 3.45908 23.1017 3.12134C22.764 2.78359 22.3337 2.55359 21.8652 2.46041C21.3968 2.36722 20.9112 2.41505 20.4699 2.59783C20.0286 2.78062 19.6514 3.09015 19.3861 3.4873C19.1207 3.88444 18.9791 4.35136 18.9791 4.829C18.9796 5.46968 19.2345 6.08394 19.6877 6.53679C20.1409 6.98963 20.7554 7.244 21.3961 7.244H21.3941ZM22.6031 8.45H20.1881C19.5511 8.44921 18.9398 8.70092 18.4881 9.15C19.2522 9.56588 19.9071 10.1565 20.3995 10.8738C20.8918 11.591 21.2076 12.4145 21.3211 13.277H23.8111C23.9696 13.2771 24.1266 13.246 24.2731 13.1854C24.4196 13.1248 24.5527 13.0359 24.6648 12.9238C24.7769 12.8117 24.8659 12.6786 24.9265 12.5321C24.9871 12.3856 25.0182 12.2285 25.0181 12.07V10.865C25.0175 10.2247 24.7629 9.61071 24.3102 9.15792C23.8574 8.70514 23.2434 8.45053 22.6031 8.45ZM12.9451 8.45C13.7807 8.4498 14.5974 8.20184 15.2921 7.73748C15.9867 7.27311 16.5281 6.61318 16.8477 5.84115C17.1674 5.06911 17.2509 4.21964 17.0878 3.40013C16.9246 2.58063 16.5222 1.8279 15.9312 1.23712C15.3403 0.646345 14.5875 0.244053 13.768 0.081111C12.9484 -0.0818305 12.099 0.00189674 11.327 0.321706C10.555 0.641516 9.89525 1.18305 9.43104 1.87782C8.96684 2.5726 8.71907 3.38942 8.71907 4.225C8.71881 4.77999 8.82795 5.3296 9.04024 5.84238C9.25254 6.35517 9.56383 6.82108 9.95631 7.21347C10.3488 7.60586 10.8148 7.91704 11.3276 8.12922C11.8405 8.34139 12.3901 8.4504 12.9451 8.45ZM15.8451 9.657H15.5321C14.7284 10.0541 13.844 10.2607 12.9476 10.2607C12.0511 10.2607 11.1667 10.0541 10.3631 9.657H10.0471C8.89452 9.65727 7.78925 10.1152 6.97428 10.9302C6.1593 11.7452 5.70134 12.8505 5.70107 14.003V15.09C5.70094 15.3279 5.74769 15.5635 5.83864 15.7833C5.92959 16.0032 6.06297 16.2029 6.23115 16.3712C6.39933 16.5395 6.59902 16.673 6.8188 16.7641C7.03859 16.8551 7.27416 16.902 7.51207 16.902H18.3771C18.8574 16.902 19.318 16.7112 19.6576 16.3716C19.9973 16.0319 20.1881 15.5713 20.1881 15.091V14.004C20.1878 12.8515 19.7298 11.7462 18.9149 10.9312C18.0999 10.1162 16.9946 9.65827 15.8421 9.658L15.8451 9.657ZM7.40307 9.15C6.95135 8.70092 6.34004 8.44921 5.70307 8.45H3.28707C2.64674 8.45053 2.03278 8.70514 1.57999 9.15792C1.12721 9.61071 0.872602 10.2247 0.872072 10.865V12.072C0.871809 12.2306 0.902842 12.3877 0.963394 12.5344C1.02395 12.681 1.11283 12.8142 1.22495 12.9264C1.33707 13.0386 1.47022 13.1276 1.61679 13.1883C1.76335 13.249 1.92045 13.2801 2.07907 13.28H4.56607C4.68059 12.4169 4.99721 11.593 5.49018 10.8754C5.98315 10.1577 6.63855 9.56659 7.40307 9.15Z" fill="white"/>
</svg>
