<svg width="12" height="12" viewBox="0 0 12 12" fill="none" xmlns="http://www.w3.org/2000/svg">
<path d="M5.27308 3.64198C5.26969 3.52647 5.30088 3.41259 5.36266 3.31493C5.42443 3.21727 5.51396 3.14029 5.61978 3.09386C5.72559 3.04743 5.84287 3.03367 5.95656 3.05433C6.07025 3.075 6.17518 3.12916 6.25788 3.20986C6.34059 3.29056 6.3973 3.39412 6.42076 3.50727C6.44421 3.62042 6.43333 3.73799 6.38951 3.84492C6.34569 3.95184 6.27093 4.04324 6.17482 4.10739C6.07871 4.17154 5.96563 4.20552 5.85008 4.20498C5.77497 4.20684 5.70025 4.19366 5.63032 4.16621C5.56039 4.13875 5.49666 4.09758 5.44289 4.04511C5.38912 3.99264 5.3464 3.92995 5.31723 3.86071C5.28807 3.79148 5.27305 3.7171 5.27308 3.64198ZM5.31208 4.64198H6.38708V8.69698H5.31208V4.64198Z" fill="#656565"/>
<path d="M5.85303 0.934973C7.02429 0.935398 8.15918 1.3419 9.06435 2.08523C9.96952 2.82856 10.589 3.86273 10.8172 5.01155C11.0454 6.16038 10.8682 7.35278 10.3158 8.38563C9.76348 9.41847 8.87011 10.2279 7.78792 10.6759C6.70573 11.1239 5.50168 11.1829 4.38089 10.8428C3.2601 10.5026 2.2919 9.78444 1.64125 8.81052C0.990602 7.83659 0.697748 6.66721 0.812582 5.50158C0.927416 4.33596 1.44283 3.2462 2.27103 2.41797C2.74033 1.94616 3.29858 1.57215 3.91344 1.31759C4.5283 1.06302 5.18756 0.932976 5.85303 0.934973ZM5.85303 0.146973C4.69537 0.146775 3.56365 0.489879 2.601 1.1329C1.63835 1.77591 0.887999 2.68996 0.444846 3.75943C0.0016931 4.82891 -0.114358 6.00579 0.111368 7.14122C0.337094 8.27666 0.894459 9.31966 1.71298 10.1383C2.53149 10.957 3.5744 11.5145 4.70979 11.7404C5.84519 11.9664 7.02209 11.8505 8.09164 11.4075C9.16119 10.9646 10.0754 10.2144 10.7185 9.25183C11.3617 8.28929 11.705 7.15763 11.705 5.99997C11.7052 5.23139 11.5539 4.47031 11.2599 3.7602C10.9658 3.05009 10.5348 2.40485 9.99137 1.86134C9.44795 1.31782 8.80278 0.886678 8.09272 0.592525C7.38266 0.298372 6.62161 0.146973 5.85303 0.146973Z" fill="#656565"/>
</svg>
