<svg width="26" height="26" viewBox="0 0 26 26" fill="none" xmlns="http://www.w3.org/2000/svg">
<path d="M26 13C26 5.8203 20.1797 0 13 0C5.8203 0 0 5.8203 0 13C0 20.1797 5.8203 26 13 26C20.1797 26 26 20.1797 26 13Z" fill="#28C66F" fill-opacity="0.15"/>
<path d="M12.9889 20.8567C11.6829 20.8567 10.3769 20.8637 9.07093 20.8567C8.69177 20.8435 8.33039 20.6927 8.05433 20.4325C7.77827 20.1723 7.60643 19.8204 7.57093 19.4427C7.54993 19.2247 7.54493 19.0087 7.54493 18.7917C7.54493 16.4537 7.54493 14.1153 7.54493 11.7767C7.52263 11.3828 7.62782 10.9921 7.84492 10.6627C7.99374 10.4458 8.19432 10.2695 8.42848 10.1497C8.66264 10.0299 8.92298 9.97045 9.18593 9.97668C11.7293 9.97001 14.2726 9.97001 16.8159 9.97668C17.0368 9.97136 17.2563 10.0118 17.4607 10.0955C17.6651 10.1792 17.85 10.3044 18.0037 10.463C18.1574 10.6217 18.2765 10.8105 18.3537 11.0174C18.4308 11.2244 18.4643 11.4451 18.4519 11.6657C18.4639 14.1717 18.4639 16.6777 18.4519 19.1837C18.4726 19.5613 18.3584 19.9341 18.1296 20.2352C17.9008 20.5364 17.5723 20.7464 17.2029 20.8277C17.0384 20.8604 16.8704 20.8718 16.7029 20.8617C15.4656 20.8617 14.2279 20.8617 12.9899 20.8617M13.0129 11.0037H9.28093C8.77093 11.0037 8.57093 11.2037 8.57093 11.7157C8.57093 14.191 8.57093 16.6667 8.57093 19.1427C8.57093 19.6427 8.78793 19.8637 9.28293 19.8637H16.7099C17.2099 19.8637 17.4289 19.6457 17.4289 19.1497C17.4289 16.6677 17.4289 14.186 17.4289 11.7047C17.4289 11.2047 17.2289 11.0047 16.7289 11.0047H13.0159" fill="#29C46F"/>
<path d="M15.2028 7.40799C15.3028 7.34499 15.3529 7.30799 15.4119 7.27199C15.5132 7.21573 15.6309 7.19645 15.745 7.21742C15.859 7.2384 15.9622 7.29834 16.0369 7.38699C16.1117 7.47197 16.1541 7.58058 16.1569 7.69376C16.1596 7.80694 16.1224 7.91748 16.0518 8.00599C15.7263 8.38179 15.3751 8.73464 15.0008 9.06199C14.9089 9.14504 14.7883 9.189 14.6645 9.18452C14.5407 9.18004 14.4235 9.12747 14.3379 9.03799C14.0045 8.72132 13.6795 8.39632 13.3628 8.06299C13.2703 7.97643 13.2157 7.85678 13.211 7.73014C13.2063 7.6035 13.2519 7.48015 13.3379 7.38699C13.4229 7.28665 13.5441 7.22388 13.6751 7.21227C13.8062 7.20067 13.9365 7.24116 14.0378 7.32499C14.0718 7.34799 14.1009 7.39999 14.1479 7.37599C14.1949 7.35199 14.1749 7.29799 14.1749 7.25699C14.1749 6.72899 14.1749 6.19999 14.1749 5.67199C14.1723 5.60195 14.1845 5.53216 14.2107 5.46714C14.2368 5.40212 14.2764 5.34333 14.3267 5.29458C14.3771 5.24583 14.4371 5.20822 14.503 5.18417C14.5688 5.16012 14.6389 5.15018 14.7089 5.15499C14.8184 5.15884 14.9234 5.1997 15.0068 5.27088C15.0901 5.34207 15.1469 5.43939 15.1678 5.54699C15.1917 5.67554 15.2011 5.80635 15.1959 5.93699C15.1959 6.41399 15.1959 6.89199 15.1959 7.40899" fill="#29C46F"/>
<path d="M10.7619 6.93088C10.6875 7.01178 10.5911 7.06917 10.4845 7.09599C10.3779 7.12282 10.2658 7.11791 10.1619 7.08187C10.0909 7.05711 10.0266 7.01606 9.97422 6.96199C9.92187 6.90792 9.8829 6.84234 9.86045 6.77051C9.838 6.69868 9.83268 6.62258 9.84492 6.54832C9.85716 6.47406 9.88661 6.4037 9.93093 6.34288C10.2582 5.94318 10.6222 5.57492 11.0179 5.24288C11.1091 5.16872 11.2246 5.1313 11.3419 5.13797C11.4592 5.14463 11.5698 5.19488 11.6519 5.27888C11.9889 5.60088 12.3199 5.92887 12.6399 6.26787C12.6855 6.3111 12.722 6.36296 12.7474 6.42044C12.7728 6.47791 12.7864 6.53985 12.7877 6.60266C12.7889 6.66546 12.7776 6.72788 12.7544 6.78629C12.7313 6.84469 12.6968 6.89792 12.6529 6.94287C12.5679 7.03973 12.4489 7.10004 12.3205 7.11122C12.1921 7.1224 12.0644 7.08358 11.9639 7.00288C11.9289 6.97888 11.8999 6.92587 11.8549 6.94287C11.7949 6.96487 11.8189 7.02887 11.8189 7.07487C11.8189 7.60287 11.8189 8.13087 11.8189 8.65887C11.8262 8.79148 11.7805 8.92156 11.6919 9.02048C11.6033 9.11941 11.479 9.17908 11.3464 9.18637C11.2138 9.19367 11.0838 9.14799 10.9848 9.05937C10.8859 8.97076 10.8262 8.84648 10.8189 8.71387C10.8065 8.62777 10.8005 8.54087 10.8009 8.45388C10.8009 8.01888 10.8009 7.58388 10.8009 7.15388C10.8101 7.07877 10.7994 7.00257 10.7699 6.93288" fill="#29C46F"/>
<path d="M13.861 15.3498C13.827 15.6328 13.795 15.9148 13.761 16.1978C13.735 16.3978 13.604 16.5288 13.44 16.5188C13.3947 16.5154 13.3506 16.5024 13.3106 16.4808C13.2706 16.4592 13.2356 16.4294 13.2079 16.3934C13.1801 16.3573 13.1603 16.3159 13.1496 16.2717C13.139 16.2275 13.1378 16.1815 13.146 16.1368C13.1783 15.716 13.2452 15.2986 13.346 14.8888C13.395 14.6359 13.5291 14.4073 13.7259 14.2411C13.9227 14.0748 14.1704 13.9809 14.428 13.9748C14.7254 13.9429 15.0261 13.9681 15.314 14.0488C15.4611 14.0923 15.5957 14.1703 15.7067 14.2762C15.8176 14.3821 15.9017 14.5129 15.952 14.6578C16.133 15.1549 16.2247 15.6799 16.223 16.2088C16.2275 16.2845 16.2023 16.359 16.1529 16.4165C16.1034 16.474 16.0335 16.5099 15.958 16.5168C15.8829 16.5234 15.808 16.5014 15.7483 16.4553C15.6887 16.4092 15.6486 16.3422 15.636 16.2678C15.588 15.9938 15.563 15.7148 15.528 15.4378C15.521 15.3838 15.509 15.3298 15.494 15.2488C15.4675 15.8079 15.5403 16.3672 15.709 16.9008C15.743 17.0748 15.818 17.2478 15.537 17.2868C15.451 17.2988 15.465 17.4068 15.465 17.4798C15.465 17.8278 15.465 18.1798 15.465 18.5238C15.4652 18.6168 15.4589 18.7097 15.446 18.8018C15.4422 18.8947 15.4016 18.9822 15.3333 19.0451C15.2649 19.108 15.1743 19.1412 15.0815 19.1373C14.9887 19.1335 14.9012 19.0929 14.8383 19.0246C14.7754 18.9562 14.7422 18.8657 14.746 18.7728C14.737 18.4058 14.746 18.0388 14.74 17.6728C14.7558 17.5475 14.7463 17.4204 14.712 17.2988C14.626 17.3508 14.649 17.4248 14.649 17.4858C14.649 17.8468 14.649 18.2068 14.649 18.5678C14.6502 18.6424 14.6456 18.717 14.635 18.7908C14.6298 18.8846 14.5877 18.9724 14.5177 19.0351C14.4478 19.0977 14.3558 19.13 14.262 19.1248C14.1683 19.1197 14.0804 19.0775 14.0178 19.0075C13.9551 18.9376 13.9228 18.8456 13.928 18.7518C13.92 18.3358 13.923 17.9188 13.928 17.5018C13.928 17.3728 13.928 17.2718 13.754 17.2548C13.636 17.2428 13.62 17.1448 13.644 17.0408C13.698 16.8048 13.744 16.5668 13.805 16.3328C13.894 16.0131 13.9154 15.6783 13.868 15.3498" fill="#29C46F"/>
<path d="M11.3048 17.008C11.2278 17.058 11.2588 17.133 11.2588 17.195C11.2588 17.68 11.2588 18.165 11.2588 18.649C11.2657 18.7295 11.2572 18.8106 11.2338 18.888C11.2122 18.9606 11.1666 19.0236 11.1045 19.0669C11.0424 19.1101 10.9674 19.1309 10.8918 19.126C10.8127 19.127 10.736 19.0991 10.676 19.0476C10.6159 18.996 10.5768 18.9243 10.5658 18.846C10.5463 18.7297 10.5373 18.6119 10.5388 18.494C10.5388 17.42 10.5388 16.346 10.5228 15.272C10.461 15.5306 10.4202 15.7938 10.4008 16.059C10.3948 16.102 10.4008 16.146 10.3888 16.189C10.3508 16.4 10.2118 16.531 10.0468 16.512C9.88184 16.493 9.76885 16.361 9.77785 16.132C9.78845 15.6597 9.86761 15.1915 10.0128 14.742C10.0682 14.5493 10.1779 14.3767 10.3288 14.2447C10.4797 14.1128 10.6655 14.0271 10.8638 13.998C11.2192 13.9296 11.5855 13.945 11.9338 14.043C12.0779 14.0853 12.2101 14.1608 12.3196 14.2634C12.4292 14.3661 12.5132 14.493 12.5648 14.634C12.7075 15.0122 12.795 15.4089 12.8248 15.812C12.8368 15.912 12.8498 16.021 12.8568 16.127C12.8649 16.1717 12.8637 16.2175 12.8533 16.2617C12.8429 16.3058 12.8234 16.3474 12.7962 16.3837C12.769 16.42 12.7346 16.4504 12.6951 16.4728C12.6556 16.4952 12.612 16.5092 12.5668 16.514C12.5248 16.5148 12.483 16.5073 12.4438 16.4918C12.4047 16.4764 12.369 16.4534 12.3388 16.4241C12.3086 16.3948 12.2845 16.3599 12.2678 16.3212C12.2512 16.2826 12.2424 16.2411 12.2418 16.199C12.2048 15.914 12.1718 15.629 12.1288 15.346C12.0668 16.434 12.0818 17.521 12.0798 18.608C12.0888 18.7072 12.0776 18.8072 12.0468 18.902C12.0216 18.9713 11.975 19.0307 11.9137 19.0717C11.8525 19.1127 11.7797 19.1331 11.7061 19.13C11.6324 19.1269 11.5617 19.1004 11.5041 19.0543C11.4465 19.0083 11.4051 18.9452 11.3858 18.874C11.3593 18.7763 11.3482 18.6751 11.3528 18.574C11.3528 18.12 11.3528 17.667 11.3528 17.213C11.3528 17.144 11.3818 17.064 11.3088 17.004" fill="#29C46F"/>
<path d="M11.301 13.8771C11.0591 13.876 10.8273 13.7797 10.6559 13.609C10.4844 13.4383 10.3871 13.207 10.385 12.9651C10.3876 12.7201 10.4861 12.4859 10.6595 12.3128C10.8328 12.1397 11.067 12.0414 11.312 12.0391C11.4333 12.0391 11.5534 12.0631 11.6653 12.1099C11.7773 12.1567 11.8788 12.2253 11.964 12.3116C12.0492 12.3979 12.1164 12.5003 12.1618 12.6128C12.2071 12.7254 12.2296 12.8458 12.228 12.9671C12.2286 13.0883 12.2048 13.2083 12.1582 13.3202C12.1115 13.432 12.0429 13.5334 11.9563 13.6182C11.8698 13.7031 11.7671 13.7697 11.6544 13.8142C11.5417 13.8586 11.4212 13.88 11.3 13.8771" fill="#29C46F"/>
<path d="M14.6699 13.877C14.5489 13.8764 14.4291 13.8516 14.3178 13.8038C14.2065 13.7561 14.106 13.6866 14.022 13.5993C13.9381 13.512 13.8726 13.4088 13.8293 13.2957C13.786 13.1827 13.7658 13.062 13.7699 12.941C13.7744 12.6996 13.8739 12.4696 14.0469 12.3011C14.2199 12.1326 14.4524 12.0392 14.6939 12.041C14.9388 12.0457 15.1721 12.1461 15.3438 12.3207C15.5156 12.4953 15.6122 12.7301 15.6129 12.975C15.6103 13.096 15.5839 13.2153 15.5351 13.3261C15.4863 13.4369 15.4162 13.5369 15.3287 13.6205C15.2412 13.7041 15.138 13.7696 15.0252 13.8133C14.9123 13.857 14.7919 13.878 14.6709 13.875" fill="#29C46F"/>
</svg>
