<svg width="17" height="17" viewBox="0 0 17 17" fill="none" xmlns="http://www.w3.org/2000/svg">
<path d="M16.7076 0.29297C16.895 0.480497 17.0004 0.734805 17.0004 0.99997C17.0004 1.26513 16.895 1.51944 16.7076 1.70697L2.70757 15.707C2.61532 15.8025 2.50498 15.8787 2.38297 15.9311C2.26097 15.9835 2.12975 16.0111 1.99697 16.0122C1.86419 16.0134 1.73251 15.9881 1.60962 15.9378C1.48672 15.8875 1.37507 15.8133 1.28117 15.7194C1.18728 15.6255 1.11303 15.5138 1.06275 15.3909C1.01247 15.268 0.987165 15.1363 0.988319 15.0036C0.989473 14.8708 1.01706 14.7396 1.06947 14.6176C1.12188 14.4956 1.19806 14.3852 1.29357 14.293L15.2936 0.29297C15.4811 0.105499 15.7354 0.000183105 16.0006 0.000183105C16.2657 0.000183105 16.52 0.105499 16.7076 0.29297Z" fill="#1F1F1F"/>
</svg>
