<svg width="20" height="16" viewBox="0 0 20 16" fill="none" xmlns="http://www.w3.org/2000/svg">
<path d="M6.63672 2.04401H18.4587" stroke="white" stroke-width="1.5" stroke-linecap="round" stroke-linejoin="round"/>
<path d="M6.63672 7.95602H18.4587" stroke="white" stroke-width="1.5" stroke-linecap="round" stroke-linejoin="round"/>
<path d="M6.63672 13.867H18.4587" stroke="white" stroke-width="1.5" stroke-linecap="round" stroke-linejoin="round"/>
<path d="M2.41382 2.88801C2.87995 2.88801 3.25782 2.51014 3.25782 2.04401C3.25782 1.57788 2.87995 1.20001 2.41382 1.20001C1.9477 1.20001 1.56982 1.57788 1.56982 2.04401C1.56982 2.51014 1.9477 2.88801 2.41382 2.88801Z" stroke="white" stroke-width="1.5" stroke-linecap="round" stroke-linejoin="round"/>
<path d="M2.41382 8.79902C2.87995 8.79902 3.25782 8.42115 3.25782 7.95502C3.25782 7.48889 2.87995 7.11102 2.41382 7.11102C1.9477 7.11102 1.56982 7.48889 1.56982 7.95502C1.56982 8.42115 1.9477 8.79902 2.41382 8.79902Z" stroke="white" stroke-width="1.5" stroke-linecap="round" stroke-linejoin="round"/>
<path d="M2.41382 14.71C2.87995 14.71 3.25782 14.3321 3.25782 13.866C3.25782 13.3999 2.87995 13.022 2.41382 13.022C1.9477 13.022 1.56982 13.3999 1.56982 13.866C1.56982 14.3321 1.9477 14.71 2.41382 14.71Z" stroke="white" stroke-width="1.5" stroke-linecap="round" stroke-linejoin="round"/>
</svg>
