<svg width="18" height="24" viewBox="0 0 18 24" fill="none" xmlns="http://www.w3.org/2000/svg">
<path d="M15.276 8.60625H13.966V6.05825C13.979 5.3652 13.8544 4.67645 13.5993 4.03193C13.3442 3.38741 12.9637 2.79994 12.4799 2.30356C11.996 1.80718 11.4185 1.41177 10.7807 1.14025C10.1429 0.86873 9.45759 0.726498 8.76443 0.7218C8.07127 0.717102 7.38408 0.85003 6.74268 1.11288C6.10128 1.37573 5.51843 1.76328 5.02791 2.25305C4.53739 2.74282 4.14897 3.32509 3.88514 3.96609C3.62132 4.60709 3.48735 5.29408 3.491 5.98725V8.60625H2.182C1.60387 8.60809 1.04994 8.83857 0.641132 9.24738C0.232327 9.65618 0.00184583 10.2101 0 10.7882V21.2632C0.00184583 21.8414 0.232327 22.3953 0.641132 22.8041C1.04994 23.2129 1.60387 23.4434 2.182 23.4452H15.276C15.8541 23.4434 16.4081 23.2129 16.8169 22.8041C17.2257 22.3953 17.4562 21.8414 17.458 21.2632V10.7882C17.4562 10.2101 17.2257 9.65618 16.8169 9.24738C16.4081 8.83857 15.8541 8.60809 15.276 8.60625ZM9.493 15.4152V19.1682C9.49453 19.367 9.42032 19.5589 9.28547 19.7048C9.15062 19.8508 8.96524 19.94 8.767 19.9542C8.66372 19.959 8.56055 19.9427 8.46372 19.9065C8.3669 19.8702 8.27843 19.8147 8.20365 19.7433C8.12888 19.6719 8.06936 19.5861 8.02869 19.491C7.98801 19.396 7.96703 19.2936 7.967 19.1902V15.4142C7.61189 15.2414 7.32585 14.9533 7.15559 14.597C6.98533 14.2407 6.94091 13.8371 7.02958 13.4523C7.11824 13.0674 7.33476 12.724 7.64379 12.4781C7.95281 12.2322 8.33607 12.0983 8.731 12.0983C9.12593 12.0983 9.50919 12.2322 9.81821 12.4781C10.1272 12.724 10.3438 13.0674 10.4324 13.4523C10.5211 13.8371 10.4767 14.2407 10.3064 14.597C10.1362 14.9533 9.85011 15.2414 9.495 15.4142L9.493 15.4152ZM12.439 8.60625H5.019V5.98725C5.019 5.00329 5.40987 4.05964 6.10563 3.36388C6.80139 2.66812 7.74505 2.27725 8.729 2.27725C9.71295 2.27725 10.6566 2.66812 11.3524 3.36388C12.0481 4.05964 12.439 5.00329 12.439 5.98725V8.60625Z" fill="#3ACCCC"/>
</svg>
