<svg width="26" height="26" viewBox="0 0 26 26" fill="none" xmlns="http://www.w3.org/2000/svg">
<path d="M26 13C26 5.8203 20.1797 0 13 0C5.8203 0 0 5.8203 0 13C0 20.1797 5.8203 26 13 26C20.1797 26 26 20.1797 26 13Z" fill="#28C66F" fill-opacity="0.15"/>
<mask id="mask0_556_841" style="mask-type:luminance" maskUnits="userSpaceOnUse" x="7" y="5" width="12" height="16">
<path d="M18.835 5.64307H7.16504V20.3571H18.835V5.64307Z" fill="white"/>
</mask>
<g mask="url(#mask0_556_841)">
<mask id="mask1_556_841" style="mask-type:luminance" maskUnits="userSpaceOnUse" x="7" y="5" width="12" height="16">
<path d="M18.835 5.67188H7.18604V20.3569H18.835V5.67188Z" fill="white"/>
</mask>
<g mask="url(#mask1_556_841)">
<mask id="mask2_556_841" style="mask-type:luminance" maskUnits="userSpaceOnUse" x="7" y="5" width="12" height="16">
<path d="M18.835 5.67188H7.18604V20.3569H18.835V5.67188Z" fill="white"/>
</mask>
<g mask="url(#mask2_556_841)">
<path d="M7.19301 20.3459C7.19301 15.4972 7.19301 10.6489 7.19301 5.80087C7.19301 5.75887 7.16001 5.70087 7.22001 5.67188C7.91501 6.24687 8.61201 6.81887 9.30301 7.39887C9.31884 7.41886 9.33897 7.43501 9.36192 7.44611C9.38487 7.45721 9.41002 7.46297 9.43551 7.46297C9.461 7.46297 9.48616 7.45721 9.50911 7.44611C9.53205 7.43501 9.55219 7.41886 9.56801 7.39887C10.068 6.96787 10.584 6.54688 11.088 6.11487C11.1044 6.09389 11.1253 6.07691 11.1492 6.06524C11.1731 6.05356 11.1994 6.04749 11.226 6.04749C11.2526 6.04749 11.2789 6.05356 11.3028 6.06524C11.3267 6.07691 11.3476 6.09389 11.364 6.11487C11.864 6.54688 12.381 6.96687 12.885 7.39787C12.9007 7.41803 12.9208 7.43433 12.9438 7.44555C12.9667 7.45676 12.992 7.46259 13.0175 7.46259C13.0431 7.46259 13.0683 7.45676 13.0912 7.44555C13.1142 7.43433 13.1343 7.41803 13.15 7.39787C13.65 6.96687 14.167 6.54587 14.671 6.11487C14.771 6.02787 14.838 6.01487 14.946 6.11487C15.446 6.55087 15.956 6.97487 16.459 7.40787C16.4731 7.4263 16.4911 7.44133 16.5117 7.45182C16.5324 7.46232 16.5551 7.46802 16.5783 7.4685C16.6015 7.46898 16.6244 7.46423 16.6455 7.4546C16.6666 7.44497 16.6852 7.4307 16.7 7.41288C17.395 6.83088 18.1 6.25488 18.794 5.67687H18.823C18.823 5.75787 18.833 5.83888 18.833 5.91988C18.833 10.6392 18.833 15.3585 18.833 20.0779C18.833 20.1309 18.833 20.1829 18.833 20.2359C18.838 20.3279 18.798 20.3689 18.707 20.3619C18.669 20.3619 18.631 20.3619 18.592 20.3619H7.39301C7.32601 20.3619 7.26001 20.3549 7.19301 20.3519M11.413 12.0739C11.413 12.7805 11.413 13.4872 11.413 14.1939C11.413 14.3559 11.413 14.5189 11.413 14.6809C11.413 14.7619 11.445 14.8069 11.53 14.8069H12.117C12.1312 14.808 12.1455 14.8061 12.159 14.8013C12.1724 14.7965 12.1846 14.7889 12.1949 14.7789C12.2051 14.769 12.2131 14.7569 12.2183 14.7437C12.2235 14.7304 12.2258 14.7161 12.225 14.7019C12.225 14.6589 12.225 14.6159 12.225 14.5729C12.225 13.9855 12.225 13.3982 12.225 12.8109C12.225 12.5999 12.225 12.5989 12.443 12.5979C12.715 12.5979 12.987 12.5979 13.259 12.5979C13.3831 12.5974 13.5067 12.5816 13.627 12.5509C14.0123 12.4593 14.3509 12.23 14.5787 11.9061C14.8066 11.5822 14.9081 11.186 14.8641 10.7925C14.8201 10.3989 14.6335 10.035 14.3397 9.76942C14.0459 9.50387 13.665 9.35499 13.269 9.35087C12.711 9.34387 12.152 9.35087 11.594 9.35087C11.417 9.35087 11.411 9.35687 11.411 9.53887C11.411 10.3842 11.411 11.2292 11.411 12.0739M12.993 16.7239C14.081 16.7239 15.169 16.7239 16.256 16.7239C16.393 16.7239 16.447 16.6839 16.437 16.5439C16.427 16.4039 16.437 16.2439 16.437 16.0999C16.437 15.8839 16.437 15.8829 16.225 15.8829H9.79701C9.76801 15.8829 9.74001 15.8829 9.71101 15.8829C9.62101 15.8829 9.58001 15.9189 9.58101 16.0099C9.58101 16.1769 9.58101 16.3439 9.58101 16.5099C9.58101 16.7189 9.58101 16.7189 9.78101 16.7189H12.993M13.009 18.5249C14.092 18.5249 15.175 18.5249 16.257 18.5249C16.395 18.5249 16.446 18.4819 16.437 18.3439C16.428 18.2059 16.437 18.0439 16.437 17.8999C16.437 17.6859 16.437 17.6859 16.223 17.6859H9.79501C9.76601 17.6859 9.73801 17.6859 9.70901 17.6859C9.61801 17.6859 9.57901 17.7239 9.58101 17.8149C9.58101 17.9869 9.58101 18.1589 9.58101 18.3299C9.58101 18.5189 9.58101 18.5219 9.77401 18.5219H13.009" fill="#29C46F"/>
<path d="M12.7961 11.7811C12.6531 11.7811 12.5101 11.7811 12.3671 11.7811C12.2741 11.7811 12.2261 11.7451 12.2271 11.6461C12.2271 11.1981 12.2271 10.7501 12.2271 10.3021C12.2271 10.2101 12.2711 10.1721 12.3571 10.1721C12.7045 10.1571 13.0526 10.1645 13.3991 10.1941C13.5811 10.2276 13.7457 10.3236 13.8646 10.4655C13.9834 10.6074 14.049 10.7863 14.0501 10.9714C14.0511 11.1564 13.9876 11.3361 13.8704 11.4793C13.7532 11.6226 13.5897 11.7205 13.4081 11.7561C13.2048 11.7812 12.9997 11.7895 12.7951 11.7811" fill="#29C46F"/>
</g>
</g>
</g>
</svg>
