<svg width="26" height="26" viewBox="0 0 26 26" fill="none" xmlns="http://www.w3.org/2000/svg">
<path d="M26 13C26 5.8203 20.1797 0 13 0C5.8203 0 0 5.8203 0 13C0 20.1797 5.8203 26 13 26C20.1797 26 26 20.1797 26 13Z" fill="#28C66F" fill-opacity="0.15"/>
<path d="M20.763 16.9909L16.963 8.2829C16.9006 8.1339 16.7959 8.00642 16.6619 7.91616C16.528 7.82589 16.3705 7.77679 16.209 7.7749H13.547L13.614 8.4049C13.6172 8.43532 13.614 8.46607 13.6046 8.49517C13.5951 8.52426 13.5797 8.55104 13.5592 8.57377C13.5387 8.5965 13.5137 8.61467 13.4858 8.6271C13.4578 8.63953 13.4276 8.64593 13.397 8.6459H12.603C12.5724 8.64593 12.5421 8.63953 12.5142 8.6271C12.4862 8.61467 12.4612 8.5965 12.4408 8.57377C12.4203 8.55104 12.4048 8.52426 12.3954 8.49517C12.386 8.46607 12.3827 8.43532 12.386 8.4049L12.453 7.7749H9.79797C9.6363 7.77673 9.47869 7.82579 9.34454 7.91605C9.21039 8.00631 9.10557 8.13383 9.04297 8.2829L5.24297 16.9909C5.18285 17.1205 5.15559 17.2628 5.1636 17.4054C5.17161 17.548 5.21465 17.6865 5.2889 17.8085C5.36315 17.9305 5.46633 18.0323 5.58931 18.1049C5.71229 18.1776 5.85128 18.2188 5.99397 18.2249H11.351L11.632 15.5669C11.6431 15.4598 11.6935 15.3607 11.7735 15.2887C11.8535 15.2166 11.9573 15.1768 12.065 15.1769H13.936C14.0436 15.1768 14.1475 15.2166 14.2274 15.2887C14.3074 15.3607 14.3578 15.4598 14.369 15.5669L14.65 18.2249H20.007C20.1501 18.2196 20.2897 18.1789 20.4133 18.1066C20.537 18.0343 20.6408 17.9326 20.7156 17.8105C20.7904 17.6883 20.8339 17.5496 20.8422 17.4066C20.8504 17.2636 20.8232 17.1208 20.763 16.9909ZM12.249 9.7109C12.2548 9.65802 12.2798 9.60911 12.3192 9.57337C12.3586 9.53764 12.4098 9.51756 12.463 9.5169H13.535C13.5888 9.51685 13.6408 9.53674 13.6809 9.57275C13.721 9.60876 13.7463 9.65833 13.752 9.7119L13.877 10.8979C13.8819 10.9435 13.8771 10.9896 13.863 11.0332C13.8489 11.0768 13.8258 11.117 13.7951 11.151C13.7645 11.1851 13.727 11.2123 13.6851 11.2309C13.6432 11.2495 13.5978 11.259 13.552 11.2589H12.452C12.4061 11.259 12.3608 11.2495 12.3189 11.2309C12.277 11.2123 12.2395 11.1851 12.2088 11.151C12.1781 11.117 12.155 11.0768 12.1409 11.0332C12.1268 10.9896 12.1221 10.9435 12.127 10.8979L12.252 9.7119L12.249 9.7109ZM13.749 14.3059H12.249C12.1878 14.3061 12.1274 14.2934 12.0715 14.2687C12.0156 14.2439 11.9655 14.2077 11.9246 14.1623C11.8836 14.1169 11.8527 14.0634 11.8338 14.0053C11.8149 13.9472 11.8085 13.8857 11.815 13.8249L11.953 12.5189C11.9641 12.4118 12.0145 12.3127 12.0945 12.2407C12.1745 12.1686 12.2783 12.1288 12.386 12.1289H13.614C13.7216 12.1288 13.8255 12.1686 13.9054 12.2407C13.9854 12.3127 14.0358 12.4118 14.047 12.5189L14.185 13.8249C14.1914 13.8856 14.185 13.947 14.1662 14.005C14.1474 14.0631 14.1166 14.1166 14.0757 14.1619C14.0349 14.2073 13.9849 14.2436 13.9292 14.2684C13.8734 14.2932 13.813 14.306 13.752 14.3059H13.749Z" fill="#29C56F"/>
</svg>
