<svg width="26" height="26" viewBox="0 0 26 26" fill="none" xmlns="http://www.w3.org/2000/svg">
<path d="M26 13C26 5.8203 20.1797 0 13 0C5.8203 0 0 5.8203 0 13C0 20.1797 5.8203 26 13 26C20.1797 26 26 20.1797 26 13Z" fill="#28C66F" fill-opacity="0.15"/>
<path d="M13.0001 4.75L6.25005 7.75V12.25C6.24335 14.2801 6.89872 16.2571 8.1168 17.8812C9.33488 19.5053 11.0493 20.688 13.0001 21.25C14.9508 20.688 16.6652 19.5053 17.8833 17.8812C19.1014 16.2571 19.7567 14.2801 19.7501 12.25V7.75L13.0001 4.75ZM13.0001 12.993H18.2501C18.0921 14.4908 17.5161 15.914 16.5877 17.1C15.6594 18.286 14.4161 19.187 13.0001 19.7V13H7.75005V8.725L13.0001 6.392V12.993Z" fill="#29C56F"/>
</svg>
