<svg width="18" height="18" viewBox="0 0 18 18" fill="none" xmlns="http://www.w3.org/2000/svg">
<path d="M7.522 1C6.23207 1 4.97111 1.38251 3.89857 2.09915C2.82603 2.8158 1.9901 3.8344 1.49646 5.02614C1.00283 6.21788 0.873668 7.52924 1.12532 8.79438C1.37697 10.0595 1.99813 11.2216 2.91025 12.1338C3.82237 13.0459 4.98448 13.667 6.24962 13.9187C7.51476 14.1703 8.82612 14.0412 10.0179 13.5475C11.2096 13.0539 12.2282 12.218 12.9448 11.1454C13.6615 10.0729 14.044 8.81193 14.044 7.522C14.044 6.66552 13.8753 5.81742 13.5475 5.02614C13.2198 4.23485 12.7394 3.51587 12.1338 2.91025C11.5281 2.30462 10.8091 1.82422 10.0179 1.49646C9.22658 1.1687 8.37849 1 7.522 1Z" stroke="#1E1E1E" stroke-width="1.5" stroke-miterlimit="10"/>
<path d="M12.3879 12.3879L16.9429 16.9429" stroke="#1E1E1E" stroke-width="1.5" stroke-miterlimit="10" stroke-linecap="round"/>
</svg>
