<svg width="20" height="14" viewBox="0 0 20 14" fill="none" xmlns="http://www.w3.org/2000/svg">
<path d="M19.8852 6.534C17.6272 2.245 13.8612 0 10.0002 0C6.13922 0 2.37322 2.245 0.115215 6.534C0.0395444 6.67767 0 6.83762 0 7C0 7.16238 0.0395444 7.32233 0.115215 7.466C2.37322 11.755 6.13922 14 10.0002 14C13.8612 14 17.6272 11.755 19.8852 7.466C19.9609 7.32233 20.0004 7.16238 20.0004 7C20.0004 6.83762 19.9609 6.67767 19.8852 6.534Z" fill="#EFEFEF"/>
<path d="M10 4C9.40666 4 8.82664 4.17595 8.33329 4.50559C7.83994 4.83524 7.45543 5.30377 7.22836 5.85195C7.0013 6.40013 6.94189 7.00333 7.05765 7.58527C7.1734 8.16721 7.45912 8.70176 7.87868 9.12132C8.29824 9.54088 8.83279 9.8266 9.41473 9.94236C9.99667 10.0581 10.5999 9.9987 11.1481 9.77164C11.6962 9.54458 12.1648 9.16006 12.4944 8.66671C12.8241 8.17336 13 7.59334 13 7C13 6.20435 12.6839 5.44129 12.1213 4.87868C11.5587 4.31607 10.7957 4 10 4Z" fill="white"/>
</svg>
