<svg width="26" height="26" viewBox="0 0 26 26" fill="none" xmlns="http://www.w3.org/2000/svg">
<path d="M26 13C26 5.8203 20.1797 0 13 0C5.8203 0 0 5.8203 0 13C0 20.1797 5.8203 26 13 26C20.1797 26 26 20.1797 26 13Z" fill="#28C66F" fill-opacity="0.15"/>
<path d="M14.101 10.5201L13.931 11.271C13.841 11.671 13.753 12.066 13.66 12.462C13.6511 12.4917 13.6504 12.5232 13.6577 12.5533C13.6651 12.5833 13.6804 12.6108 13.702 12.633C14.279 13.311 14.853 13.991 15.43 14.669C15.5078 14.7594 15.5603 14.8688 15.582 14.9861C15.728 15.7527 15.8733 16.5194 16.018 17.2861C16.037 17.3861 16.061 17.4861 16.075 17.5931C16.1071 17.7739 16.0682 17.9601 15.9663 18.1129C15.8644 18.2657 15.7074 18.3732 15.5281 18.4129C15.3488 18.4527 15.1611 18.4216 15.0042 18.3262C14.8472 18.2308 14.7332 18.0785 14.686 17.901C14.638 17.739 14.615 17.57 14.586 17.401C14.4593 16.7444 14.3333 16.0877 14.208 15.431C14.2033 15.3999 14.1898 15.3707 14.169 15.3471L12.735 13.7701C12.7294 13.7651 12.7234 13.7608 12.717 13.7571C12.693 13.7681 12.694 13.7921 12.69 13.8121C12.582 14.3041 12.4743 14.7964 12.367 15.289C12.3339 15.4134 12.2809 15.5316 12.2099 15.639C11.7346 16.4457 11.2573 17.2511 10.778 18.0551C10.7136 18.1765 10.6146 18.276 10.4935 18.341C10.3724 18.406 10.2347 18.4335 10.0979 18.4201C9.96954 18.4132 9.84567 18.3702 9.74059 18.2961C9.63551 18.222 9.55348 18.1197 9.50396 18.001C9.453 17.8902 9.43157 17.768 9.44173 17.6464C9.45189 17.5248 9.49332 17.4079 9.56197 17.307C9.94397 16.665 10.322 16.021 10.711 15.383C10.83 15.1867 10.9152 14.9717 10.963 14.7471C11.2963 13.2451 11.6333 11.7451 11.974 10.2471C11.98 10.2211 11.984 10.195 11.992 10.152L11.626 10.4461C11.537 10.5171 11.451 10.592 11.359 10.66C11.3067 10.6962 11.2708 10.7516 11.259 10.814C11.139 11.371 11.019 11.927 10.895 12.483C10.8832 12.5509 10.8571 12.6155 10.8185 12.6725C10.7799 12.7295 10.7297 12.7776 10.671 12.8138C10.6124 12.8499 10.5468 12.8731 10.4785 12.882C10.4102 12.8908 10.3408 12.8851 10.275 12.8651C10.1623 12.8308 10.0666 12.7554 10.007 12.6539C9.94732 12.5524 9.92804 12.4321 9.95296 12.3171C10.1036 11.6331 10.256 10.9494 10.41 10.2661C10.4317 10.163 10.4887 10.0707 10.571 10.005C11.263 9.44505 11.951 8.88006 12.647 8.32606C12.772 8.22464 12.9184 8.15291 13.0752 8.11628C13.232 8.07965 13.395 8.07908 13.5521 8.1146C13.7091 8.15013 13.856 8.22082 13.9817 8.32136C14.1075 8.42191 14.2088 8.54968 14.278 8.69505C14.6006 9.33372 14.9223 9.97271 15.243 10.612C15.2736 10.675 15.3201 10.7287 15.3779 10.768C15.8206 11.07 16.2623 11.3737 16.703 11.6791C16.7789 11.7289 16.8391 11.7993 16.8765 11.8822C16.9139 11.965 16.9269 12.0567 16.914 12.1466C16.9011 12.2366 16.8628 12.321 16.8036 12.39C16.7445 12.4589 16.6669 12.5096 16.58 12.5361C16.509 12.5589 16.4336 12.5645 16.36 12.5523C16.2864 12.5402 16.2168 12.5106 16.157 12.466C15.648 12.119 15.142 11.766 14.635 11.418C14.5674 11.3698 14.5134 11.3051 14.478 11.2301C14.3713 11.0181 14.2636 10.8064 14.155 10.595C14.146 10.5654 14.1269 10.5399 14.101 10.5231" fill="#29C56F"/>
<path d="M12.996 20.215H6.11199C6.08299 20.215 6.05399 20.215 6.02499 20.215C5.97199 20.215 5.95099 20.195 5.95099 20.142C5.95099 19.71 5.95099 19.2767 5.95099 18.842C5.95099 18.777 5.98699 18.767 6.03799 18.764C6.22699 18.754 6.41499 18.742 6.60399 18.733C6.87962 18.7129 7.15636 18.7129 7.43199 18.733C7.67531 18.7454 7.91202 18.8164 8.12199 18.94C8.15735 18.9616 8.19877 18.971 8.23999 18.967C8.68899 18.948 9.13999 18.95 9.58599 18.959C9.89899 18.966 10.212 18.969 10.524 18.965C10.924 18.96 11.333 18.934 11.737 18.903C12.0977 18.8812 12.4593 18.8812 12.82 18.903C13.4487 18.951 14.0802 18.951 14.709 18.903C14.988 18.872 15.265 18.819 15.547 18.813C15.719 18.813 15.891 18.807 16.063 18.813C16.327 18.823 16.592 18.818 16.856 18.803C16.9044 18.7976 16.9513 18.7826 16.994 18.759C17.1344 18.6924 17.2867 18.6543 17.442 18.647C17.9794 18.6146 18.5183 18.6126 19.056 18.641C19.356 18.656 19.656 18.679 19.956 18.703C20.016 18.703 20.056 18.713 20.056 18.794C20.056 19.243 20.056 19.694 20.056 20.14C20.056 20.194 20.033 20.214 19.981 20.211C19.952 20.211 19.923 20.211 19.894 20.211H12.996" fill="#29C56F"/>
<path d="M14.689 6.84819C14.6874 7.05682 14.6241 7.26031 14.507 7.43298C14.3898 7.60565 14.2241 7.73975 14.0309 7.81836C13.8376 7.89697 13.6254 7.91657 13.421 7.87468C13.2166 7.8328 13.0292 7.73129 12.8824 7.583C12.7357 7.4347 12.6361 7.24625 12.5964 7.04143C12.5566 6.83661 12.5784 6.6246 12.6591 6.43216C12.7397 6.23972 12.8755 6.07548 13.0494 5.96016C13.2233 5.84483 13.4273 5.7836 13.636 5.78418C13.9162 5.78734 14.1839 5.9008 14.381 6.09997C14.5781 6.29914 14.6888 6.56797 14.689 6.84819Z" fill="#29C56F"/>
</svg>
