<svg width="26" height="26" viewBox="0 0 26 26" fill="none" xmlns="http://www.w3.org/2000/svg">
<path d="M26 13C26 5.8203 20.1797 0 13 0C5.8203 0 0 5.8203 0 13C0 20.1797 5.8203 26 13 26C20.1797 26 26 20.1797 26 13Z" fill="#28C66F" fill-opacity="0.15"/>
<mask id="mask0_556_818" style="mask-type:luminance" maskUnits="userSpaceOnUse" x="4" y="4" width="18" height="18">
<path d="M21.194 4.36719H4.80603V21.6332H21.194V4.36719Z" fill="white"/>
</mask>
<g mask="url(#mask0_556_818)">
<path d="M14.148 21.6323H11.856C11.7286 21.58 11.6222 21.4867 11.5536 21.3672C11.4849 21.2477 11.458 21.1088 11.477 20.9723C11.492 20.1803 11.477 19.3883 11.477 18.5953V18.3953H11.267C10.067 18.3953 8.87401 18.3953 7.67701 18.3953C7.58771 18.3983 7.49876 18.3829 7.41567 18.35C7.33258 18.3172 7.25714 18.2676 7.19401 18.2043C6.47401 17.5143 5.74801 16.8263 5.02601 16.1333C4.9575 16.0849 4.90161 16.0208 4.86303 15.9463C4.82446 15.8719 4.80432 15.7892 4.80432 15.7053C4.80432 15.6215 4.82446 15.5388 4.86303 15.4643C4.90161 15.3899 4.9575 15.3257 5.02601 15.2773C5.73201 14.6013 6.44201 13.9293 7.14301 13.2483C7.22097 13.1689 7.31452 13.1065 7.41778 13.065C7.52105 13.0236 7.63178 13.0039 7.74301 13.0073C8.91701 13.0133 10.091 13.0073 11.265 13.0073H11.465V11.5173H11.257C9.77401 11.5173 8.29101 11.5073 6.80801 11.5233C6.72047 11.5339 6.63168 11.5243 6.54838 11.4955C6.46507 11.4666 6.38942 11.4191 6.32717 11.3567C6.26492 11.2942 6.2177 11.2185 6.18909 11.1351C6.16047 11.0517 6.15121 10.9628 6.16201 10.8753C6.17201 9.52134 6.16201 8.16734 6.16201 6.81234C6.16201 6.31234 6.34001 6.13034 6.84001 6.13034H11.277C11.342 6.13034 11.406 6.12434 11.484 6.12134C11.484 5.69334 11.484 5.28434 11.484 4.87434C11.4826 4.8083 11.4947 4.74267 11.5193 4.68139C11.5439 4.62012 11.5807 4.56445 11.6274 4.51775C11.6741 4.47105 11.7298 4.43427 11.7911 4.40962C11.8523 4.38498 11.918 4.37297 11.984 4.37434C12.6653 4.36967 13.345 4.36734 14.023 4.36734C14.0883 4.36573 14.1532 4.37723 14.2139 4.40116C14.2746 4.42509 14.33 4.46096 14.3766 4.50665C14.4232 4.55234 14.4602 4.60692 14.4853 4.66715C14.5105 4.72739 14.5233 4.79206 14.523 4.85734C14.531 5.21634 14.523 5.57634 14.523 5.93634C14.523 5.99634 14.523 6.05534 14.523 6.12834H14.747C15.899 6.12834 17.047 6.13434 18.202 6.12834C18.3323 6.12401 18.4619 6.14725 18.5826 6.19654C18.7032 6.24583 18.8121 6.32005 18.902 6.41434C19.543 7.04433 20.202 7.65833 20.846 8.28333C20.972 8.40533 21.076 8.55134 21.191 8.68334V8.95334C21.1045 9.08197 21.0089 9.20428 20.905 9.31934C20.219 9.98334 19.523 10.6383 18.837 11.3023C18.7669 11.3743 18.6826 11.4308 18.5895 11.4683C18.4963 11.5058 18.3964 11.5236 18.296 11.5203C17.105 11.5143 15.914 11.5203 14.723 11.5203H14.532V13.0093H19.206C19.648 13.0093 19.841 13.2093 19.841 13.6493C19.841 15.0203 19.835 16.3913 19.841 17.7623C19.8509 17.8486 19.8412 17.9361 19.8126 18.0181C19.784 18.1002 19.7372 18.1747 19.6758 18.2361C19.6143 18.2975 19.5398 18.3443 19.4578 18.3729C19.3758 18.4015 19.2883 18.4112 19.202 18.4013C17.714 18.3863 16.225 18.3953 14.736 18.3953H14.523V18.5953C14.523 19.3873 14.514 20.1803 14.523 20.9723C14.5418 21.1086 14.5147 21.2473 14.4461 21.3666C14.3775 21.4859 14.2713 21.579 14.144 21.6313M19.944 8.81434C19.875 8.75734 19.82 8.71433 19.772 8.67234C19.284 8.20734 18.795 7.74334 18.311 7.27234C18.275 7.23446 18.2313 7.2047 18.1828 7.18505C18.1343 7.16539 18.0823 7.15628 18.03 7.15833C14.4807 7.15833 10.931 7.15833 7.38101 7.15833H7.21201V10.4973H15.678C16.47 10.4973 17.262 10.4973 18.054 10.4973C18.1256 10.5009 18.1962 10.4797 18.254 10.4373C18.815 9.91134 19.37 9.37834 19.954 8.81834M18.798 14.0493C18.747 14.0493 18.714 14.0433 18.681 14.0433C15.0977 14.0433 11.5143 14.0433 7.93101 14.0433C7.85016 14.0474 7.77317 14.0792 7.71301 14.1333C7.19701 14.6173 6.68701 15.1083 6.17501 15.5973C6.14001 15.6303 6.11001 15.6683 6.07501 15.7103C6.62601 16.2363 7.16301 16.7543 7.70901 17.2643C7.7827 17.3267 7.8755 17.362 7.97201 17.3643C11.5213 17.3697 15.071 17.3697 18.621 17.3643H18.801L18.798 14.0493ZM13.49 18.4103H12.511V20.5973H13.49V18.4103ZM12.513 12.9963H13.489V11.5263H12.513V12.9963ZM13.491 5.40434H12.514V6.12134H13.491V5.40434Z" fill="#29C56F"/>
</g>
</svg>
