<svg width="386" height="88" viewBox="0 0 386 88" fill="none" xmlns="http://www.w3.org/2000/svg">
<path d="M36.2853 31.1818C35.9743 28.5549 34.7127 26.5156 32.5005 25.0639C30.2884 23.6122 27.5751 22.8864 24.3606 22.8864C22.0102 22.8864 19.9537 23.2666 18.1909 24.027C16.4454 24.7874 15.0801 25.833 14.095 27.1637C13.1272 28.4944 12.6433 30.0066 12.6433 31.7003C12.6433 33.1174 12.9803 34.3358 13.6543 35.3555C14.3456 36.3578 15.227 37.196 16.2985 37.87C17.37 38.5268 18.4933 39.0711 19.6685 39.5032C20.8437 39.918 21.9238 40.255 22.9089 40.5142L28.301 41.9659C29.6835 42.3288 31.2217 42.83 32.9153 43.4695C34.6262 44.1089 36.2594 44.9817 37.8148 46.0877C39.3875 47.1765 40.6837 48.5763 41.7033 50.2873C42.723 51.9982 43.2328 54.098 43.2328 56.5866C43.2328 59.4555 42.481 62.0478 40.9775 64.3636C39.4912 66.6795 37.3136 68.52 34.4448 69.8853C31.5932 71.2506 28.1281 71.9332 24.0495 71.9332C20.2475 71.9332 16.9552 71.3197 14.1728 70.0927C11.4076 68.8656 9.23005 67.1547 7.64009 64.9599C6.06741 62.765 5.17738 60.2159 4.96999 57.3125H11.6064C11.7792 59.3172 12.4532 60.9763 13.6284 62.2898C14.8208 63.5859 16.3244 64.5537 18.139 65.1932C19.9709 65.8153 21.9411 66.1264 24.0495 66.1264C26.5036 66.1264 28.7071 65.7289 30.66 64.9339C32.6129 64.1217 34.1596 62.9983 35.3002 61.5639C36.4409 60.1122 37.0112 58.4186 37.0112 56.483C37.0112 54.7202 36.5186 53.2857 35.5336 52.1797C34.5485 51.0736 33.2523 50.175 31.6451 49.4837C30.0378 48.7924 28.301 48.1875 26.4345 47.669L19.9018 45.8026C15.7541 44.6101 12.4705 42.9078 10.051 40.6957C7.63145 38.4835 6.4217 35.5888 6.4217 32.0114C6.4217 29.0388 7.22532 26.4465 8.83256 24.2344C10.4571 22.005 12.6346 20.2768 15.3652 19.0497C18.1131 17.8054 21.1807 17.1832 24.568 17.1832C27.9899 17.1832 31.0315 17.7968 33.693 19.0238C36.3545 20.2335 38.4629 21.8926 40.0183 24.0011C41.591 26.1095 42.4205 28.5031 42.5069 31.1818H36.2853ZM55.9806 71H49.2405L68.7348 17.9091H75.3712L94.8655 71H88.1254L72.2604 26.3082H71.8456L55.9806 71ZM58.4692 50.2614H85.6368V55.9645H58.4692V50.2614ZM103.135 71V17.9091H121.074C125.222 17.9091 128.626 18.6177 131.288 20.0348C133.949 21.4347 135.919 23.3616 137.198 25.8157C138.477 28.2698 139.117 31.0608 139.117 34.1889C139.117 37.317 138.477 40.0908 137.198 42.5103C135.919 44.9298 133.958 46.8308 131.314 48.2134C128.669 49.5787 125.291 50.2614 121.178 50.2614H106.661V44.4545H120.97C123.805 44.4545 126.086 44.0398 127.814 43.2102C129.56 42.3807 130.821 41.2055 131.599 39.6847C132.394 38.1465 132.791 36.3146 132.791 34.1889C132.791 32.0632 132.394 30.2054 131.599 28.6154C130.804 27.0254 129.534 25.7984 127.788 24.9343C126.043 24.0529 123.735 23.6122 120.867 23.6122H109.564V71H103.135ZM128.125 47.1506L141.19 71H133.725L120.867 47.1506H128.125Z" fill="#001F3F"/>
<path d="M178.863 31.1818C178.552 28.5549 177.291 26.5156 175.079 25.0639C172.867 23.6122 170.153 22.8864 166.939 22.8864C164.588 22.8864 162.532 23.2666 160.769 24.027C159.023 24.7874 157.658 25.833 156.673 27.1637C155.705 28.4944 155.221 30.0066 155.221 31.7003C155.221 33.1174 155.558 34.3358 156.232 35.3555C156.924 36.3578 157.805 37.196 158.877 37.87C159.948 38.5268 161.071 39.0711 162.247 39.5032C163.422 39.918 164.502 40.255 165.487 40.5142L170.879 41.9659C172.262 42.3288 173.8 42.83 175.493 43.4695C177.204 44.1089 178.838 44.9817 180.393 46.0877C181.966 47.1765 183.262 48.5763 184.281 50.2873C185.301 51.9982 185.811 54.098 185.811 56.5866C185.811 59.4555 185.059 62.0478 183.556 64.3636C182.069 66.6795 179.892 68.52 177.023 69.8853C174.171 71.2506 170.706 71.9332 166.628 71.9332C162.826 71.9332 159.533 71.3197 156.751 70.0927C153.986 68.8656 151.808 67.1547 150.218 64.9599C148.646 62.765 147.756 60.2159 147.548 57.3125H154.184C154.357 59.3172 155.031 60.9763 156.206 62.2898C157.399 63.5859 158.903 64.5537 160.717 65.1932C162.549 65.8153 164.519 66.1264 166.628 66.1264C169.082 66.1264 171.285 65.7289 173.238 64.9339C175.191 64.1217 176.738 62.9983 177.878 61.5639C179.019 60.1122 179.589 58.4186 179.589 56.483C179.589 54.7202 179.097 53.2857 178.112 52.1797C177.127 51.0736 175.83 50.175 174.223 49.4837C172.616 48.7924 170.879 48.1875 169.013 47.669L162.48 45.8026C158.332 44.6101 155.049 42.9078 152.629 40.6957C150.21 38.4835 149 35.5888 149 32.0114C149 29.0388 149.803 26.4465 151.411 24.2344C153.035 22.005 155.213 20.2768 157.943 19.0497C160.691 17.8054 163.759 17.1832 167.146 17.1832C170.568 17.1832 173.61 17.7968 176.271 19.0238C178.933 20.2335 181.041 21.8926 182.596 24.0011C184.169 26.1095 184.999 28.5031 185.085 31.1818H178.863ZM211.728 71.8295C207.995 71.8295 204.78 70.9482 202.084 69.1854C199.388 67.4226 197.314 64.9944 195.863 61.9009C194.411 58.8074 193.685 55.2732 193.685 51.2983C193.685 47.2543 194.428 43.6855 195.915 40.592C197.418 37.4812 199.509 35.053 202.188 33.3075C204.884 31.5447 208.029 30.6634 211.624 30.6634C214.424 30.6634 216.947 31.1818 219.194 32.2188C221.44 33.2557 223.281 34.7074 224.715 36.5739C226.15 38.4403 227.04 40.6179 227.385 43.1065H221.267C220.801 41.2919 219.764 39.6847 218.157 38.2848C216.567 36.8677 214.424 36.1591 211.728 36.1591C209.343 36.1591 207.252 36.7812 205.454 38.0256C203.674 39.2526 202.283 40.9895 201.281 43.2361C200.296 45.4656 199.803 48.0838 199.803 51.0909C199.803 54.1671 200.287 56.8459 201.255 59.1271C202.24 61.4084 203.622 63.1798 205.402 64.4414C207.2 65.703 209.308 66.3338 211.728 66.3338C213.318 66.3338 214.761 66.0573 216.057 65.5043C217.353 64.9512 218.45 64.1562 219.349 63.1193C220.248 62.0824 220.887 60.8381 221.267 59.3864H227.385C227.04 61.7367 226.184 63.8538 224.819 65.7376C223.471 67.604 221.682 69.0903 219.453 70.1964C217.241 71.2852 214.666 71.8295 211.728 71.8295ZM252.505 71.8295C248.91 71.8295 245.756 70.9741 243.043 69.2631C240.347 67.5522 238.239 65.1586 236.718 62.0824C235.214 59.0062 234.462 55.4115 234.462 51.2983C234.462 47.1506 235.214 43.5299 236.718 40.4364C238.239 37.3429 240.347 34.9407 243.043 33.2298C245.756 31.5188 248.91 30.6634 252.505 30.6634C256.1 30.6634 259.245 31.5188 261.941 33.2298C264.654 34.9407 266.763 37.3429 268.266 40.4364C269.787 43.5299 270.548 47.1506 270.548 51.2983C270.548 55.4115 269.787 59.0062 268.266 62.0824C266.763 65.1586 264.654 67.5522 261.941 69.2631C259.245 70.9741 256.1 71.8295 252.505 71.8295ZM252.505 66.3338C255.236 66.3338 257.482 65.6339 259.245 64.234C261.008 62.8342 262.313 60.9936 263.16 58.7124C264.006 56.4311 264.43 53.9598 264.43 51.2983C264.43 48.6368 264.006 46.1568 263.16 43.8583C262.313 41.5598 261.008 39.7019 259.245 38.2848C257.482 36.8677 255.236 36.1591 252.505 36.1591C249.774 36.1591 247.528 36.8677 245.765 38.2848C244.002 39.7019 242.697 41.5598 241.851 43.8583C241.004 46.1568 240.58 48.6368 240.58 51.2983C240.58 53.9598 241.004 56.4311 241.851 58.7124C242.697 60.9936 244.002 62.8342 245.765 64.234C247.528 65.6339 249.774 66.3338 252.505 66.3338ZM279.887 71V31.1818H285.797V37.196H286.212C286.938 35.2259 288.251 33.6272 290.152 32.4002C292.053 31.1732 294.196 30.5597 296.581 30.5597C297.03 30.5597 297.592 30.5683 298.266 30.5856C298.94 30.6029 299.45 30.6288 299.796 30.6634V36.8849C299.588 36.8331 299.113 36.7553 298.37 36.6516C297.644 36.5307 296.875 36.4702 296.063 36.4702C294.127 36.4702 292.399 36.8763 290.878 37.6886C289.374 38.4835 288.182 39.5896 287.301 41.0067C286.436 42.4066 286.004 44.0052 286.004 45.8026V71H279.887ZM322.53 71.8295C318.694 71.8295 315.384 70.9827 312.602 69.2891C309.837 67.5781 307.702 65.1932 306.199 62.1342C304.712 59.058 303.969 55.4806 303.969 51.402C303.969 47.3234 304.712 43.7287 306.199 40.6179C307.702 37.4898 309.793 35.053 312.472 33.3075C315.168 31.5447 318.314 30.6634 321.908 30.6634C323.982 30.6634 326.03 31.009 328.052 31.7003C330.074 32.3916 331.915 33.5149 333.574 35.0703C335.233 36.6084 336.555 38.6477 337.54 41.1882C338.525 43.7287 339.018 46.8568 339.018 50.5724V53.1648H308.324V47.8764H332.796C332.796 45.6297 332.347 43.625 331.448 41.8622C330.567 40.0994 329.305 38.7082 327.663 37.6886C326.039 36.6689 324.12 36.1591 321.908 36.1591C319.471 36.1591 317.363 36.764 315.583 37.9737C313.82 39.1662 312.463 40.7216 311.513 42.6399C310.562 44.5582 310.087 46.6148 310.087 48.8097V52.3352C310.087 55.3423 310.606 57.8915 311.643 59.9826C312.697 62.0565 314.157 63.6378 316.024 64.7266C317.89 65.7981 320.059 66.3338 322.53 66.3338C324.138 66.3338 325.589 66.1091 326.885 65.6598C328.199 65.1932 329.331 64.5019 330.281 63.5859C331.232 62.6527 331.966 61.4948 332.485 60.1122L338.395 61.7713C337.773 63.776 336.728 65.5388 335.259 67.0597C333.79 68.5632 331.975 69.7384 329.815 70.5852C327.655 71.4148 325.226 71.8295 322.53 71.8295Z" fill="#39CCCC"/>
<path d="M376.682 22.9659L371.704 11.7273H373.719L377.201 19.973L380.682 11.7273H382.698L377.72 22.9659H376.682ZM371.337 22.9659V11.7273H373.292V22.9659H371.337ZM381.11 22.9659V11.7273H383.064V22.9659H381.11ZM364.008 22.9659V12.7045H365.962V22.9659H364.008ZM360.587 13.4375V11.7273H369.383V13.4375H360.587Z" fill="#001F3F"/>
</svg>
