<svg width="26" height="26" viewBox="0 0 26 26" fill="none" xmlns="http://www.w3.org/2000/svg">
<path d="M26 13C26 5.8203 20.1797 0 13 0C5.8203 0 0 5.8203 0 13C0 20.1797 5.8203 26 13 26C20.1797 26 26 20.1797 26 13Z" fill="#28C66F" fill-opacity="0.15"/>
<path d="M13.002 20.0308C11.6004 20.0308 10.2308 19.612 9.06894 18.828C7.9071 18.044 7.00608 16.9307 6.48157 15.6309C5.95706 14.3311 5.833 12.9042 6.1253 11.5334C6.41761 10.1627 7.11295 8.91051 8.12204 7.93776C8.23149 7.84466 8.37234 7.79684 8.51584 7.80407C8.65935 7.81129 8.79468 7.87302 8.89422 7.97664C8.99376 8.08026 9.05 8.21797 9.05145 8.36165C9.0529 8.50533 8.99946 8.64414 8.90204 8.74976C7.93358 9.6834 7.31325 10.92 7.14387 12.2545C6.9745 13.589 7.26625 14.9413 7.97077 16.0873C8.67528 17.2333 9.75026 18.1041 11.0175 18.5554C12.2848 19.0067 13.6682 19.0114 14.9385 18.5687C16.2088 18.126 17.2896 17.2626 18.0019 16.1214C18.7142 14.9802 19.0152 13.6299 18.8549 12.2943C18.6946 10.9587 18.0827 9.71792 17.1206 8.77771C16.1585 7.8375 14.904 7.25429 13.565 7.12476V9.32476C13.565 9.47487 13.5054 9.61883 13.3993 9.72498C13.2931 9.83113 13.1492 9.89076 12.999 9.89076C12.8489 9.89076 12.705 9.83113 12.5988 9.72498C12.4927 9.61883 12.433 9.47487 12.433 9.32476V6.53476C12.433 6.46018 12.4478 6.38633 12.4764 6.31746C12.505 6.2486 12.547 6.18607 12.5999 6.13347C12.6528 6.08087 12.7155 6.03925 12.7845 6.01098C12.8535 5.98271 12.9275 5.96836 13.002 5.96876C14.8668 5.96876 16.6551 6.70952 17.9737 8.02809C19.2923 9.34666 20.033 11.135 20.033 12.9998C20.033 14.8645 19.2923 16.6529 17.9737 17.9714C16.6551 19.29 14.8668 20.0308 13.002 20.0308Z" fill="#28C66F"/>
<path d="M10.1861 9.69169L13.6861 12.2057C13.9145 12.3688 14.0689 12.616 14.1151 12.8929C14.1613 13.1698 14.0957 13.4537 13.9326 13.6822C13.7694 13.9107 13.5223 14.065 13.2454 14.1112C12.9685 14.1575 12.6845 14.0918 12.4561 13.9287C12.3606 13.8613 12.2774 13.7781 12.2101 13.6827L9.69606 10.1827C9.64801 10.1147 9.62555 10.0319 9.63263 9.94896C9.6397 9.86601 9.67587 9.78824 9.73474 9.72937C9.79361 9.6705 9.87139 9.63433 9.95434 9.62726C10.0373 9.62018 10.1201 9.64264 10.1881 9.69069L10.1861 9.69169Z" fill="#28C66F"/>
</svg>
