<svg width="26" height="26" viewBox="0 0 26 26" fill="none" xmlns="http://www.w3.org/2000/svg">
<path d="M26 13C26 5.8203 20.1797 0 13 0C5.8203 0 0 5.8203 0 13C0 20.1797 5.8203 26 13 26C20.1797 26 26 20.1797 26 13Z" fill="#28C66F" fill-opacity="0.15"/>
<path d="M13 5.875C10 5.875 7 6.25 7 8.875V16C7.00079 16.6959 7.27761 17.3632 7.76972 17.8553C8.26183 18.3474 8.92905 18.6242 9.625 18.625L8.5 19.75V20.125H10.173L11.673 18.625H14.5L16 20.125H17.5V19.75L16.375 18.625C17.0709 18.6242 17.7382 18.3474 18.2303 17.8553C18.7224 17.3632 18.9992 16.6959 19 16V8.875C19 6.25 16.315 5.875 13 5.875ZM9.625 17.125C9.4025 17.125 9.18499 17.059 8.99998 16.9354C8.81498 16.8118 8.67078 16.6361 8.58564 16.4305C8.50049 16.225 8.47821 15.9988 8.52162 15.7805C8.56502 15.5623 8.67217 15.3618 8.8295 15.2045C8.98684 15.0472 9.18729 14.94 9.40552 14.8966C9.62375 14.8532 9.84995 14.8755 10.0555 14.9606C10.2611 15.0458 10.4368 15.19 10.5604 15.375C10.684 15.56 10.75 15.7775 10.75 16C10.7503 16.1478 10.7213 16.2942 10.6649 16.4308C10.6085 16.5674 10.5256 16.6916 10.4211 16.7961C10.3166 16.9006 10.1924 16.9835 10.0558 17.0399C9.91922 17.0963 9.77281 17.1253 9.625 17.125ZM12.25 11.875H8.5V8.875H12.25V11.875ZM13.75 11.875V8.875H17.5V11.875H13.75ZM16.375 17.125C16.1525 17.125 15.935 17.059 15.75 16.9354C15.565 16.8118 15.4208 16.6361 15.3356 16.4305C15.2505 16.225 15.2282 15.9988 15.2716 15.7805C15.315 15.5623 15.4222 15.3618 15.5795 15.2045C15.7368 15.0472 15.9373 14.94 16.1555 14.8966C16.3738 14.8532 16.6 14.8755 16.8055 14.9606C17.0111 15.0458 17.1868 15.19 17.3104 15.375C17.434 15.56 17.5 15.7775 17.5 16C17.5003 16.1478 17.4713 16.2942 17.4149 16.4308C17.3585 16.5674 17.2756 16.6916 17.1711 16.7961C17.0666 16.9006 16.9424 16.9835 16.8058 17.0399C16.6692 17.0963 16.5228 17.1253 16.375 17.125Z" fill="#29C56F"/>
</svg>
