<svg width="10" height="14" viewBox="0 0 10 14" fill="none" xmlns="http://www.w3.org/2000/svg">
<path d="M7.43146 0.545454H8.57635V6.8054C8.57635 7.4517 8.42401 8.02876 8.11932 8.53658C7.81771 9.04131 7.39145 9.43987 6.84055 9.73224C6.28965 10.0215 5.64335 10.1662 4.90163 10.1662C4.15992 10.1662 3.51361 10.0215 2.96271 9.73224C2.41181 9.43987 1.98402 9.04131 1.67933 8.53658C1.37772 8.02876 1.22692 7.4517 1.22692 6.8054V0.545454H2.3718V6.71307C2.3718 7.17472 2.47337 7.58558 2.67649 7.94567C2.87962 8.30268 3.16892 8.58428 3.54439 8.79048C3.92294 8.99361 4.37536 9.09517 4.90163 9.09517C5.42791 9.09517 5.88033 8.99361 6.25888 8.79048C6.63743 8.58428 6.92673 8.30268 7.12678 7.94567C7.3299 7.58558 7.43146 7.17472 7.43146 6.71307V0.545454Z" fill="#656565"/>
<path d="M0.0820312 12.5852H9.72124V13.4716H0.0820312V12.5852Z" fill="#656565"/>
</svg>
