<svg width="26" height="26" viewBox="0 0 26 26" fill="none" xmlns="http://www.w3.org/2000/svg">
<path d="M26 13C26 5.8203 20.1797 0 13 0C5.8203 0 0 5.8203 0 13C0 20.1797 5.8203 26 13 26C20.1797 26 26 20.1797 26 13Z" fill="#28C66F" fill-opacity="0.15"/>
<path d="M11.686 8.49326C11.9089 8.49326 12.1267 8.42716 12.3121 8.30332C12.4974 8.17949 12.6419 8.00347 12.7272 7.79754C12.8125 7.59161 12.8348 7.36501 12.7913 7.14639C12.7478 6.92777 12.6405 6.72696 12.4829 6.56935C12.3252 6.41174 12.1244 6.3044 11.9058 6.26091C11.6872 6.21743 11.4606 6.23975 11.2547 6.32505C11.0487 6.41035 10.8727 6.5548 10.7489 6.74013C10.6251 6.92546 10.559 7.14336 10.559 7.36626C10.5592 7.66508 10.678 7.95158 10.8893 8.16288C11.1006 8.37417 11.3871 8.49299 11.686 8.49326ZM12.486 18.8243C12.0253 18.8216 11.5697 18.7281 11.1453 18.5491C10.7209 18.37 10.336 18.1089 10.0126 17.7808C9.68934 17.4526 9.43399 17.0639 9.26124 16.6369C9.08849 16.2098 9.00174 15.7529 9.00595 15.2923C9.00602 14.7855 9.11477 14.2847 9.32489 13.8236C9.53501 13.3625 9.84159 12.9518 10.224 12.6193L10.162 11.5193C9.34903 12.034 8.72389 12.7973 8.37946 13.6957C8.03503 14.5941 7.98969 15.5797 8.25018 16.506C8.51067 17.4322 9.06308 18.2497 9.82531 18.8369C10.5875 19.4241 11.5189 19.7497 12.481 19.7653C13.354 19.7275 14.1984 19.4427 14.9161 18.9441C15.6337 18.4454 16.1951 17.7533 16.535 16.9483L15.866 16.0263C15.7095 16.8109 15.2874 17.5177 14.6709 18.0277C14.0544 18.5376 13.281 18.8196 12.481 18.8263L12.486 18.8243ZM19.357 16.6623H18.794L16.54 13.5623C16.418 13.3483 15.977 12.7173 15.413 12.7173H12.874V11.5913H15.127C15.419 11.5913 15.734 11.4673 15.734 11.1673C15.734 10.8673 15.427 10.7463 15.127 10.7463H12.874V9.61926C12.832 8.99526 12.31 8.77926 11.745 8.78726C11.18 8.79526 10.897 9.05626 10.897 9.61926V13.5633C10.951 14.1963 11.406 14.4083 12.024 14.4083H15.404L17.376 16.9433C17.503 17.1533 17.939 17.7883 17.939 17.7883H19.347C19.4964 17.7883 19.6397 17.7289 19.7454 17.6232C19.8511 17.5175 19.9105 17.3742 19.9105 17.2248C19.9105 17.0753 19.8511 16.932 19.7454 16.8263C19.6397 16.7206 19.4964 16.6613 19.347 16.6613L19.357 16.6623Z" fill="#29C46F"/>
</svg>
